<svg width="50" height="50" viewBox="0 0 50 50" fill="none" xmlns="http://www.w3.org/2000/svg">
<path d="M16.1588 16.7607L18.8437 25.6705H13.5439L16.1588 16.7607Z" fill="#272725"/>
<path d="M41.1429 0H8.85456C3.9648 0 0 4.06646 0 9.08159V40.9184C0 45.9335 3.9648 50 8.85456 50H41.1454C46.0352 50 50 45.9335 50 40.9184V9.08159C50 4.06646 46.0352 0 41.1454 0H41.1429ZM26.4937 35.2546H22.1339C21.9789 35.2726 21.8364 35.17 21.7989 35.0136L20.0865 29.9139H12.3394L10.762 34.9469C10.7195 35.1367 10.5495 35.2649 10.3595 35.2572H6.43718C6.21219 35.2572 6.13469 35.1315 6.20219 34.8777L12.9094 15.1454C12.9769 14.9377 13.0443 14.7377 13.1118 14.4736C13.1993 14.0147 13.2418 13.5455 13.2443 13.0788C13.2268 12.9609 13.3068 12.8532 13.4193 12.8378C13.4368 12.8378 13.4593 12.8378 13.4768 12.8378H18.8091C18.9641 12.8378 19.054 12.8942 19.0765 13.0096L26.6912 34.911C26.7612 35.1392 26.6912 35.2546 26.4937 35.2546ZM42.8429 26.7371C42.8104 27.1499 42.7804 27.4499 42.7604 27.6319C42.7429 27.7909 42.6129 27.9063 42.4579 27.9063C42.3254 27.9063 42.0954 27.9242 41.7704 27.9575C41.4454 27.9909 41.0429 28.0165 40.563 28.0268C40.0805 28.0396 39.573 27.955 39.0381 27.955H32.4309C32.5109 28.6267 32.7284 29.2703 33.0683 29.8498C33.4433 30.4241 33.9733 30.8702 34.5933 31.1394C35.4357 31.5138 36.3432 31.6958 37.2606 31.6753C37.9881 31.6599 38.7106 31.5779 39.4255 31.4317C40.063 31.3445 40.6855 31.1753 41.2854 30.9369C41.3954 30.8446 41.4529 30.9035 41.4529 31.1087V34.3777C41.4604 34.4675 41.4404 34.5546 41.4029 34.6367C41.3654 34.6982 41.3129 34.7521 41.2529 34.7905C40.588 35.0931 39.8905 35.3059 39.173 35.4264C38.2006 35.6136 37.2131 35.7007 36.2207 35.6854C33.7158 35.6854 31.2584 34.9392 29.6135 32.8983C28.3186 31.2881 27.7336 29.0677 27.7336 26.9807C27.7336 24.7167 28.3986 22.4271 29.8135 20.6682C31.3459 18.7657 33.4583 17.9683 35.8182 17.9683C37.8456 17.9683 39.9455 18.6657 41.2504 20.3246C42.3479 21.7168 42.8929 23.5885 42.8929 25.3654C42.8929 25.8628 42.8754 26.3192 42.8429 26.7345V26.7371ZM35.6482 21.6809C34.4958 21.6091 33.4083 22.2425 32.8809 23.2962C32.6484 23.7757 32.4984 24.2911 32.4284 24.8192H36.8207C37.3581 24.8192 37.7531 24.8141 38.0131 24.8013C38.1831 24.7833 38.3506 24.7269 38.4981 24.6372V24.4295C38.4906 24.1603 38.4456 23.8936 38.3656 23.6398C37.9931 22.4347 36.8807 21.6322 35.6457 21.6809H35.6482Z" fill="#272725"/>
</svg>
