<svg width="50" height="50" viewBox="0 0 50 50" fill="none" xmlns="http://www.w3.org/2000/svg">
<path d="M20.314 16.7504H20.2715L17.6891 25.6602H22.9814L20.314 16.7504ZM20.314 16.7504H20.2715L17.6891 25.6602H22.9814L20.314 16.7504ZM41.1454 0H8.85456C3.9598 0 0 4.05877 0 9.08159V40.9184C0 45.9387 3.9573 50 8.85456 50H41.1454C46.0402 50 50 45.9412 50 40.9184V9.08159C50 4.06133 46.0427 0 41.1454 0ZM30.626 35.3187H26.2712C26.1262 35.3392 25.9787 35.2341 25.9387 35.0828L24.2313 29.9985H16.4817L14.8993 35.0187C14.8568 35.211 14.6918 35.3392 14.5043 35.3187H10.587C10.357 35.3187 10.2945 35.1905 10.357 34.9341L17.0641 15.1274C17.1266 14.9146 17.1891 14.6787 17.2716 14.4223C17.3541 13.9736 17.3966 13.5044 17.3966 13.0327C17.3766 12.925 17.4591 12.8199 17.5641 12.7968H22.9589C23.1263 12.7968 23.2088 12.8609 23.2288 12.9686L30.8335 34.9751C30.896 35.211 30.8335 35.3161 30.626 35.3161V35.3187ZM37.7081 34.9982C37.7081 35.2341 37.6256 35.3392 37.4381 35.3392H33.3558C33.1483 35.3392 33.0434 35.211 33.0434 34.9982V18.5452C33.0434 18.3324 33.1258 18.2452 33.3133 18.2452H37.4381C37.6256 18.2452 37.7081 18.3529 37.7081 18.5452V34.9982ZM37.2706 15.7043C36.7907 16.2171 36.0832 16.494 35.3757 16.453C34.6883 16.4735 34.0208 16.1966 33.5208 15.7043C33.0409 15.171 32.7909 14.4659 32.8134 13.7378C32.7934 13.0122 33.0633 12.3276 33.5633 11.8353C34.0633 11.343 34.7308 11.0866 35.4182 11.0866C36.2307 11.0866 36.8557 11.343 37.3131 11.8353C37.7706 12.3481 38.0206 13.0327 38.0006 13.7378C38.0206 14.4634 37.7706 15.1685 37.2706 15.7043ZM20.2715 16.7504L17.6891 25.6602H22.9814L20.314 16.7504H20.2715Z" fill="#272725"/>
</svg>
