<svg width="50" height="50" viewBox="0 0 50 50" fill="none" xmlns="http://www.w3.org/2000/svg">
<path fill-rule="evenodd" clip-rule="evenodd" d="M25 50C38.8071 50 50 38.8071 50 25C50 11.1929 38.8071 0 25 0C11.1929 0 0 11.1929 0 25C0 38.8071 11.1929 50 25 50ZM25.2749 8.51064H19.564C11.9567 8.80931 12.0327 19.2588 19.5641 19.5432H25.2749V8.51064ZM25.2749 31.0477H19.564C12.0327 30.7633 11.9567 20.3138 19.5641 20.0151H25.2749V31.0477ZM25.7635 8.51064H31.4745C39.0121 8.73584 39.1072 19.1487 31.4745 19.5432H25.7635V8.51064ZM25.2749 31.5195V37.0359H25.275C25.275 42.4719 18.2881 44.3451 15.1979 40.5879C11.9567 36.7972 14.9037 31.5195 19.5641 31.5195H25.2749ZM28.6067 20.7478C32.4132 18.6281 37.1971 21.292 37.1971 25.5314C37.1971 29.7707 32.4132 32.4347 28.6067 30.315C24.8002 28.1953 24.8003 22.8675 28.6067 20.7478Z" fill="#272725"/>
</svg>
