<svg width="50" height="50" viewBox="0 0 50 50" fill="none" xmlns="http://www.w3.org/2000/svg">
<path d="M41.1454 0H8.85455C3.9598 0 0 4.05877 0 9.08159V40.9184C0 45.9387 3.9573 50 8.85455 50H41.1454C46.0402 50 50 45.9412 50 40.9184V9.08159C50 4.06133 46.0427 0 41.1454 0ZM18.1666 34.9982C18.1666 35.2341 18.0616 35.3392 17.8741 35.3392H13.7918C13.6043 35.3392 13.5218 35.2315 13.5218 34.9982V13.0763C13.5218 12.884 13.6268 12.7993 13.8143 12.7993H17.8766C18.0016 12.7788 18.1266 12.8634 18.1466 13.0122C18.1666 13.0327 18.1666 13.0557 18.1666 13.0763V34.9982ZM36.7707 34.3572C35.6882 34.8264 34.5408 35.17 33.3758 35.3828C32.3334 35.5751 31.2509 35.6828 30.1685 35.6828C28.6261 35.7033 27.0861 35.3828 25.6887 34.7213C24.3763 34.1008 23.2938 33.0752 22.5439 31.8163C21.7739 30.5138 21.3989 28.8883 21.3989 26.9448C21.3789 25.3628 21.7739 23.8039 22.5439 22.4373C23.3363 21.0476 24.4813 19.8938 25.8562 19.1247C27.3136 18.2914 29.0635 17.8863 31.1259 17.8863C31.2309 17.8863 31.3759 17.8863 31.5634 17.9068C31.7509 17.9273 31.9584 17.9273 32.2084 17.9504V11.1994C32.2084 11.0507 32.2709 10.9635 32.4159 10.9635H36.6457C36.7507 10.943 36.8332 11.0276 36.8532 11.1123V31.4958C36.8532 31.8804 36.8732 32.3086 36.8957 32.7778C36.9382 33.2265 36.9582 33.6547 36.9782 34.0162C36.9782 34.1649 36.9157 34.2931 36.7707 34.3572ZM30.9585 21.8579C30.146 21.8579 29.3335 22.0296 28.6036 22.4142C27.8961 22.7783 27.2911 23.3116 26.8337 23.9962C26.3762 24.6808 26.1462 25.5987 26.1462 26.7089C26.1262 27.4576 26.2512 28.2037 26.5012 28.9088C26.7087 29.4857 27.0211 29.9985 27.4386 30.4266C27.8336 30.8112 28.3136 31.1112 28.8561 31.2804C29.4185 31.4727 30.001 31.5574 30.586 31.5574C30.8985 31.5574 31.1909 31.5368 31.4609 31.5138C31.7309 31.5343 31.9809 31.4933 32.2109 31.4061V22.004C32.0234 21.9604 31.8359 21.9194 31.6484 21.8963C31.4184 21.8758 31.1909 21.8527 30.961 21.8527L30.9585 21.8579Z" fill="#272725"/>
</svg>
