<svg width="50" height="50" viewBox="0 0 50 50" fill="none" xmlns="http://www.w3.org/2000/svg">
<path d="M21.9637 18.5785C22.3037 19.1247 22.4812 19.781 22.4587 20.4707C22.4587 21.4117 22.2512 22.1373 21.8137 22.6706C20.8488 23.8501 19.1363 24.1885 17.7089 24.1885H16.604C16.354 24.1885 16.084 24.168 15.7915 24.1449V16.9658C15.9365 16.9453 16.229 16.9222 16.6465 16.9453C17.0415 16.9248 17.5214 16.9248 18.0639 16.9248C19.4988 16.9248 21.1387 17.253 21.9637 18.5811V18.5785Z" fill="#272725"/>
<path d="M41.1454 0H8.85455C3.9598 0 0 4.05877 0 9.08158V40.9184C0 45.9387 3.9573 50 8.85455 50H41.1454C46.0402 50 50 45.9412 50 40.9184V9.08158C50 4.06133 46.0427 0 41.1454 0ZM25.7512 24.8936C24.9188 26.091 23.7513 26.9884 22.3964 27.5012C20.979 28.0345 19.4165 28.2268 17.7091 28.2268C17.2091 28.2268 16.8767 28.2268 16.6667 28.2062C16.4592 28.1857 16.1667 28.1857 15.7717 28.1857V35.0444C15.7917 35.1931 15.6892 35.3213 15.5417 35.3443H11.4994C11.3319 35.3443 11.2494 35.2597 11.2494 35.0674V13.0763C11.2494 12.9275 11.3119 12.8404 11.4569 12.8404C11.8119 12.8404 12.1444 12.8404 12.6244 12.8199C13.1243 12.7993 13.6443 12.7993 14.2068 12.7763C14.7693 12.7558 15.3742 12.7558 16.0192 12.7327C16.6642 12.7122 17.2891 12.7122 17.9141 12.7122C19.6215 12.7122 21.039 12.925 22.2064 13.3737C23.2488 13.7378 24.2063 14.3352 24.9987 15.1249C25.6662 15.8094 26.1862 16.6427 26.5187 17.5606C26.8312 18.458 26.9986 19.3759 26.9986 20.3374C26.9986 22.1758 26.5812 23.6911 25.7487 24.8885L25.7512 24.8936ZM40.5205 33.2034C39.938 34.0572 39.1255 34.7213 38.1881 35.1059C37.1681 35.5546 35.9182 35.7905 34.4183 35.7905C33.4608 35.7905 32.5234 35.7059 31.5859 35.5136C30.856 35.3854 30.1285 35.1495 29.461 34.829C29.316 34.7444 29.211 34.5931 29.231 34.4239V30.7061C29.231 30.642 29.251 30.5574 29.3135 30.5138C29.376 30.4702 29.4385 30.4933 29.501 30.5343C30.3135 31.0266 31.1684 31.3676 32.0834 31.5804C32.8759 31.7932 33.7083 31.9009 34.5408 31.9009C35.3732 31.9009 35.8957 31.7932 36.2707 31.6009C36.6032 31.4522 36.8332 31.0881 36.8332 30.7036C36.8332 30.4036 36.6657 30.1267 36.3332 29.8497C36.0007 29.5728 35.3132 29.2523 34.2908 28.8447C33.2283 28.4601 32.2484 27.9473 31.3334 27.3063C30.6885 26.8371 30.146 26.2166 29.751 25.491C29.4185 24.8064 29.251 24.0603 29.271 23.3116C29.271 22.3937 29.521 21.5168 29.9785 20.7271C30.4985 19.8733 31.2709 19.1888 32.1659 18.7606C33.1458 18.2478 34.3733 18.0119 35.8532 18.0119C36.7082 18.0119 37.5831 18.076 38.4356 18.2042C39.0605 18.2888 39.6655 18.4606 40.228 18.6965C40.3105 18.717 40.3955 18.8042 40.4355 18.8888C40.4555 18.9734 40.478 19.0606 40.478 19.1452V22.627C40.478 22.7117 40.4355 22.7988 40.373 22.8399C40.1855 22.8834 40.0805 22.8834 39.998 22.8399C39.373 22.4988 38.7056 22.263 37.9981 22.1142C37.2281 21.9425 36.4557 21.8373 35.6657 21.8373C35.2482 21.8168 34.8108 21.8809 34.4158 21.9861C34.1458 22.0502 33.9158 22.1989 33.7708 22.4142C33.6658 22.586 33.6033 22.7988 33.6033 22.9911C33.6033 23.1834 33.6858 23.3757 33.8108 23.5475C33.9983 23.7834 34.2483 23.9757 34.5183 24.1244C34.9983 24.3808 35.4982 24.6167 35.9982 24.8295C37.1231 25.2141 38.2056 25.7474 39.2055 26.3884C39.893 26.8371 40.4555 27.4345 40.8505 28.1627C41.1829 28.8472 41.3504 29.5934 41.3304 30.3625C41.3504 31.3676 41.0604 32.3701 40.518 33.2034H40.5205Z" fill="#272725"/>
</svg>
