<svg width="50" height="50" viewBox="0 0 50 50" fill="none" xmlns="http://www.w3.org/2000/svg">
<path fill-rule="evenodd" clip-rule="evenodd" d="M8.85457 0H41.1455C46.0427 0 50 4.06133 50 9.08158V40.9184C50 45.9412 46.0402 50 41.1455 50H8.85457C3.95731 50 0 45.9387 0 40.9184V9.08158C0 4.05877 3.95981 0 8.85457 0ZM29.0273 12.497L33.8537 14.8921L33.8551 14.8906C34.3625 15.1425 34.6873 15.6741 34.6873 16.2534V32.5094C34.6883 32.7942 34.611 33.0734 34.4643 33.3146C34.3177 33.5558 34.1077 33.7492 33.8588 33.8722L29.028 36.2711C28.7558 36.4078 28.4488 36.4532 28.1503 36.401C27.8517 36.3488 27.5765 36.2016 27.3631 35.98L18.1143 27.2753L14.0856 30.4305C13.9042 30.5735 13.6798 30.6464 13.4517 30.6363C13.2235 30.6262 13.006 30.5338 12.8371 30.3752L11.5467 29.1622C11.4459 29.0682 11.3652 28.9535 11.3098 28.8254C11.2545 28.6973 11.2258 28.5587 11.2254 28.4185C11.2251 28.2783 11.2531 28.1395 11.3078 28.0112C11.3625 27.8828 11.4427 27.7676 11.5431 27.6731L15.0373 24.3841L11.5431 21.0951C11.4427 21.0005 11.3625 20.8854 11.3078 20.757C11.2531 20.6286 11.2251 20.4899 11.2254 20.3497C11.2258 20.2095 11.2545 20.0709 11.3098 19.9428C11.3652 19.8147 11.4459 19.7 11.5467 19.606L12.8371 18.3929C13.006 18.2343 13.2235 18.142 13.4517 18.1319C13.6798 18.1218 13.9042 18.1946 14.0856 18.3377L18.1143 21.4891L27.3587 12.7882C27.5729 12.5668 27.8488 12.4197 28.1479 12.3675C28.4469 12.3154 28.7543 12.3606 29.0273 12.497ZM21.8057 24.3848L28.8242 29.8799V18.8898L21.8057 24.3848Z" fill="#272725"/>
</svg>
