<svg width="390" height="70" viewBox="0 0 390 70" fill="none" xmlns="http://www.w3.org/2000/svg">
<path d="M239.271 49.9626C240.197 44.9736 240.361 39.6806 240.361 35.1666C240.361 24.7833 237.706 16.9224 232.473 11.811C225.167 4.67682 214.815 4.69429 209.267 4.70127H208.722V9.55757H209.274C214.452 9.54359 223.12 9.5366 228.965 15.2454C233.234 19.4134 235.4 26.1179 235.4 35.1666C235.4 39.2438 235.222 42.8319 234.845 45.9693C230.523 42.8354 225.541 41.2143 220.094 41.2143C213.666 41.2143 209.697 43.6494 207.499 45.6898C204.659 48.331 203.027 51.9785 203.027 55.6958C203.027 59.4132 204.474 62.5401 207.101 64.9403C209.962 67.5536 214.019 68.9371 218.826 68.9371C227.442 68.9371 233.521 65.2058 236.892 57.8445C237.186 57.2016 237.458 56.5378 237.706 55.8565C237.811 56.0068 237.919 56.157 238.024 56.3107C241.668 61.6107 243.08 67.04 243.093 67.0924L247.911 65.929C247.848 65.6774 246.318 59.7311 242.231 53.7289C241.301 52.3663 240.312 51.1086 239.275 49.9591L239.271 49.9626ZM218.826 64.0843C215.297 64.0843 212.415 63.155 210.49 61.3941C208.879 59.9198 207.992 57.8969 207.992 55.6958C207.992 50.9129 212.149 46.0671 220.094 46.0671C225.331 46.0671 229.943 47.8804 233.867 51.4684C231.652 60.3565 226.914 64.0843 218.826 64.0843Z" fill="#590D8B"/>
<path d="M193.706 0.51228C190.296 -0.0886422 185.918 0.561193 181.995 2.25565C178.913 3.58677 176.447 5.407 174.777 7.54517C167.311 6.71366 160.515 5.3511 158.472 4.58947L156.742 9.24313C158.762 9.99428 165.208 11.3638 172.506 12.2792C170.588 19.7523 170.948 35.1701 171.115 39.9845C171.486 50.5635 172.663 63.6441 174.864 68.6262L179.406 66.6208C177.851 63.1026 176.517 52.3279 176.077 39.8098C175.647 27.5748 176.223 16.8595 177.509 12.8137C185.845 13.5474 194.237 13.4216 197.769 10.9655C199.223 9.95585 200.019 8.51643 200.019 6.9128C200.019 3.60074 197.657 1.20753 193.702 0.508787L193.706 0.51228ZM181.492 8.11465C184.951 5.89613 189.761 4.85499 192.843 5.40002C194.824 5.74939 195.037 6.46211 195.058 6.80799C194.429 7.44036 191.002 8.63522 181.488 8.11465H181.492Z" fill="#590D8B"/>
<path d="M341.026 0.51228C337.616 -0.0886422 333.239 0.561193 329.315 2.25565C326.234 3.58677 323.767 5.407 322.097 7.54517C314.631 6.71366 307.839 5.3511 305.792 4.58947L304.062 9.24313C306.082 9.99428 312.528 11.3638 319.826 12.2792C317.908 19.7523 318.268 35.1701 318.436 39.9845C318.806 50.5635 319.983 63.6441 322.185 68.6262L326.726 66.6208C325.172 63.1026 323.837 52.3279 323.397 39.8098C322.971 27.5748 323.544 16.8595 324.829 12.8137C333.165 13.5474 341.557 13.4216 345.089 10.9655C346.543 9.95585 347.339 8.51643 347.339 6.9128C347.339 3.60074 344.978 1.20753 341.023 0.508787L341.026 0.51228ZM328.812 8.11465C332.271 5.89613 337.082 4.85499 340.163 5.40002C342.144 5.74939 342.357 6.46211 342.378 6.80799C341.749 7.44036 338.322 8.63522 328.809 8.11465H328.812Z" fill="#590D8B"/>
<path d="M141.628 8.34524C138.753 4.6838 135.224 2.82863 131.14 2.82863C124.264 2.82863 118.091 8.20199 113.755 17.96C113.493 18.5469 113.242 19.1444 112.997 19.7523C112.766 13.7535 111.767 8.68762 108.763 3.97457L104.577 6.64379C108.522 12.8277 108.274 20.161 107.896 31.2606C107.774 34.8906 107.634 39.0028 107.634 43.5411C107.634 49.8823 107.634 55.6225 107.634 59.7765L107.641 66.3902C107.641 66.4391 107.645 66.4845 107.648 66.5334L112.606 65.8766V62.9069C112.606 60.4159 112.606 56.5448 112.606 51.0072C112.606 39.2369 114.622 28.2176 118.287 19.9724C120.309 15.4235 124.666 7.78973 131.137 7.78973C133.656 7.78973 135.808 8.97411 137.722 11.4092C146.097 22.0686 146.299 52.8275 143.228 65.4294L148.05 66.6033C149.727 59.7276 150.415 48.1109 149.762 37.6961C149.171 28.277 147.281 15.5388 141.625 8.33825L141.628 8.34524Z" fill="#590D8B"/>
<path d="M71.9982 2.44781C68.2006 2.24518 64.616 3.64616 61.6393 6.51103C55.5742 12.3421 52.353 23.6303 52.5661 38.2935C52.7128 48.4289 54.9488 56.3631 59.2147 61.8763C63.9312 67.9763 69.5841 69.1572 72.5363 69.3144H72.6446C72.7075 69.3179 72.7739 69.3179 72.8367 69.3179C84.6211 69.3179 91.8566 58.0751 92.6951 38.4298C93.2087 26.4044 91.5073 17.2613 87.6362 11.2555C84.1075 5.78084 78.846 2.81466 72.0017 2.44432L71.9982 2.44781ZM87.8039 38.2237C87.465 46.116 85.3303 64.4267 72.8228 64.4267H72.7424C70.6112 64.3009 66.576 63.403 63.0787 58.8821C59.5291 54.2914 57.5831 47.1467 57.4538 38.2202C57.2617 25.1187 60.0217 14.8471 65.0282 10.0362C67.0336 8.11116 69.2871 7.1958 71.7362 7.33206C76.9978 7.61505 80.8549 9.76719 83.5241 13.9073C86.8361 19.0466 88.2791 27.2289 87.8074 38.2237H87.8039Z" fill="#590D8B"/>
<path d="M384.848 11.6538C381.319 6.17912 376.058 3.21294 369.214 2.8426C365.423 2.63997 361.831 4.04096 358.855 6.90582C352.79 12.7369 349.568 24.0251 349.781 38.6883C349.928 48.8237 352.168 56.7579 356.43 62.271C361.147 68.3711 366.799 69.552 369.752 69.7092H369.86C369.923 69.7127 369.989 69.7127 370.052 69.7127C381.836 69.7127 389.072 58.4699 389.91 38.8246C390.424 26.7991 388.723 17.656 384.852 11.6503L384.848 11.6538ZM385.019 38.6185C384.68 46.5108 382.542 64.8215 370.038 64.8215H369.958C367.827 64.6957 363.791 63.7978 360.294 59.2769C356.744 54.6861 354.798 47.5415 354.669 38.615C354.477 25.5135 357.237 15.2419 362.244 10.431C364.249 8.50595 366.499 7.59059 368.952 7.72685C374.213 8.00984 378.07 10.162 380.739 14.3021C384.051 19.4413 385.494 27.6237 385.023 38.6185H385.019Z" fill="#590D8B"/>
<path d="M276.703 63.3157C266.145 62.0405 259.73 52.1217 259.549 36.7877C259.385 22.9071 262.616 13.6278 269.15 9.2012C277.409 3.61123 288.536 7.51722 291.751 8.84484L293.62 4.32395C289.836 2.75876 276.689 -1.81105 266.407 5.14847C258.427 10.5498 254.472 21.2162 254.658 36.8436C254.909 58.0576 265.907 66.9352 276.116 68.1685C276.997 68.2733 277.873 68.3257 278.74 68.3257C287.516 68.3257 295.419 63.0397 297.362 55.5002L292.624 54.2809C291.087 60.2377 284.096 64.2066 276.703 63.3122V63.3157Z" fill="#590D8B"/>
<path d="M22.0482 63.3157C11.4901 62.0405 5.07563 52.1217 4.89395 36.7877C4.72975 22.9071 7.96145 13.6278 14.4947 9.2012C22.7504 3.61123 33.8815 7.51373 37.0957 8.84484L38.9649 4.32395C35.1811 2.75876 22.0307 -1.81105 11.7522 5.14847C3.77246 10.5533 -0.17895 21.2162 0.00621779 36.8436C0.257767 58.0576 11.256 66.9352 21.4647 68.1685C22.3452 68.2733 23.2221 68.3257 24.0885 68.3257C32.8648 68.3257 40.7676 63.0397 42.7101 55.5002L37.9726 54.2809C36.4354 60.2377 29.4409 64.2066 22.0482 63.3122V63.3157Z" fill="#590D8B"/>
</svg>
