<svg width="258" height="88" viewBox="0 0 258 88" fill="none" xmlns="http://www.w3.org/2000/svg">
<path d="M215.56 66.3722C214.487 64.7915 213.345 63.3368 212.142 62.004C213.212 56.2258 213.401 50.09 213.401 44.8604C213.401 32.8285 210.335 23.7224 204.29 17.7979C195.852 9.53287 183.912 9.54913 177.487 9.56132H176.858V15.1892H177.496C183.476 15.177 193.483 15.1648 200.238 21.7801C205.17 26.6115 207.667 34.3767 207.667 44.8604C207.667 49.5861 207.462 53.743 207.026 57.3757C202.034 53.743 196.28 51.8657 189.989 51.8657C182.564 51.8657 177.98 54.6857 175.442 57.0506C172.161 60.1104 170.276 64.3364 170.276 68.6436C170.276 72.9509 171.947 76.5714 174.982 79.3548C178.286 82.3861 182.971 83.9871 188.524 83.9871C198.475 83.9871 205.496 79.6637 209.39 71.1345C209.729 70.3868 210.044 69.6188 210.331 68.8305C210.452 69.0053 210.577 69.18 210.698 69.3547C214.907 75.4986 216.537 81.7848 216.553 81.8457L222.118 80.5007C222.045 80.2122 220.282 73.3206 215.556 66.364L215.56 66.3722ZM188.528 78.3674C184.452 78.3674 181.123 77.2906 178.9 75.2508C177.04 73.5441 176.015 71.1995 176.015 68.6517C176.015 63.1092 180.817 57.4976 189.993 57.4976C196.042 57.4976 201.368 59.5984 205.9 63.7553C203.342 74.052 197.87 78.3715 188.528 78.3715V78.3674Z" fill="#590D8B"/>
<path d="M8.65502 82.7882C7.7027 82.7882 6.42351 82.4103 5.24117 80.8296C3.12668 78.0015 1.5166 71.3578 0.709542 66.0834C-0.0934805 60.8131 -0.618068 53.8972 1.43589 50.878C3.04194 48.5213 5.59224 46.7171 8.73976 45.3762C7.51304 29.7401 3.68758 15.8797 1.02026 13.1328L5.05958 9.15472C9.1554 13.3685 12.9203 28.1716 14.2681 43.6004C27.1003 40.5407 44.8233 42.4424 52.3249 45.2583L50.3516 50.5895C45.0009 48.5822 35.0619 47.4363 26.1843 47.802C21.7737 47.9849 17.8636 48.5294 14.6555 49.3786C14.7523 51.4876 14.8008 53.5802 14.7927 55.6404C14.708 79.0336 12.3836 81.7439 9.80508 82.6094C9.54279 82.6988 9.14329 82.7963 8.65906 82.7963L8.65502 82.7882ZM9.08276 51.5323C7.75112 52.2921 6.7423 53.1536 6.09665 54.0963C5.68909 54.7993 5.21696 58.6514 6.4114 65.9615C6.94003 69.1879 7.59374 71.8413 8.20711 73.7958C8.65906 70.6873 9.0989 65.2057 9.13522 55.616C9.13926 54.2548 9.11908 52.8894 9.07873 51.5323H9.08276Z" fill="#590D8B"/>
<path d="M42.7048 81.6789C40.7759 66.8636 41.696 21.7595 44.783 10.39L50.2306 11.8894C47.3373 22.5437 46.4738 66.8758 48.3018 80.9353L42.7008 81.6748L42.7048 81.6789Z" fill="#590D8B"/>
<path d="M244.211 56.8962C242.27 45.0838 243.21 9.0899 246.333 0L251.672 1.86105C249.082 9.40278 247.867 44.2955 249.788 55.9697L244.215 56.9002L244.211 56.8962Z" fill="#590D8B"/>
<path d="M130.815 85.4621C130.085 85.4621 129.371 85.1777 128.83 84.6413C128.071 83.8896 127.801 82.7721 128.124 81.7522C133.261 65.5066 133.438 49.4398 132.68 38.822C131.788 26.3229 129.278 16.4122 127.325 12.495L132.373 9.93915C136.533 18.2692 142.639 48.8709 134.947 78.473C143.357 76.4616 153.066 76.1081 159.341 80.2284L156.254 84.9948C150.729 81.3662 139.947 82.5405 131.711 85.3118C131.416 85.4093 131.118 85.458 130.815 85.458V85.4621Z" fill="#590D8B"/>
<path d="M248.194 87.1933C243.408 87.1933 241.58 83.8328 241.084 82.6422C239.215 78.1521 241.217 71.7563 245.28 69.2207C248.561 67.1728 252.459 67.9895 255.699 71.4068C257.814 73.6377 258.54 77.051 257.588 80.318C256.64 83.585 254.202 86.0677 251.224 86.7991C250.102 87.0754 249.094 87.1933 248.194 87.1933ZM249.065 73.8043C248.658 73.8043 248.396 73.9668 248.254 74.0562C246.576 75.1046 245.51 78.5666 246.293 80.4439C246.455 80.8259 246.939 81.9962 249.889 81.2729C251.111 80.9722 251.866 79.7572 252.169 78.721C252.471 77.6848 252.483 76.2505 251.616 75.3362C250.454 74.1131 249.626 73.8043 249.069 73.8043H249.065Z" fill="#590D8B"/>
<path d="M90.5916 86.7746C90.5149 86.7746 90.4423 86.7746 90.3696 86.7746H90.2445C86.8347 86.5836 80.3056 85.2101 74.858 78.1154C69.9349 71.7033 67.3524 62.4752 67.1788 50.6872C66.9327 33.633 70.6532 20.504 77.6585 13.7222C81.0965 10.3942 85.2327 8.75666 89.6231 8.9964C97.5282 9.42712 103.601 12.8729 107.681 19.2444C112.152 26.2335 114.121 36.8675 113.524 50.8498C112.552 73.6944 104.195 86.7705 90.5875 86.7705L90.5916 86.7746ZM90.4907 81.0858C90.523 81.0858 90.5512 81.0858 90.5835 81.0858C105.026 81.0858 107.495 59.7893 107.887 50.61C108.432 37.8224 106.765 28.3058 102.94 22.3285C99.8566 17.5134 95.4057 15.0103 89.3245 14.6811C86.5038 14.5267 83.893 15.5873 81.5767 17.8262C75.7982 23.4216 72.6103 35.3681 72.8323 50.606C72.9816 60.988 75.2292 69.2977 79.3291 74.6371C83.3684 79.8952 88.0292 80.9395 90.4907 81.0858Z" fill="#590D8B"/>
</svg>
