<svg width="447" height="71" viewBox="0 0 447 71" fill="none" xmlns="http://www.w3.org/2000/svg">
<path d="M331.466 70.486L330.515 68.3249C328.412 63.5634 327.286 51.0621 326.934 40.9543C326.774 36.3489 326.429 21.5994 328.263 14.4625C321.286 13.5872 315.115 12.2761 313.186 11.5606L310.975 10.7398L312.62 6.31236L314.832 7.13319C316.789 7.85959 323.287 9.16711 330.424 9.95888C334.597 4.61986 343.339 2.32081 348.511 3.23607C352.285 3.90435 354.54 6.18888 354.54 9.34871C354.54 10.8778 353.778 12.247 352.394 13.2095C349.02 15.5558 340.993 15.6756 333.024 14.9747C330.304 23.4445 331.506 58.8854 334.833 66.4218L335.785 68.5828L331.466 70.4896V70.486ZM336.802 10.5C345.943 11.0049 349.227 9.85355 349.819 9.24701C349.797 8.91287 349.604 8.22279 347.69 7.88501C344.734 7.36201 340.11 8.36807 336.802 10.5Z" fill="#590D8B"/>
<path d="M241.335 68.9896C236.951 68.9896 232.164 67.8601 227.791 64.8455C222.474 61.1809 216.136 53.4484 216.136 37.4313C216.136 25.0498 218.083 16.097 222.085 10.0534C225.859 4.36204 231.369 1.47461 238.469 1.47461C247.248 1.47461 253.622 7.97224 253.622 16.9215C253.622 23.0014 250.654 28.9906 245.479 33.3489C239.573 38.3248 231.114 40.9979 220.985 41.0923C221.653 50.2885 224.896 57.1094 230.468 60.9521C236.599 65.1761 243.972 64.6966 248.428 63.0005L250.633 62.1615L252.314 66.5744L250.106 67.4134C247.636 68.3541 244.596 68.9824 241.331 68.9824L241.335 68.9896ZM238.469 6.19983C234.162 6.19983 221.159 6.19983 220.861 36.378C229.912 36.3054 237.365 34.0136 242.435 29.7424C246.543 26.2847 248.897 21.6104 248.897 16.9251C248.897 11.5861 245.671 6.19983 238.465 6.19983H238.469Z" fill="#590D8B"/>
<path d="M69.7888 69.8395C66.5309 69.8395 65.7754 65.3141 65.4086 63.1421C64.7912 59.4557 64.4752 54.1384 64.4752 47.343C64.4752 36.832 65.9716 28.8053 67.9474 22.7835C67.319 20.6588 66.6072 18.6394 65.819 16.758C62.6665 9.22162 58.6023 4.72522 54.9485 4.72522V0C60.7342 0 66.1423 5.3027 70.1738 14.9347C70.3409 15.3306 70.5007 15.7301 70.6605 16.1369C71.2888 14.8875 71.9171 13.7834 72.5309 12.8137C76.9402 5.83297 83.0165 1.66345 88.7841 1.66345C94.5517 1.66345 98.7285 6.06905 98.7285 12.3778H94.0069C94.0069 8.62597 92.0529 6.38504 88.7841 6.38504C85.5153 6.38504 80.6884 8.73493 76.5225 15.3343C75.3203 17.2374 74.0382 19.7253 72.8869 22.9142C74.8736 30.1891 75.9668 38.4628 75.9668 46.6311C75.9668 52.5694 75.5164 58.1009 74.6956 62.216C73.9438 65.986 72.7707 69.8431 69.7852 69.8431L69.7888 69.8395ZM70.2537 33.3199C69.5963 37.3405 69.1968 41.9858 69.1968 47.343C69.1968 54.6723 69.5672 59.1179 69.9668 61.7838C70.6423 58.5876 71.2489 53.4629 71.2489 46.6275C71.2489 42.1492 70.9038 37.6456 70.2537 33.3199Z" fill="#590D8B"/>
<path d="M6.55211 69.9412C6.55211 69.9121 6.55211 69.8867 6.55211 69.8577V61.0101C6.54484 56.5973 6.54484 50.4665 6.54484 43.602V40.5911C6.563 23.6479 6.5739 13.4202 1.27483 5.11019L0 3.11986L3.98066 0.5811L5.25186 2.57143C8.27004 7.30028 9.77731 12.3487 10.5291 18.436C10.6708 18.0219 10.8124 17.6188 10.9613 17.2192C14.8512 6.77727 21.5159 1.4782 30.7702 1.4782C35.8623 1.4782 40.4567 3.49759 43.711 7.16226C47.205 11.0993 48.7486 16.4965 48.0476 22.3585C47.1033 30.298 43.5548 35.7642 37.2025 39.0729C31.5692 42.0076 23.3428 43.4604 11.419 43.6093C11.3209 46.0681 11.2737 48.6541 11.2737 51.3636C11.2737 57.3382 11.2737 61.5295 11.2737 64.2244V69.7487C11.2737 69.785 11.2737 69.825 11.2701 69.8613C11.2701 69.9012 11.2701 69.9267 11.2701 69.9376H6.54848L6.55211 69.9412ZM30.7702 6.19979C19.4202 6.19979 13.2422 16.6599 11.6805 38.8841C36.447 38.5209 42.1129 32.3065 43.3623 21.7992C43.8999 17.2955 42.7703 13.2095 40.1807 10.2967C37.8344 7.65621 34.493 6.19979 30.7702 6.19979Z" fill="#590D8B"/>
<path d="M383.051 69.6144C382.986 69.6144 382.924 69.6144 382.859 69.6144H382.753C379.804 69.4509 374.149 68.2705 369.431 62.1688C365.156 56.6409 362.916 48.6832 362.767 38.5136C362.56 24.2871 365.654 13.1841 371.483 7.24584C374.472 4.1986 378.134 2.57874 382.071 2.56421H382.165C387.519 2.56421 391.971 4.37294 395.407 7.94319C401.019 13.7762 403.547 24.1055 402.925 38.6517C402.083 58.3443 394.844 69.6144 383.055 69.6144H383.051ZM382.957 64.8928H383.04C395.701 64.8928 397.862 46.4132 398.204 38.4483C398.77 25.2423 396.682 16.0788 392 11.2156C389.491 8.60784 386.182 7.28579 382.161 7.28579H382.089C379.405 7.29669 376.971 8.39718 374.854 10.5546C369.914 15.5849 367.299 25.4893 367.488 38.4446C367.619 47.4411 369.584 54.6469 373.165 59.2814C376.706 63.8613 380.799 64.7693 382.957 64.8964V64.8928Z" fill="#590D8B"/>
<path d="M124.719 69.6144C124.654 69.6144 124.592 69.6144 124.526 69.6144H124.421C121.472 69.4509 115.817 68.2705 111.099 62.1688C106.824 56.6409 104.583 48.6832 104.434 38.5136C104.227 24.2871 107.322 13.1841 113.151 7.24584C116.14 4.1986 119.801 2.57874 123.738 2.56421H123.833C129.186 2.56421 133.639 4.37294 137.075 7.94319C142.686 13.7762 145.214 24.1055 144.593 38.6517C143.751 58.3443 136.512 69.6144 124.723 69.6144H124.719ZM124.628 64.8928H124.712C137.373 64.8928 139.534 46.4132 139.875 38.4483C140.442 25.2423 138.353 16.0788 133.672 11.2156C131.162 8.60784 127.853 7.28579 123.833 7.28579H123.76C121.076 7.29669 118.643 8.39718 116.525 10.5546C111.586 15.5849 108.971 25.4893 109.16 38.4446C109.29 47.4411 111.255 54.6469 114.836 59.2814C118.378 63.8613 122.471 64.7693 124.628 64.8964V64.8928Z" fill="#590D8B"/>
<path d="M290.791 69.8395C289.923 69.8395 289.044 69.7887 288.165 69.6797C277.941 68.4448 266.926 59.5465 266.675 38.2775C266.49 22.5982 270.449 11.9057 278.446 6.49038C288.743 -0.483043 301.923 4.10053 305.715 5.66955L303.91 10.0316C300.667 8.68773 289.437 4.75065 281.09 10.3984C274.491 14.8657 271.229 24.2254 271.393 38.2194C271.574 53.6917 278.058 63.7015 288.728 64.9908C296.21 65.8952 303.289 61.8746 304.847 55.8346L309.42 57.015C307.477 64.5513 299.57 69.8359 290.791 69.8359V69.8395Z" fill="#590D8B"/>
<path d="M178.621 69.8395C170.566 69.8395 164.413 67.7693 160.327 63.6869L163.665 60.3491C166.785 63.469 171.957 65.1179 178.618 65.1179C182.301 65.1179 185.01 64.1591 186.891 62.1833C190.429 58.4787 191.159 51.1675 191.068 42.5596C188.036 43.8127 184.331 44.4301 179.907 44.4301C170.972 44.4301 164.922 39.0947 161.922 28.5692C159.586 20.3718 159.586 10.5764 159.586 4.09325V3.83901H164.308V4.09325C164.308 10.3148 164.308 19.7144 166.462 27.2762C168.844 35.6407 173.242 39.7085 179.904 39.7085C184.905 39.7085 188.435 38.8623 190.93 37.3877C190.858 35.4918 190.77 33.5596 190.68 31.6092C190.447 26.5934 190.204 21.4033 190.24 16.2277C190.335 2.69494 192.982 1.20582 193.981 0.646495C195.027 0.0617452 196.222 0.0835372 197.268 0.708239C201.757 3.40317 201.794 17.7023 201.699 22.0244C201.594 26.7932 201.234 32.2557 198.296 36.7049C197.559 37.8199 196.705 38.8078 195.732 39.6795C196.044 50.7788 195.434 60.0695 190.302 65.4484C187.52 68.3649 183.586 69.8431 178.611 69.8431L178.621 69.8395ZM195.717 7.05696C195.347 8.87658 195.005 11.8076 194.973 16.2604C194.936 21.3125 195.176 26.4336 195.405 31.3913C195.416 31.6383 195.427 31.8852 195.438 32.1286C196.636 29.2266 196.905 25.7 196.988 21.9191C197.148 14.6188 196.444 9.73736 195.714 7.05696H195.717Z" fill="#590D8B"/>
<path d="M429.007 69.549C422.121 69.549 414.788 66.1858 412.972 59.7644L417.515 58.4823C418.681 62.6046 424.816 65.4594 430.903 64.7148C434.023 64.3334 441.312 62.3867 441.628 52.5549C441.901 44.0815 436.965 41.6263 428.891 38.3211C421.87 35.4482 413.912 32.194 412.54 21.89C411.566 14.5897 414.225 8.03762 419.647 4.36568C425.68 0.27969 433.823 0.403178 441.432 4.68892L439.115 8.80397C433.104 5.41532 426.817 5.21919 422.295 8.27733C418.329 10.9614 416.48 15.6975 417.221 21.2653C418.235 28.8562 424.002 31.217 430.681 33.9482C438.211 37.0282 446.742 40.5185 446.35 52.7002C445.997 63.7124 438.436 68.5466 431.48 69.3964C430.67 69.4945 429.846 69.5453 429.011 69.5453L429.007 69.549Z" fill="#590D8B"/>
</svg>
