<?xml version="1.0" encoding="UTF-8"?>
<svg id="Capa_1" data-name="Capa 1" xmlns="http://www.w3.org/2000/svg" viewBox="0 0 1020 190">
  <defs>
    <style>
      .cls-1 {
        fill: #272725;
      }
    </style>
  </defs>
  <path class="cls-1" d="M58.97,185.38c-1.22-.05-2.45-.13-3.67-.26-12.64-1.29-21.69-6.01-28.15-13.1C19.41,164.23,1.31,143,.09,103.81-.91,71.36,6.18,45.82,20.61,29.97c12.29-13.5,29.15-19.37,50.11-17.45,18.69,1.71,33.27,10.02,43.34,24.69,18.18,26.49,15.39,64.4,13.35,79.47-1.99,14.64-6.28,27.4-12.66,37.85,11.42,5.68,23.1,12.93,34.51,21.81l-6.51,10.93c-12.06-9.39-24.24-16.69-35.86-22.18-2.54,2.8-5.28,5.34-8.23,7.61-11.29,8.71-25.57,13.23-39.69,12.68ZM36.3,163.06c2.78,3.96,10.23,7.93,20.14,8.94,12.51,1.28,26.76-1.92,38.31-12.08-25.51-9.68-46.87-10.3-56.05-4.95-3.48,2.03-3.63,4.05-3.59,4.71.14,2.12,1.18,3.39,1.18,3.39ZM65.77,25.4c-15.7-.61-28.22,4.1-37.27,14.04-11.96,13.14-17.82,35.19-16.93,63.76.7,22.63,7.7,38.08,14.33,47.75,1.69-3.09,4.29-5.72,7.7-7.71,13.46-7.84,40.29-6.26,70.24,6.3,5.83-8.62,10.22-20.02,12.22-34.74,3.78-27.85-.36-53.78-11.06-69.37-8.04-11.71-19.92-18.37-35.32-19.78-1.32-.12-2.63-.21-3.91-.26Z"/>
  <path class="cls-1" d="M726.25,134.64c2.46-13.25,2.89-27.31,2.89-39.29,0-27.58-7.05-48.45-20.95-62.03-19.4-18.94-46.89-18.9-61.63-18.88h-1.45v12.9h1.47c13.75-.03,36.77-.06,52.3,15.11,11.34,11.07,17.09,28.87,17.09,52.9,0,10.83-.47,20.36-1.47,28.69-11.48-8.32-24.71-12.63-39.17-12.63-17.07,0-27.61,6.46-33.45,11.89-7.55,7.01-11.87,16.7-11.87,26.58s3.84,18.17,10.82,24.55c7.6,6.94,18.37,10.62,31.14,10.62,22.88,0,39.02-9.91,47.98-29.46.78-1.71,1.5-3.47,2.16-5.28.28.4.56.8.84,1.2,9.68,14.08,13.42,28.49,13.46,28.63l12.8-3.09c-.17-.67-4.23-16.46-15.09-32.4-2.47-3.62-5.09-6.96-7.85-10.01ZM671.96,172.15c-9.37,0-17.03-2.47-22.14-7.14-4.28-3.91-6.64-9.29-6.64-15.13,0-12.71,11.04-25.57,32.14-25.57,13.91,0,26.16,4.81,36.57,14.34-5.88,23.6-18.46,33.5-39.94,33.5Z"/>
  <path class="cls-1" d="M1004.91,144.15c-2.47-3.61-5.09-6.93-7.85-9.97,2.46-13.2,2.89-27.21,2.89-39.14,0-27.47-7.05-48.26-20.95-61.79-19.4-18.87-46.86-18.83-61.63-18.81h-1.45v12.85h1.47c13.75-.03,36.76-.06,52.3,15.05,11.34,11.03,17.09,28.76,17.09,52.7,0,10.79-.47,20.28-1.47,28.58-11.48-8.29-24.71-12.58-39.17-12.58-17.07,0-27.61,6.44-33.45,11.84-7.55,6.98-11.87,16.63-11.87,26.47s3.84,18.1,10.82,24.46c7.6,6.92,18.37,10.57,31.14,10.57,22.88,0,39.02-9.87,47.98-29.34.78-1.7,1.5-3.46,2.16-5.26.28.4.56.8.84,1.2,9.68,14.03,13.42,28.38,13.46,28.52l12.8-3.07c-.17-.66-4.23-16.4-15.09-32.28ZM942.76,171.54c-9.37,0-17.03-2.46-22.14-7.12-4.28-3.9-6.64-9.25-6.64-15.07,0-12.66,11.04-25.47,32.14-25.47,13.91,0,26.16,4.79,36.57,14.29-5.88,23.51-18.47,33.37-39.94,33.37Z"/>
  <path class="cls-1" d="M240.66,20.79c.2.73,19.63,73.35,19.63,102.51,0,18.83-5.16,50.41-39.74,50.41-26.23,0-43.86-20.26-43.86-50.41,0-32.93,20.35-101.65,20.56-102.34l-12.63-3.76c-.86,2.89-21.1,71.26-21.1,106.11,0,17.81,5.55,33.93,15.64,45.39,10.34,11.74,25.04,18.2,41.4,18.2,33.14,0,52.92-23.77,52.92-63.59,0-30.89-19.26-102.89-20.08-105.94l-12.73,3.42Z"/>
  <path class="cls-1" d="M330.12,20.2l-12.87-2.86c-6.76,30.37,1.62,160.17,2,164.6l13.13-1.13c-.09-1.06-8.59-132.2-2.27-160.61Z"/>
  <path class="cls-1" d="M627.29,20.33c0-8.8-6.27-15.15-16.78-17.01-9.05-1.6-20.68.13-31.1,4.63-8.18,3.53-14.73,8.37-19.17,14.05-19.82-2.2-37.87-5.83-43.31-7.85l-4.59,12.36c5.36,1.99,22.48,5.63,41.86,8.06-5.09,19.85-4.14,60.79-3.69,73.58.98,28.09,4.11,62.83,9.95,76.06l12.06-5.32c-4.12-9.35-7.68-37.96-8.84-71.2-1.14-32.49.39-60.95,3.81-71.69,22.14,1.95,44.43,1.61,53.81-4.91,3.86-2.68,5.98-6.5,5.98-10.76ZM578.06,23.5c9.18-5.89,21.96-8.66,30.15-7.21,5.26.93,5.82,2.82,5.88,3.74-1.67,1.68-10.77,4.86-36.03,3.47Z"/>
  <path class="cls-1" d="M495.45,105.1c-1.57-25.01-6.59-58.84-21.61-77.96-7.64-9.72-17.01-14.65-27.85-14.65-18.26,0-34.65,14.27-46.17,40.18-.69,1.55-1.36,3.14-2.01,4.76-.61-15.93-3.27-29.39-11.25-41.9l-11.11,7.09c10.48,16.43,9.81,35.9,8.81,65.38-.33,9.64-.7,20.57-.7,32.62,0,16.84,0,32.08,0,43.12v17.56c.01.13.03.25.03.38l13.17-1.75v-7.88c0-6.61,0-16.9,0-31.6,0-31.26,5.36-60.53,15.09-82.42,5.37-12.08,16.95-32.36,34.12-32.36,6.69,0,12.41,3.14,17.49,9.61,22.24,28.31,22.78,109.99,14.62,143.46l12.81,3.12c4.45-18.26,6.28-49.11,4.55-76.76Z"/>
  <path class="cls-1" d="M883.79,105.1c-1.57-25.01-6.59-58.84-21.61-77.96-7.64-9.72-17.01-14.65-27.85-14.65-18.26,0-34.65,14.27-46.17,40.18-.69,1.56-1.36,3.14-2.01,4.76-.61-15.94-3.27-29.39-11.25-41.9l-11.11,7.09c10.48,16.43,9.81,35.9,8.81,65.38-.33,9.64-.7,20.57-.7,32.62,0,16.84,0,32.08,0,43.12v17.25s13.2-.62,13.2-.62c0,0-.74-25.23,0-39.91,1.16-22.65,5.36-60.53,15.09-82.42,5.37-12.08,16.95-32.36,34.13-32.36,6.69,0,12.41,3.14,17.49,9.61,22.24,28.31,22.78,109.99,14.62,143.46l12.81,3.12c4.45-18.26,6.28-49.11,4.55-76.77Z"/>
</svg>