<svg width="327" height="663" viewBox="0 0 327 663" fill="none" xmlns="http://www.w3.org/2000/svg">
<path d="M109.953 35.0002C109.246 35.3306 77.0047 57.249 72.4454 61.5222C67.8862 65.7954 31.9455 142.629 35.7773 141.688C39.6225 140.751 47.4583 137.087 49.2373 135.108C51.0162 133.128 74.3452 68.0411 81.7937 64.1392C89.2379 60.2281 112.255 52.7452 114.185 51.9863C116.115 51.2273 109.953 35.0002 109.953 35.0002Z" fill="white" stroke="#1D1D1B" stroke-width="1.74" stroke-miterlimit="10"/>
<mask id="mask0_133_1032" style="mask-type:luminance" maskUnits="userSpaceOnUse" x="13" y="167" width="246" height="495">
<path d="M101.566 170.287C101.566 171.667 102.086 177.517 101.566 178.207C101.046 178.897 100.186 185.267 100.186 188.197C100.186 191.127 90.0257 194.567 88.9957 199.737C84.6857 199.737 28.9657 234.568 14.2557 290.158C7.02574 314.617 39.0557 635.467 47.8357 642.698C56.6157 649.928 85.5557 663.877 147.556 660.777C209.556 657.677 233.836 643.727 235.906 640.107C237.976 636.487 263.286 303.757 257.606 284.637C251.926 265.517 229.446 220.057 180.626 196.807C180.626 193.447 170.036 190.867 169.516 186.987C168.996 183.107 169.256 178.717 167.186 176.907C165.116 175.097 167.966 167.607 167.966 167.607L101.576 170.277L101.566 170.287Z" fill="white"/>
</mask>
<g mask="url(#mask0_133_1032)">
<path d="M90.2057 155.987C119.536 156.877 174.646 154.207 174.646 154.207L248.426 229.767L285.756 318.657C285.756 318.657 279.536 442.217 279.536 444.877C279.536 447.537 267.096 609.317 267.096 609.317L253.766 667.987L139.986 683.097L22.6557 652.877C22.6557 652.877 -6.67425 582.657 -6.67425 579.987C-6.67425 577.317 -50.2343 418.207 -50.2343 411.987C-50.2343 405.767 -45.7943 259.987 -45.7943 259.987L66.2057 177.317L90.2057 155.987Z" fill="white"/>
<path d="M63.4557 268.797C68.9658 268.797 147.496 241.927 150.946 305.997C154.396 370.067 174.366 587.757 130.966 607.047C87.5657 626.337 31.7657 643.557 31.7657 643.557C31.7657 643.557 204.676 666.287 186.766 666.287C168.856 666.287 288.726 617.377 288.726 610.487C288.726 603.597 281.836 391.417 282.526 366.617C283.216 341.817 289.416 234.347 289.416 234.347L159.906 200.587L76.5457 231.587L63.4557 268.787V268.797Z" fill="#D9D9D9"/>
<path d="M19.0257 443.777C19.0257 443.777 21.0957 299.107 64.4957 277.408C107.896 255.708 114.096 221.607 149.226 227.807C184.356 234.007 224.656 254.677 221.556 324.938C218.456 395.207 216.386 612.207 171.956 624.607C127.526 637.008 44.8557 641.138 25.2257 639.078C5.59571 637.008 25.2257 704.177 25.2257 704.177C25.2257 704.177 268.056 751.707 270.126 720.707C272.196 689.707 317.656 195.767 317.656 195.767L246.356 84.1675L22.1257 127.567L-21.2743 476.837L19.0257 443.767V443.777Z" fill="#C6C6C5"/>
<path d="M79.3058 195.767C92.3958 204.727 153.016 206.787 186.776 195.767C220.536 184.747 264.616 284.637 264.616 284.637C264.616 284.637 261.176 463.747 260.486 465.817C259.796 467.887 252.216 489.237 252.216 489.237C252.216 489.237 255.656 353.527 241.196 305.307C226.726 257.087 205.376 224.017 172.306 218.507C139.236 212.997 121.326 219.887 104.796 217.127C88.2658 214.367 66.2158 205.417 64.8358 201.287C63.4558 197.157 79.3058 195.777 79.3058 195.777V195.767Z" fill="#868686"/>
<path d="M38.6557 237.797C38.6557 237.797 15.2357 359.727 13.1657 436.197C11.0957 512.667 -26.7943 292.907 -26.7943 292.907L24.8757 226.777L38.6557 237.797Z" fill="#868686"/>
<path d="M167.186 176.917C167.186 176.917 128.046 180.797 111.516 179.247C94.9857 177.697 114.616 185.967 134.766 185.447C154.916 184.927 176.616 184.927 176.616 184.927L175.586 176.657L167.186 176.917Z" fill="#868686"/>
<path d="M179.196 367.308C183.382 367.308 186.776 341.398 186.776 309.438C186.776 277.477 183.382 251.568 179.196 251.568C175.009 251.568 171.616 277.477 171.616 309.438C171.616 341.398 175.009 367.308 179.196 367.308Z" fill="white"/>
<path d="M199.866 410.017C202.528 410.017 204.686 389.508 204.686 364.207C204.686 338.907 202.528 318.397 199.866 318.397C197.204 318.397 195.046 338.907 195.046 364.207C195.046 389.508 197.204 410.017 199.866 410.017Z" fill="white"/>
<path d="M204.686 317.017C206.967 317.017 208.816 310.696 208.816 302.897C208.816 295.099 206.967 288.777 204.686 288.777C202.405 288.777 200.556 295.099 200.556 302.897C200.556 310.696 202.405 317.017 204.686 317.017Z" fill="white"/>
<path d="M181.606 387.277C182.556 387.277 183.326 385.428 183.326 383.147C183.326 380.867 182.556 379.017 181.606 379.017C180.656 379.017 179.886 380.867 179.886 383.147C179.886 385.428 180.656 387.277 181.606 387.277Z" fill="white"/>
<path d="M187.806 425.178C189.137 425.178 190.216 422.554 190.216 419.318C190.216 416.081 189.137 413.458 187.806 413.458C186.475 413.458 185.396 416.081 185.396 419.318C185.396 422.554 186.475 425.178 187.806 425.178Z" fill="white"/>
<path d="M155.426 266.037C157.519 266.037 159.216 261.721 159.216 256.397C159.216 251.073 157.519 246.757 155.426 246.757C153.333 246.757 151.636 251.073 151.636 256.397C151.636 261.721 153.333 266.037 155.426 266.037Z" fill="white"/>
<path d="M56.5757 272.237C57.719 272.237 58.6457 267.765 58.6457 262.247C58.6457 256.73 57.719 252.257 56.5757 252.257C55.4325 252.257 54.5057 256.73 54.5057 262.247C54.5057 267.765 55.4325 272.237 56.5757 272.237Z" fill="white"/>
<path d="M186.086 584.307C187.986 584.307 189.526 557.628 189.526 524.717C189.526 491.807 187.986 465.128 186.086 465.128C184.186 465.128 182.646 491.807 182.646 524.717C182.646 557.628 184.186 584.307 186.086 584.307Z" fill="white"/>
<path d="M66.5558 258.457C67.8868 258.457 68.9658 255.22 68.9658 251.227C68.9658 247.234 67.8868 243.997 66.5558 243.997C65.2247 243.997 64.1458 247.234 64.1458 251.227C64.1458 255.22 65.2247 258.457 66.5558 258.457Z" fill="white"/>
<path d="M96.0157 199.908C125.196 202.658 154.896 202.317 183.836 197.527L186.956 197.048C189.936 196.458 193.266 195.778 196.256 195.258C180.176 200.388 163.286 202.977 146.426 203.637C129.566 204.267 112.556 203.358 96.0257 199.908H96.0157Z" fill="#1D1D1B"/>
<path d="M101.566 178.207C101.566 178.207 145.096 183.377 170.926 174.587" stroke="#1D1D1B" stroke-width="0.58" stroke-miterlimit="10"/>
</g>
<path d="M101.566 170.287C101.566 171.667 102.086 177.517 101.566 178.207C101.046 178.897 100.186 185.267 100.186 188.197C100.186 191.127 90.0257 194.567 88.9957 199.737C84.6857 199.737 28.9657 234.568 14.2557 290.158C7.02574 314.618 39.0557 635.468 47.8357 642.698C56.6157 649.928 85.5557 663.877 147.556 660.777C209.556 657.677 233.836 643.727 235.906 640.107C237.976 636.487 263.286 303.757 257.606 284.637C251.926 265.517 229.446 220.057 180.626 196.807C180.626 193.447 170.036 190.867 169.516 186.987C168.996 183.107 169.256 178.717 167.186 176.907C165.116 175.097 167.966 167.607 167.966 167.607L101.576 170.277L101.566 170.287Z" stroke="#1D1D1B" stroke-width="1.74" stroke-linejoin="round"/>
<path d="M169.116 60.4075C169.116 60.4075 160.976 16.2275 157.486 16.2275L155.746 15.6475C155.746 15.6475 156.906 5.18749 154.586 2.85749C152.266 0.527485 119.706 0.527485 118.546 2.85749C117.386 5.18749 117.386 14.4875 117.386 14.4875H115.056C112.726 14.4875 94.1258 119.117 90.6458 144.687C88.3158 145.847 84.5058 163.867 86.0558 165.287C87.6058 166.707 90.5758 174.717 134.106 175.107C177.636 175.497 186.806 169.427 185.646 162.577C184.486 155.727 182.936 142.687 181.256 142.687C179.576 142.687 175.706 104.967 175.706 104.967C178.546 107.297 222.856 141.397 223.236 141.777C224.786 142.807 237.836 127.827 236.156 126.407C234.476 124.467 170.666 61.6975 169.116 60.4075Z" fill="white"/>
<mask id="mask1_133_1032" style="mask-type:luminance" maskUnits="userSpaceOnUse" x="85" y="1" width="152" height="175">
<path d="M169.116 60.4075C169.116 60.4075 160.976 16.2275 157.486 16.2275L155.746 15.6475C155.746 15.6475 156.906 5.18749 154.586 2.85749C152.266 0.527485 119.706 0.527485 118.546 2.85749C117.386 5.18749 117.386 14.4875 117.386 14.4875H115.056C112.726 14.4875 94.1258 119.117 90.6458 144.687C88.3158 145.847 84.5058 163.867 86.0558 165.287C87.6058 166.707 90.5758 174.717 134.106 175.107C177.636 175.497 186.806 169.427 185.646 162.577C184.486 155.727 182.936 142.687 181.256 142.687C179.576 142.687 175.706 104.967 175.706 104.967C178.546 107.297 222.856 141.397 223.236 141.777C224.786 142.807 237.836 127.827 236.156 126.407C234.476 124.467 170.666 61.6975 169.116 60.4075Z" fill="white"/>
</mask>
<g mask="url(#mask1_133_1032)">
<path d="M175.966 53.6875C169.116 60.4075 152.196 63.5075 151.686 83.6575C151.166 103.807 121.206 115.688 122.236 134.807C123.266 153.927 191.466 136.877 191.466 136.877L198.186 172.007C198.186 172.007 75.2159 192.157 73.6659 190.607C72.1159 189.057 51.9659 179.237 58.6859 151.337C65.4059 123.438 73.6659 104.837 75.7359 90.3675C77.8059 75.8975 91.7559 -8.31252 91.7559 -8.31252C91.7559 -8.31252 111.906 -25.3625 113.456 -25.3625C115.006 -25.3625 155.826 -24.8425 155.826 -24.8425L175.976 53.6875H175.966Z" fill="#C6C6C5"/>
<path d="M157.626 54.2075C162.536 58.3375 169.226 78.2675 169.506 75.3875C169.766 72.8075 167.176 62.9875 172.866 68.9275C178.546 74.8675 239.516 137.128 240.296 137.128C241.076 137.128 247.786 123.178 247.526 121.368C247.266 119.558 211.096 53.9375 211.096 53.9375L157.616 54.1975L157.626 54.2075Z" fill="#C6C6C5"/>
<path d="M167.186 41.2875C159.956 28.8875 142.906 21.6575 135.156 24.7575C127.406 27.8575 120.176 23.7275 117.076 45.9375C113.976 68.1575 104.676 118.787 107.776 127.057C110.876 135.327 135.156 154.957 144.456 158.577C153.756 162.197 57.6558 161.677 57.1358 160.127C56.6158 158.577 64.8858 84.6975 64.8858 75.9075C64.8858 67.1175 73.1558 -8.82251 73.1558 -8.82251C73.1458 -8.83251 102.086 -37.7625 105.186 -37.7625C108.286 -37.7625 152.206 -29.4925 152.206 -29.4925L167.186 41.2875Z" fill="#868686"/>
<path d="M157.366 12.3575L180.616 163.217" stroke="#1D1D1B" stroke-width="0.29" stroke-linejoin="round"/>
<path d="M154.946 12.1975L174.996 162.967" stroke="#1D1D1B" stroke-width="0.29" stroke-linejoin="round"/>
<path d="M152.526 12.0275L169.376 162.707" stroke="#1D1D1B" stroke-width="0.29" stroke-linejoin="round"/>
<path d="M150.106 11.8675L163.756 162.447" stroke="#1D1D1B" stroke-width="0.29" stroke-linejoin="round"/>
<path d="M147.676 11.7075L158.146 162.187" stroke="#1D1D1B" stroke-width="0.29" stroke-linejoin="round"/>
<path d="M145.256 11.5475L152.526 161.927" stroke="#1D1D1B" stroke-width="0.29" stroke-linejoin="round"/>
<path d="M142.836 11.3875L146.906 161.667" stroke="#1D1D1B" stroke-width="0.29" stroke-linejoin="round"/>
<path d="M140.416 11.2275L141.286 161.417" stroke="#1D1D1B" stroke-width="0.29" stroke-linejoin="round"/>
<path d="M137.996 11.0675L135.666 161.158" stroke="#1D1D1B" stroke-width="0.29" stroke-linejoin="round"/>
<path d="M135.566 10.8975L130.046 160.897" stroke="#1D1D1B" stroke-width="0.29" stroke-linejoin="round"/>
<path d="M133.146 10.7375L124.426 160.637" stroke="#1D1D1B" stroke-width="0.29" stroke-linejoin="round"/>
<path d="M130.726 10.5775L118.806 160.377" stroke="#1D1D1B" stroke-width="0.29" stroke-linejoin="round"/>
<path d="M128.306 10.4175L113.196 160.117" stroke="#1D1D1B" stroke-width="0.29" stroke-linejoin="round"/>
<path d="M125.886 10.2575L107.576 159.867" stroke="#1D1D1B" stroke-width="0.29" stroke-linejoin="round"/>
<path d="M123.456 10.0975L101.956 159.607" stroke="#1D1D1B" stroke-width="0.29" stroke-linejoin="round"/>
<path d="M121.036 9.9375L96.3358 159.348" stroke="#1D1D1B" stroke-width="0.29" stroke-linejoin="round"/>
<path d="M118.616 9.76749L90.7158 159.087" stroke="#1D1D1B" stroke-width="0.29" stroke-linejoin="round"/>
<path d="M160.986 12.8675C157.366 13.8975 154.266 16.9975 134.636 16.4875C115.006 15.9675 106.476 9.2575 106.476 9.2575L109.316 -9.8625C109.316 -9.8625 141.096 -12.4425 142.126 -12.4425C143.156 -12.4425 151.686 -11.9225 152.716 -10.3725C153.746 -8.82251 160.986 12.8775 160.986 12.8775V12.8675Z" fill="white"/>
<mask id="mask2_133_1032" style="mask-type:luminance" maskUnits="userSpaceOnUse" x="106" y="-13" width="55" height="30">
<path d="M160.986 12.8675C157.366 13.8975 154.266 16.9975 134.636 16.4875C115.006 15.9675 106.476 9.2575 106.476 9.2575L109.316 -9.8625C109.316 -9.8625 141.096 -12.4425 142.126 -12.4425C143.156 -12.4425 151.686 -11.9225 152.716 -10.3725C153.746 -8.82251 160.986 12.8775 160.986 12.8775V12.8675Z" fill="white"/>
</mask>
<g mask="url(#mask2_133_1032)">
<path d="M142.896 1.2475C137.726 2.0275 130.756 5.1275 131.526 7.9675C132.306 10.8075 130.236 13.6475 133.596 16.2375C136.956 18.8175 135.146 20.3675 132.306 20.6275C129.466 20.8875 112.676 18.5575 112.676 18.5575C112.676 18.5575 110.866 -0.822504 112.416 -3.1425C113.966 -5.4725 129.466 -14.2525 129.466 -14.2525L143.936 -0.822504L142.906 1.2475" fill="#C6C6C5"/>
<path d="M128.046 13.3875C128.543 13.3875 128.946 11.4802 128.946 9.12749C128.946 6.77476 128.543 4.86749 128.046 4.86749C127.549 4.86749 127.146 6.77476 127.146 9.12749C127.146 11.4802 127.549 13.3875 128.046 13.3875Z" fill="white"/>
<path d="M124.556 14.9375C124.987 14.9375 125.336 13.7242 125.336 12.2275C125.336 10.7308 124.987 9.51749 124.556 9.51749C124.125 9.51749 123.776 10.7308 123.776 12.2275C123.776 13.7242 124.125 14.9375 124.556 14.9375Z" fill="white"/>
</g>
<path d="M185.616 141.007C179.416 141.697 167.706 146.867 132.576 146.177C97.4458 145.487 78.4958 139.637 78.4958 139.637L67.8158 182.697L133.606 185.797L193.536 180.287L185.616 141.017V141.007Z" fill="white"/>
</g>
<path d="M169.116 60.4075C169.116 60.4075 160.976 16.2275 157.486 16.2275L155.746 15.6475C155.746 15.6475 156.906 5.18749 154.586 2.85749C152.266 0.527485 119.706 0.527485 118.546 2.85749C117.386 5.18749 117.386 14.4875 117.386 14.4875H115.056C112.726 14.4875 94.1258 119.117 90.6458 144.687C88.3158 145.847 84.5058 163.867 86.0558 165.287C87.6058 166.707 90.5758 174.717 134.106 175.107C177.636 175.497 186.806 169.427 185.646 162.577C184.486 155.727 182.936 142.687 181.256 142.687C179.576 142.687 175.706 104.967 175.706 104.967C178.546 107.297 222.856 141.397 223.236 141.777C224.786 142.807 237.836 127.827 236.156 126.407C234.476 124.467 170.666 61.6975 169.116 60.4075Z" stroke="#1D1D1B" stroke-width="1.74" stroke-linejoin="round"/>
<path d="M145.996 81.9775C144.046 81.0375 141.606 74.4875 133.596 74.4875C125.586 74.4875 123.396 82.1075 121.326 82.7575C119.256 83.4075 103.116 92.0575 104.016 111.687C104.916 131.317 117.966 141.527 133.206 141.527C148.446 141.527 164.346 127.707 164.346 112.207C164.346 96.7075 159.166 88.3075 145.996 81.9775Z" fill="white" stroke="#1D1D1B" stroke-width="0.58" stroke-miterlimit="10"/>
<path d="M133.486 89.8575C135.91 89.8575 137.876 87.7174 137.876 85.0775C137.876 82.4376 135.91 80.2975 133.486 80.2975C131.061 80.2975 129.096 82.4376 129.096 85.0775C129.096 87.7174 131.061 89.8575 133.486 89.8575Z" fill="white" stroke="#1D1D1B" stroke-width="1.16" stroke-miterlimit="10"/>
<path d="M133.086 137.257C146.639 137.257 157.626 125.693 157.626 111.427C157.626 97.162 146.639 85.5975 133.086 85.5975C119.533 85.5975 108.546 97.162 108.546 111.427C108.546 125.693 119.533 137.257 133.086 137.257Z" fill="white" stroke="#1D1D1B" stroke-width="1.16" stroke-miterlimit="10"/>
<path d="M132.566 135.287C142.662 135.287 150.846 127.103 150.846 117.007C150.846 106.912 142.662 98.7275 132.566 98.7275C122.47 98.7275 114.286 106.912 114.286 117.007C114.286 127.103 122.47 135.287 132.566 135.287Z" stroke="#1D1D1B" stroke-width="0.58" stroke-miterlimit="10"/>
<path d="M167.956 144.107C142.166 147.637 115.896 147.307 90.0458 144.487L90.3458 142.177C116.006 145.757 142.156 146.857 167.956 144.107Z" fill="#1D1D1B"/>
<path d="M88.3658 361.508C87.1458 360.388 86.1958 359.028 85.2858 357.668C84.3858 356.318 83.6158 354.888 83.0258 353.358C82.4958 351.988 82.1258 350.578 81.8258 349.148C81.7458 348.768 81.7458 348.368 81.7258 347.978C81.7058 347.528 81.6558 347.068 81.6558 346.618C81.6558 345.388 81.6258 344.128 81.8758 342.938C82.1058 341.848 82.4058 340.748 82.8058 339.688C83.4458 337.998 84.2458 336.388 85.2458 334.878C86.3258 333.228 87.5758 331.718 88.9658 330.328C90.0858 329.208 91.2858 328.178 92.5158 327.188C93.7858 326.178 95.1258 325.278 96.4858 324.408C97.9358 323.478 99.4558 322.648 100.996 321.868C102.596 321.058 104.236 320.338 105.886 319.648C107.156 319.118 108.456 318.658 109.766 318.228C110.636 317.948 111.476 317.578 112.356 317.358C113.436 317.098 114.486 316.718 115.576 316.488C116.446 316.308 117.306 316.038 118.186 315.848C119.296 315.608 120.396 315.358 121.516 315.178C122.466 315.028 123.396 314.768 124.356 314.678C124.966 314.618 125.556 314.478 126.166 314.418C126.756 314.358 127.376 314.338 127.936 314.088C128.016 314.048 128.126 314.068 128.216 314.058C129.636 313.958 131.056 313.898 132.466 313.758C133.566 313.648 134.666 313.638 135.756 313.578C138.046 313.448 140.336 313.458 142.616 313.498C144.206 313.528 145.816 313.498 147.386 313.708C148.776 313.898 150.176 313.918 151.576 314.118C152.926 314.308 154.296 314.468 155.656 314.648C156.626 314.768 157.576 314.978 158.536 315.178C159.246 315.328 159.966 315.448 160.686 315.588C162.106 315.858 163.506 316.188 164.906 316.558C166.526 316.978 168.136 317.448 169.726 317.978C171.476 318.568 173.226 319.178 174.926 319.918C176.006 320.388 177.126 320.788 178.166 321.328C178.836 321.678 179.506 322.038 180.186 322.368C181.806 323.168 183.296 324.148 184.816 325.098C186.426 326.108 187.916 327.288 189.386 328.488C189.456 328.548 189.496 328.638 189.546 328.708C189.566 328.768 189.596 328.798 189.656 328.778C189.686 328.778 189.706 328.798 189.726 328.808C189.996 329.258 190.466 329.498 190.816 329.868C190.816 329.888 190.836 329.898 190.846 329.908C191.466 330.558 192.086 331.208 192.706 331.868C192.706 331.888 192.726 331.898 192.746 331.908C193.586 332.928 194.436 333.948 195.126 335.058C196.356 337.048 197.376 339.148 197.976 341.438C198.256 342.508 198.436 343.598 198.546 344.688C198.716 346.278 198.616 347.878 198.366 349.448C198.056 351.358 197.446 353.178 196.616 354.918C194.946 358.378 192.516 361.258 189.676 363.778C187.656 365.568 185.476 367.158 183.136 368.548C180.626 370.028 178.046 371.338 175.366 372.478C173.386 373.318 171.376 374.048 169.336 374.718C168.156 375.108 166.976 375.498 165.766 375.788C164.426 376.108 163.096 376.518 161.736 376.778C160.736 376.968 159.746 377.238 158.746 377.408C157.946 377.538 157.146 377.708 156.346 377.838C155.576 377.968 154.806 378.108 154.026 378.168C153.176 378.238 152.326 378.398 151.476 378.458C150.586 378.518 149.696 378.768 148.816 378.788C146.056 378.858 143.306 379.158 140.536 379.058C139.146 379.008 137.756 378.988 136.356 379.018C135.236 379.048 134.136 378.788 133.006 378.888C132.396 378.938 131.766 378.778 131.136 378.728C130.406 378.668 129.666 378.568 128.936 378.508C127.966 378.428 127.006 378.218 126.036 378.108C124.586 377.948 123.156 377.708 121.726 377.438C120.916 377.278 120.116 377.078 119.306 376.948C117.896 376.728 116.526 376.318 115.156 375.948C114.406 375.748 113.646 375.538 112.896 375.328C111.886 375.048 110.906 374.698 109.906 374.368C108.846 374.018 107.806 373.568 106.746 373.198C105.506 372.768 104.306 372.238 103.126 371.688C101.886 371.108 100.666 370.488 99.4558 369.838C97.6958 368.878 95.9758 367.858 94.3558 366.668C94.1258 366.498 93.8958 366.288 93.5658 366.288C93.4258 366.148 93.3058 365.968 93.0958 365.908C93.1258 365.738 93.0158 365.688 92.8858 365.648C92.8258 365.618 92.7658 365.578 92.7058 365.548C92.6658 365.398 92.5758 365.298 92.4058 365.288C92.3758 365.288 92.3558 365.268 92.3258 365.258C92.2958 365.138 92.2058 365.098 92.1158 365.038C92.1158 365.018 92.0958 364.998 92.0758 364.988C92.0258 364.888 91.9458 364.818 91.8258 364.828C91.0758 364.178 90.2658 363.588 89.6158 362.828C89.3758 362.518 89.0858 362.258 88.7858 362.008L88.7558 361.978C88.6458 361.808 88.5458 361.638 88.3458 361.558L88.3658 361.508ZM127.866 352.878C127.916 352.608 127.716 352.648 127.566 352.648C127.266 352.638 126.966 352.628 126.666 352.638C126.396 352.638 126.256 352.518 126.336 352.278C126.466 351.898 126.396 351.508 126.486 351.118C126.696 350.278 126.726 349.398 126.876 348.538C127.046 347.548 127.096 346.548 127.446 345.578C128.226 343.418 129.666 342.078 131.946 341.668C132.166 341.628 132.526 341.618 132.576 341.318C132.786 340.188 132.946 339.058 133.136 337.928C133.166 337.728 133.096 337.618 132.896 337.608C131.996 337.568 131.116 337.608 130.316 338.098C129.296 338.728 128.636 339.658 128.096 340.698C127.986 340.908 127.926 341.168 127.586 341.328C127.756 340.228 127.916 339.198 128.086 338.178C128.156 337.788 128.086 337.608 127.626 337.618C126.326 337.648 125.036 337.618 123.736 337.618C122.516 337.618 122.406 337.728 122.416 338.988C122.416 339.038 122.416 339.088 122.416 339.128C122.386 339.418 122.526 339.498 122.806 339.508C123.516 339.518 123.756 339.768 123.736 340.498C123.716 341.548 123.486 342.568 123.356 343.598C123.196 344.798 123.036 345.998 122.856 347.198C122.666 348.448 122.536 349.698 122.316 350.938C122.086 352.228 122.026 352.468 120.686 352.698C120.566 352.718 120.426 352.698 120.426 352.888C120.426 353.278 120.306 353.658 120.236 354.038C120.196 354.298 120.256 354.448 120.576 354.438C121.196 354.418 121.806 354.438 122.426 354.438C124.026 354.438 125.616 354.438 127.216 354.438C127.386 354.438 127.626 354.528 127.636 354.208C127.656 353.838 127.786 353.468 127.736 353.088C127.776 353.028 127.926 353.018 127.836 352.888L127.866 352.878ZM103.276 331.498C103.426 331.908 103.386 332.348 103.336 332.758C103.166 334.378 102.916 335.998 102.666 337.608C102.446 339.058 102.236 340.498 102.026 341.948C101.886 342.938 101.766 343.928 101.616 344.908C101.396 346.338 101.226 347.768 100.976 349.188C100.886 349.668 100.916 350.188 100.626 350.628C100.096 351.418 99.2958 351.718 98.3958 351.818C98.0658 351.858 97.9358 351.898 97.9258 352.268C97.9058 352.778 97.8058 353.288 97.7058 353.798C97.5858 354.398 97.5858 354.418 98.1858 354.418C101.536 354.418 104.896 354.418 108.246 354.418C109.206 354.418 110.146 354.358 111.086 354.108C112.796 353.658 114.316 352.878 115.586 351.658C117.116 350.198 117.796 348.308 118.076 346.248C118.186 345.448 118.366 344.658 118.426 343.858C118.486 343.048 118.696 342.258 118.746 341.448C118.796 340.658 118.956 339.878 119.066 339.098C119.206 338.158 119.436 337.228 119.486 336.288C119.566 334.968 119.236 333.708 118.746 332.468C118.146 330.958 117.336 329.628 116.066 328.608C115.316 328.008 114.466 327.588 113.526 327.438C112.646 327.298 111.736 327.298 110.836 327.238C110.836 327.118 110.916 327.068 111.026 327.008C111.916 326.508 112.896 326.198 113.816 325.768C115.586 324.938 117.406 324.218 119.246 323.538C122.406 322.368 125.636 321.418 128.906 320.608C131.516 319.968 134.146 319.438 136.766 318.848C137.546 318.668 138.346 318.528 139.096 318.198C139.236 318.138 139.416 318.058 139.376 317.858C139.336 317.668 139.156 317.648 138.996 317.658C137.956 317.688 136.926 317.578 135.876 317.598C133.626 317.658 131.396 317.918 129.186 318.248C127.096 318.558 125.006 318.848 122.946 319.388C121.426 319.788 119.876 320.088 118.346 320.478C116.406 320.978 114.536 321.708 112.616 322.278C111.076 322.728 109.606 323.408 108.126 324.048C106.506 324.748 104.926 325.548 103.396 326.418C103.036 326.628 102.536 326.708 102.396 327.208C102.056 327.268 101.586 327.018 101.446 327.588C101.366 327.628 101.266 327.658 101.196 327.718C100.256 328.388 99.3058 329.028 98.3758 329.708C96.5058 331.078 94.6858 332.518 93.1058 334.228C91.6958 335.748 90.4658 337.398 89.4158 339.198C88.0858 341.478 87.2158 343.908 86.8958 346.538C86.8058 347.228 86.7758 347.928 86.9758 348.608C87.1258 349.118 87.4258 349.198 87.8058 348.828C88.3458 348.298 88.6958 347.658 88.9958 346.968C89.1658 346.578 89.3258 346.188 89.5258 345.808C90.4958 343.978 91.6258 342.258 92.8958 340.618C94.4558 338.608 96.2558 336.848 98.1858 335.208C99.0858 334.438 99.9958 333.678 100.946 332.978C101.696 332.438 102.396 331.798 103.286 331.478L103.276 331.498ZM156.886 352.768C156.766 353.738 156.326 354.578 155.846 355.328C155.146 356.418 154.256 357.378 153.196 358.168C151.906 359.128 150.536 359.938 149.076 360.608C147.696 361.238 146.266 361.728 144.816 362.148C143.856 362.418 142.876 362.608 141.876 362.768C140.396 363.008 138.926 363.248 137.426 363.288C136.236 363.318 135.046 363.408 133.866 363.288C132.656 363.158 131.446 363.028 130.276 362.578C129.436 362.258 128.646 361.908 127.996 361.268C127.116 360.398 127.376 359.398 128.256 358.818C129.756 357.848 131.436 357.598 133.176 357.658C133.616 357.678 134.046 357.768 134.476 357.798C135.806 357.908 137.076 358.258 138.306 358.738C138.776 358.918 139.226 359.228 139.766 359.128C140.086 359.068 140.426 358.978 140.536 358.608C140.636 358.248 140.506 357.998 140.186 357.758C138.996 356.828 137.616 356.338 136.206 355.938C135.456 355.728 134.666 355.608 133.876 355.508C132.406 355.318 130.956 355.098 129.456 355.238C128.286 355.348 127.136 355.498 125.996 355.758C124.746 356.048 123.546 356.478 122.606 357.458C121.706 358.378 121.756 359.608 122.416 360.528C122.786 361.038 123.236 361.468 123.726 361.868C125.096 362.988 126.706 363.648 128.356 364.168C129.516 364.528 130.716 364.818 131.936 364.978C133.086 365.128 134.226 365.318 135.386 365.318C136.886 365.318 138.386 365.358 139.886 365.258C141.336 365.148 142.766 364.968 144.196 364.708C145.226 364.518 146.256 364.308 147.276 364.028C148.326 363.748 149.366 363.458 150.386 363.098C152.076 362.498 153.706 361.788 155.256 360.868C156.356 360.218 157.426 359.508 158.376 358.648C159.536 357.608 160.596 356.468 161.346 355.078C161.866 354.108 162.266 353.088 162.476 352.008C162.606 351.328 162.736 350.638 162.796 349.938C162.896 348.928 163.046 347.928 163.146 346.928C163.236 345.988 163.386 345.048 163.506 344.108C163.636 343.138 163.806 342.168 163.886 341.198C163.956 340.318 164.536 339.628 165.426 339.538C165.646 339.518 165.776 339.408 165.776 339.248C165.756 338.798 165.936 338.398 165.996 337.968C166.056 337.598 165.936 337.528 165.596 337.538C163.806 337.548 162.016 337.538 160.236 337.538C159.456 337.538 159.376 337.608 159.336 338.418C159.336 338.548 159.406 338.738 159.246 338.808C159.076 338.878 159.016 338.678 158.926 338.598C157.726 337.508 156.396 337.048 154.776 337.618C153.836 337.948 153.066 338.488 152.356 339.158C150.706 340.708 149.756 342.638 149.166 344.778C148.826 346.018 148.856 347.278 148.886 348.538C148.926 350.218 149.446 351.748 150.456 353.088C151.136 353.998 152.096 354.508 153.226 354.518C154.176 354.518 155.026 354.118 155.806 353.558C156.146 353.318 156.396 352.958 156.846 352.818L156.886 352.768ZM144.206 354.418C145.106 354.418 146.006 354.408 146.916 354.418C147.286 354.418 147.466 354.348 147.536 353.928C147.596 353.588 147.536 353.238 147.686 352.908C147.766 352.728 147.646 352.628 147.436 352.628C147.086 352.628 146.736 352.628 146.396 352.608C146.296 352.608 146.096 352.658 146.136 352.398C146.316 351.248 146.466 350.088 146.626 348.938C146.736 348.148 146.836 347.368 146.936 346.578C147.056 345.688 147.166 344.788 147.296 343.898C147.426 342.948 147.586 341.988 147.696 341.038C147.776 340.278 148.376 339.558 149.136 339.508C149.486 339.488 149.576 339.298 149.576 339.058C149.586 338.718 149.676 338.418 149.766 338.098C149.906 337.588 149.806 337.498 149.276 337.498C147.616 337.498 145.956 337.498 144.296 337.498C143.609 337.498 143.222 337.838 143.136 338.518C143.136 338.518 143.136 338.618 143.116 338.658C143.036 338.778 143.016 338.888 142.826 338.698C141.566 337.428 140.096 336.948 138.366 337.608C137.246 338.038 136.376 338.828 135.576 339.688C134.526 340.818 133.806 342.148 133.286 343.568C132.656 345.278 132.546 347.058 132.696 348.868C132.816 350.298 133.216 351.648 134.066 352.818C135.016 354.118 136.286 354.728 137.926 354.298C138.816 354.058 139.576 353.588 140.246 352.958C140.536 352.688 140.736 352.718 140.746 353.068C140.756 353.408 140.936 353.708 140.936 354.028C140.936 354.408 141.126 354.428 141.406 354.418C142.336 354.418 143.276 354.418 144.206 354.418ZM165.886 347.478C165.926 347.978 165.866 348.648 166.026 349.298C166.446 351.068 167.286 352.628 168.796 353.668C170.646 354.938 172.706 355.038 174.776 354.218C176.196 353.658 177.416 352.778 178.406 351.568C179.226 350.568 179.916 349.498 180.326 348.288C180.886 346.638 181.156 344.928 180.846 343.168C180.566 341.628 179.996 340.228 178.876 339.118C177.226 337.488 175.186 337.078 172.976 337.528C171.476 337.838 170.186 338.608 169.116 339.688C167.036 341.788 165.836 344.298 165.896 347.468L165.886 347.478ZM186.616 336.538C186.696 334.958 185.386 333.738 183.826 333.708C182.136 333.678 180.946 335.058 180.916 336.538C180.886 338.038 182.346 339.438 183.776 339.408C185.266 339.378 186.646 338.218 186.616 336.548V336.538Z" fill="#808080"/>
<path d="M93.5958 366.248C93.9158 366.248 94.1458 366.458 94.3858 366.628C96.0058 367.818 97.7158 368.838 99.4858 369.798C100.696 370.448 101.916 371.068 103.156 371.648C104.336 372.198 105.536 372.728 106.776 373.158C107.836 373.518 108.866 373.968 109.936 374.328C110.926 374.658 111.916 374.998 112.926 375.288C113.676 375.498 114.436 375.708 115.186 375.908C116.556 376.278 117.926 376.678 119.336 376.908C120.146 377.038 120.946 377.248 121.756 377.398C123.186 377.668 124.616 377.918 126.066 378.068C127.036 378.168 127.996 378.388 128.966 378.468C129.706 378.528 130.436 378.628 131.166 378.688C131.796 378.738 132.426 378.898 133.036 378.848C134.166 378.748 135.266 379.008 136.386 378.978C137.776 378.948 139.166 378.968 140.566 379.018C143.336 379.118 146.086 378.808 148.846 378.748C149.726 378.728 150.616 378.478 151.506 378.418C152.366 378.358 153.206 378.198 154.056 378.128C154.836 378.068 155.606 377.928 156.376 377.798C157.176 377.668 157.976 377.498 158.776 377.368C159.776 377.208 160.766 376.928 161.766 376.738C163.126 376.478 164.446 376.078 165.796 375.748C167.006 375.458 168.186 375.068 169.366 374.678C171.406 374.008 173.426 373.278 175.396 372.438C178.076 371.298 180.656 369.988 183.166 368.508C185.506 367.128 187.686 365.538 189.706 363.738C192.546 361.218 194.976 358.328 196.646 354.878C197.486 353.138 198.096 351.318 198.396 349.408C198.646 347.828 198.746 346.238 198.576 344.648C198.466 343.558 198.286 342.478 198.006 341.398C197.406 339.108 196.386 337.008 195.156 335.018C194.466 333.898 193.616 332.878 192.776 331.868C192.886 331.738 193.016 331.628 193.146 331.838C193.516 332.438 194.086 332.878 194.536 333.398C194.976 333.898 195.056 334.548 195.516 335.008C195.866 335.358 196.106 335.808 196.326 336.288C196.486 336.638 196.756 337.008 196.986 337.368C197.386 338.008 197.696 338.678 198.026 339.358C198.336 339.998 198.626 340.638 198.946 341.278C199.066 341.518 199.056 341.768 199.116 342.008C199.486 343.458 199.856 344.918 199.846 346.418C199.826 347.708 199.786 348.998 199.686 350.288C199.606 351.288 199.246 352.238 198.966 353.158C198.736 353.908 198.526 354.738 198.036 355.448C197.696 355.938 197.546 356.588 197.246 357.138C196.786 357.968 196.216 358.738 195.676 359.518C194.726 360.898 193.646 362.168 192.466 363.338C191.676 364.118 190.896 364.908 190.016 365.608C188.896 366.498 187.746 367.348 186.646 368.268C185.996 368.818 185.266 369.298 184.456 369.638C183.736 369.938 183.146 370.458 182.456 370.788C180.796 371.598 179.166 372.448 177.486 373.198C176.376 373.688 175.156 373.948 174.136 374.638C174.046 374.698 173.926 374.708 173.816 374.738C172.866 374.958 171.966 375.278 171.116 375.738C170.996 375.808 170.846 375.868 170.716 375.878C169.896 375.908 169.216 376.438 168.426 376.548C167.586 376.668 166.796 376.978 165.986 377.198C164.686 377.548 163.336 377.708 162.056 378.178C161.476 378.388 160.806 378.228 160.236 378.448C159.266 378.838 158.236 378.828 157.246 378.998C155.476 379.318 153.676 379.468 151.886 379.668C151.036 379.768 150.176 379.798 149.336 379.938C148.156 380.138 146.976 380.178 145.796 380.178C142.666 380.178 139.536 380.178 136.396 380.178C134.786 380.178 133.166 380.048 131.586 379.828C130.056 379.618 128.496 379.628 126.996 379.288C125.686 378.998 124.336 379.008 123.056 378.688C122.116 378.458 121.136 378.448 120.246 378.118C119.416 377.808 118.516 377.838 117.726 377.528C116.916 377.208 116.006 377.238 115.266 376.728C115.096 376.608 114.866 376.658 114.666 376.648C113.906 376.618 113.196 376.508 112.506 376.108C112.046 375.838 111.476 375.728 110.966 375.558C109.716 375.138 108.486 374.668 107.246 374.228C106.736 374.048 106.266 373.798 105.806 373.528C104.616 372.828 103.296 372.388 102.066 371.778C101.766 371.628 101.576 371.358 101.286 371.188C100.536 370.738 99.7458 370.378 98.9558 370.018C98.4858 369.808 98.0358 369.498 97.6358 369.128C97.2758 368.808 96.7658 368.718 96.3958 368.378C96.0258 368.048 95.5858 367.808 95.1858 367.498C94.7558 367.168 94.2358 366.958 93.8358 366.568C93.7158 366.458 93.5858 366.378 93.5958 366.198V366.248Z" fill="#333333"/>
<path d="M192.716 331.838C192.096 331.188 191.476 330.538 190.856 329.878C191.006 329.808 191.116 329.797 191.276 329.917C191.736 330.267 192.076 330.748 192.506 331.128C192.696 331.298 192.746 331.567 192.716 331.827V331.838Z" fill="#949494"/>
<path d="M190.816 329.838C190.466 329.468 189.996 329.228 189.726 328.778C190.166 328.858 190.756 329.428 190.816 329.838Z" fill="#949494"/>
<path d="M88.8058 361.948C89.1058 362.198 89.3958 362.458 89.6358 362.768C89.2158 362.768 88.8958 362.448 88.8058 361.948Z" fill="#949494"/>
<path d="M88.3658 361.508C88.5658 361.588 88.6658 361.758 88.7758 361.928C88.4858 361.938 88.3858 361.768 88.3658 361.508Z" fill="#949494"/>
<path d="M92.4258 365.238C92.5958 365.238 92.6858 365.338 92.7258 365.498C92.5458 365.498 92.4358 365.428 92.4258 365.238Z" fill="#949494"/>
<path d="M91.8458 364.778C91.9658 364.778 92.0458 364.848 92.0958 364.938C91.9358 364.998 91.8658 364.918 91.8458 364.778Z" fill="#949494"/>
<path d="M92.1358 364.988C92.2258 365.048 92.3258 365.098 92.3458 365.208C92.2158 365.198 92.0958 365.168 92.1358 364.988Z" fill="#949494"/>
<path d="M92.9158 365.598C93.0458 365.638 93.1558 365.698 93.1258 365.858C92.9758 365.828 92.8958 365.748 92.9158 365.598Z" fill="#949494"/>
<path d="M189.656 328.757C189.596 328.767 189.566 328.738 189.546 328.688C189.586 328.707 189.616 328.737 189.656 328.757Z" fill="#949494"/>
<path d="M101.446 327.607C101.586 327.037 102.056 327.287 102.396 327.227C102.956 327.287 103.476 327.207 103.996 326.927C104.946 326.407 105.916 325.877 106.916 325.457C108.556 324.767 110.156 323.967 111.836 323.367C113.836 322.647 115.826 321.857 117.886 321.327C120.206 320.727 122.516 320.067 124.906 319.767C125.976 319.627 127.036 319.477 128.096 319.327C128.316 319.297 128.626 319.297 128.676 319.517C128.746 319.777 128.426 319.787 128.246 319.837C126.636 320.347 125.026 320.837 123.426 321.347C121.916 321.827 120.426 322.327 118.936 322.857C116.566 323.707 114.246 324.657 111.976 325.727C111.146 326.117 110.316 326.497 109.496 326.887C109.376 326.947 109.196 326.977 109.206 327.157C109.206 327.257 109.326 327.307 109.416 327.307C109.896 327.307 110.386 327.407 110.866 327.247C111.766 327.307 112.666 327.317 113.556 327.447C114.496 327.597 115.346 328.017 116.096 328.617C117.376 329.637 118.186 330.967 118.776 332.477C119.266 333.717 119.596 334.977 119.516 336.297C119.456 337.237 119.236 338.167 119.096 339.107C118.976 339.887 118.826 340.667 118.776 341.457C118.726 342.267 118.516 343.057 118.456 343.867C118.396 344.667 118.216 345.467 118.106 346.257C117.836 348.317 117.146 350.197 115.616 351.667C114.346 352.877 112.826 353.667 111.116 354.117C110.176 354.357 109.236 354.427 108.276 354.427C104.926 354.427 101.566 354.427 98.2157 354.427C97.6157 354.427 97.6158 354.407 97.7358 353.807C97.8358 353.307 97.9358 352.797 97.9558 352.277C97.9658 351.907 98.0958 351.857 98.4258 351.827C99.3158 351.727 100.116 351.427 100.656 350.637C100.946 350.197 100.916 349.687 101.006 349.197C101.256 347.777 101.426 346.337 101.646 344.917C101.796 343.937 101.916 342.937 102.056 341.957C102.266 340.507 102.486 339.067 102.696 337.617C102.936 336.007 103.196 334.387 103.366 332.767C103.406 332.357 103.456 331.917 103.306 331.507C103.326 331.207 103.306 330.937 102.996 330.767C102.836 330.417 102.456 330.377 102.166 330.217C102.066 330.157 101.846 330.087 101.776 330.317C101.706 330.547 101.886 330.627 102.056 330.657C102.236 330.697 102.436 330.637 102.546 330.857C102.196 331.027 101.966 331.347 101.656 331.557C100.256 332.477 99.0358 333.627 97.7658 334.717C97.1658 335.227 96.5558 335.737 96.0058 336.297C94.8358 337.467 93.5957 338.567 92.5557 339.867C91.3957 341.317 90.1558 342.717 89.4058 344.457C89.2158 344.897 89.0058 345.347 88.5858 345.647C88.2658 345.867 88.0658 345.807 88.0158 345.407C87.9858 345.137 88.0158 344.877 88.0658 344.607C88.4458 342.657 89.2758 340.887 90.2658 339.197C91.2758 337.467 92.4857 335.897 93.9657 334.537C94.7057 333.857 95.3158 333.037 96.0658 332.357C96.5458 331.927 97.0958 331.627 97.5858 331.237C98.6558 330.397 99.7358 329.577 100.896 328.857C101.376 328.557 101.546 328.157 101.476 327.627L101.446 327.607ZM108.186 350.817C108.486 350.817 108.786 350.817 109.086 350.817C109.926 350.817 110.526 350.387 110.946 349.717C111.506 348.837 111.736 347.837 111.906 346.817C112.076 345.777 112.206 344.727 112.366 343.677C112.526 342.587 112.706 341.497 112.846 340.397C113.006 339.137 113.176 337.877 113.386 336.617C113.566 335.507 113.716 334.417 113.346 333.287C112.756 331.497 111.626 330.857 109.936 330.947C109.716 330.957 109.676 331.067 109.616 331.267C109.396 332.067 109.396 332.897 109.256 333.707C109.076 334.747 108.906 335.787 108.786 336.837C108.686 337.667 108.486 338.497 108.406 339.327C108.306 340.397 108.136 341.457 107.976 342.517C107.796 343.697 107.646 344.877 107.466 346.057C107.316 347.037 107.106 348.017 107.016 349.007C106.966 349.507 106.806 349.977 106.776 350.477C106.766 350.727 106.856 350.817 107.096 350.817C107.456 350.807 107.826 350.817 108.186 350.817Z" fill="white"/>
<path d="M156.886 352.767C156.436 352.907 156.176 353.267 155.846 353.507C155.066 354.057 154.206 354.467 153.266 354.467C152.136 354.467 151.176 353.947 150.496 353.037C149.486 351.697 148.966 350.167 148.926 348.487C148.896 347.227 148.866 345.967 149.206 344.727C149.796 342.577 150.746 340.647 152.396 339.107C153.106 338.437 153.886 337.897 154.816 337.567C156.426 336.997 157.756 337.457 158.966 338.547C159.056 338.627 159.116 338.837 159.286 338.757C159.446 338.687 159.366 338.507 159.376 338.367C159.416 337.567 159.496 337.487 160.276 337.487C162.066 337.487 163.856 337.487 165.636 337.487C165.976 337.487 166.086 337.547 166.036 337.917C165.976 338.347 165.796 338.757 165.816 339.197C165.816 339.367 165.686 339.467 165.466 339.487C164.576 339.577 164.006 340.277 163.926 341.147C163.846 342.117 163.676 343.087 163.546 344.057C163.416 344.997 163.276 345.938 163.186 346.877C163.086 347.887 162.926 348.887 162.836 349.887C162.766 350.587 162.646 351.267 162.516 351.957C162.306 353.037 161.916 354.057 161.386 355.027C160.636 356.417 159.576 357.557 158.416 358.597C157.466 359.457 156.396 360.167 155.296 360.817C153.756 361.737 152.116 362.447 150.426 363.047C149.406 363.407 148.366 363.697 147.316 363.977C146.296 364.247 145.276 364.467 144.236 364.657C142.816 364.917 141.376 365.107 139.926 365.207C138.426 365.317 136.926 365.277 135.426 365.267C134.276 365.267 133.126 365.077 131.976 364.927C130.756 364.767 129.556 364.477 128.396 364.117C126.746 363.597 125.136 362.937 123.766 361.817C123.276 361.417 122.826 360.997 122.456 360.477C121.806 359.567 121.756 358.337 122.646 357.407C123.586 356.438 124.786 355.997 126.036 355.707C127.166 355.447 128.326 355.297 129.496 355.187C130.996 355.047 132.446 355.267 133.916 355.457C134.706 355.557 135.496 355.677 136.246 355.887C137.656 356.287 139.036 356.777 140.226 357.707C140.546 357.957 140.676 358.197 140.576 358.557C140.466 358.927 140.126 359.017 139.806 359.077C139.266 359.187 138.816 358.877 138.346 358.687C137.106 358.207 135.846 357.857 134.516 357.747C134.076 357.707 133.646 357.617 133.216 357.607C131.476 357.547 129.796 357.787 128.296 358.767C127.406 359.337 127.156 360.347 128.036 361.217C128.686 361.857 129.476 362.207 130.316 362.527C131.486 362.977 132.696 363.107 133.906 363.237C135.076 363.367 136.276 363.277 137.466 363.237C138.966 363.197 140.436 362.957 141.916 362.717C142.906 362.557 143.896 362.367 144.856 362.097C146.306 361.677 147.736 361.187 149.116 360.557C150.576 359.887 151.946 359.087 153.236 358.117C154.296 357.327 155.186 356.367 155.886 355.277C156.366 354.517 156.806 353.687 156.926 352.717L156.886 352.767ZM158.986 342.037C158.986 341.117 158.726 340.727 158.086 340.427C157.116 339.967 155.916 340.657 155.576 341.647C155.426 342.097 155.436 342.567 155.356 343.027C155.126 344.247 155.016 345.487 154.826 346.717C154.666 347.717 154.596 348.727 154.426 349.727C154.256 350.707 154.726 351.587 155.656 351.827C156.226 351.977 157.606 351.297 157.776 350.467C157.886 349.947 157.936 349.427 158.006 348.897C158.126 348.067 158.216 347.227 158.336 346.397C158.446 345.607 158.556 344.827 158.676 344.047C158.786 343.327 158.906 342.607 158.996 342.047L158.986 342.037Z" fill="white"/>
<path d="M144.206 354.417C143.276 354.417 142.336 354.417 141.406 354.417C141.126 354.417 140.926 354.397 140.936 354.027C140.936 353.707 140.766 353.407 140.746 353.067C140.736 352.717 140.526 352.697 140.246 352.957C139.576 353.577 138.826 354.057 137.926 354.297C136.286 354.737 135.016 354.117 134.066 352.817C133.216 351.657 132.816 350.307 132.696 348.867C132.546 347.057 132.656 345.277 133.286 343.567C133.806 342.137 134.526 340.807 135.576 339.687C136.386 338.817 137.246 338.037 138.366 337.607C140.096 336.937 141.566 337.427 142.826 338.697C143.016 338.887 143.036 338.778 143.116 338.658C143.136 338.618 143.126 338.567 143.136 338.517C143.216 337.837 143.602 337.497 144.296 337.497C145.956 337.497 147.616 337.497 149.276 337.497C149.806 337.497 149.906 337.587 149.766 338.097C149.676 338.417 149.596 338.727 149.576 339.057C149.576 339.297 149.486 339.487 149.136 339.507C148.366 339.557 147.776 340.277 147.696 341.037C147.596 341.997 147.436 342.947 147.296 343.897C147.176 344.787 147.056 345.677 146.936 346.577C146.836 347.367 146.726 348.147 146.626 348.937C146.466 350.087 146.316 351.247 146.136 352.397C146.096 352.667 146.296 352.597 146.396 352.607C146.746 352.637 147.096 352.638 147.436 352.628C147.646 352.628 147.766 352.727 147.686 352.908C147.546 353.238 147.596 353.587 147.536 353.927C147.466 354.347 147.276 354.427 146.916 354.417C146.016 354.397 145.116 354.417 144.206 354.417ZM138.076 350.067C137.926 351.167 139.176 352.287 140.306 351.647C140.916 351.307 141.476 350.967 141.536 350.137C141.606 349.277 141.776 348.417 141.896 347.557C142.056 346.357 142.216 345.147 142.376 343.947C142.476 343.237 142.646 342.547 142.606 341.797C142.566 341.107 142.406 340.617 141.766 340.387C140.816 340.057 139.746 340.577 139.326 341.507C139.156 341.897 139.286 342.308 139.156 342.658C138.956 343.198 138.946 343.757 138.866 344.307C138.726 345.217 138.626 346.127 138.506 347.037C138.366 348.057 138.216 349.067 138.076 350.077V350.067Z" fill="white"/>
<path d="M165.886 347.478C165.836 344.308 167.026 341.798 169.106 339.698C170.166 338.628 171.466 337.848 172.966 337.538C175.186 337.078 177.216 337.498 178.866 339.128C179.986 340.228 180.556 341.628 180.836 343.178C181.156 344.938 180.886 346.648 180.316 348.298C179.906 349.498 179.216 350.578 178.396 351.578C177.406 352.778 176.186 353.658 174.766 354.228C172.696 355.048 170.636 354.938 168.786 353.678C167.276 352.648 166.436 351.088 166.016 349.308C165.856 348.658 165.916 347.998 165.876 347.488L165.886 347.478ZM174.386 340.048C173.316 340.068 172.736 340.498 172.386 341.218C171.986 342.048 172.086 342.978 171.916 343.848C171.756 344.668 171.746 345.518 171.596 346.348C171.356 347.658 171.266 348.998 171.056 350.308C171.016 350.578 171.006 350.878 171.176 351.128C171.536 351.688 171.986 352.088 172.706 352.008C173.576 351.908 174.306 351.338 174.476 350.638C174.816 349.168 174.906 347.658 175.136 346.168C175.316 344.998 175.516 343.828 175.586 342.648C175.616 342.188 175.916 341.788 175.736 341.248C175.486 340.508 174.896 340.018 174.406 340.048H174.386Z" fill="white"/>
<path d="M127.766 353.068C127.816 353.448 127.686 353.808 127.666 354.188C127.656 354.508 127.406 354.418 127.246 354.418C125.646 354.418 124.056 354.418 122.456 354.418C121.836 354.418 121.226 354.398 120.606 354.418C120.286 354.428 120.226 354.278 120.266 354.018C120.336 353.638 120.456 353.258 120.456 352.868C120.456 352.678 120.596 352.698 120.716 352.678C122.066 352.448 122.126 352.208 122.346 350.918C122.566 349.678 122.696 348.428 122.886 347.178C123.066 345.978 123.226 344.778 123.386 343.578C123.526 342.548 123.746 341.518 123.766 340.478C123.786 339.758 123.546 339.508 122.836 339.488C122.556 339.488 122.416 339.398 122.446 339.108C122.446 339.058 122.446 339.018 122.446 338.968C122.446 337.708 122.546 337.598 123.766 337.598C125.066 337.598 126.356 337.628 127.656 337.598C128.126 337.598 128.186 337.768 128.116 338.158C127.936 339.178 127.786 340.208 127.616 341.308C127.956 341.148 128.016 340.888 128.126 340.678C128.666 339.638 129.326 338.708 130.346 338.078C131.146 337.588 132.026 337.548 132.926 337.588C133.126 337.588 133.196 337.718 133.166 337.908C132.976 339.038 132.816 340.178 132.606 341.298C132.546 341.598 132.196 341.608 131.976 341.648C129.696 342.068 128.246 343.398 127.476 345.558C127.126 346.528 127.076 347.528 126.906 348.518C126.756 349.378 126.736 350.248 126.516 351.098C126.416 351.478 126.496 351.878 126.366 352.258C126.286 352.508 126.426 352.628 126.696 352.618C126.996 352.608 127.296 352.618 127.596 352.628C127.746 352.628 127.946 352.588 127.896 352.858C127.786 352.888 127.776 352.968 127.796 353.058L127.766 353.068Z" fill="white"/>
<path d="M110.856 327.248C110.376 327.408 109.886 327.308 109.406 327.308C109.316 327.308 109.196 327.258 109.196 327.158C109.196 326.978 109.366 326.948 109.486 326.888C110.316 326.498 111.146 326.118 111.966 325.728C114.246 324.658 116.566 323.708 118.926 322.858C120.416 322.328 121.916 321.828 123.416 321.348C125.026 320.838 126.636 320.348 128.236 319.838C128.416 319.778 128.736 319.768 128.666 319.518C128.606 319.298 128.306 319.298 128.086 319.328C127.026 319.468 125.956 319.628 124.896 319.768C122.506 320.078 120.196 320.728 117.876 321.328C115.816 321.858 113.836 322.658 111.826 323.368C110.146 323.968 108.546 324.768 106.906 325.458C105.906 325.878 104.946 326.408 103.986 326.928C103.476 327.208 102.956 327.288 102.386 327.228C102.526 326.728 103.026 326.638 103.386 326.438C104.926 325.568 106.496 324.758 108.116 324.068C109.596 323.438 111.066 322.748 112.606 322.298C114.526 321.738 116.396 320.998 118.336 320.498C119.866 320.108 121.416 319.808 122.936 319.408C124.986 318.868 127.086 318.578 129.176 318.268C131.386 317.938 133.616 317.678 135.866 317.618C136.906 317.588 137.946 317.698 138.986 317.678C139.146 317.678 139.326 317.698 139.366 317.878C139.406 318.078 139.226 318.158 139.086 318.218C138.346 318.538 137.546 318.688 136.756 318.868C134.136 319.458 131.506 319.988 128.896 320.628C125.626 321.428 122.406 322.388 119.236 323.558C117.396 324.238 115.576 324.948 113.806 325.788C112.886 326.218 111.906 326.528 111.016 327.028C110.906 327.088 110.836 327.138 110.826 327.258L110.856 327.248Z" fill="#CCCCCC"/>
<path d="M101.446 327.608C101.516 328.148 101.346 328.538 100.866 328.838C99.7157 329.558 98.6357 330.378 97.5557 331.218C97.0557 331.608 96.5157 331.908 96.0357 332.338C95.2757 333.018 94.6757 333.828 93.9357 334.518C92.4657 335.878 91.2457 337.448 90.2357 339.178C89.2457 340.878 88.4057 342.638 88.0357 344.588C87.9857 344.858 87.9557 345.118 87.9857 345.388C88.0257 345.788 88.2257 345.858 88.5557 345.628C88.9857 345.328 89.1857 344.878 89.3757 344.438C90.1257 342.698 91.3557 341.298 92.5257 339.848C93.5657 338.558 94.8057 337.458 95.9757 336.278C96.5357 335.718 97.1357 335.218 97.7357 334.698C99.0057 333.608 100.226 332.458 101.626 331.538C101.936 331.328 102.166 331.008 102.516 330.838C102.666 330.808 102.836 330.848 102.966 330.748C103.266 330.908 103.286 331.188 103.276 331.488C102.376 331.808 101.686 332.438 100.936 332.988C99.9857 333.688 99.0757 334.448 98.1757 335.218C96.2557 336.858 94.4457 338.618 92.8857 340.628C91.6157 342.268 90.4757 343.988 89.5157 345.818C89.3157 346.198 89.1457 346.588 88.9857 346.978C88.6957 347.668 88.3357 348.308 87.7957 348.838C87.4157 349.208 87.1157 349.128 86.9657 348.618C86.7657 347.938 86.8057 347.238 86.8857 346.548C87.2057 343.928 88.0857 341.498 89.4057 339.208C90.4457 337.408 91.6857 335.758 93.0957 334.238C94.6757 332.528 96.4957 331.098 98.3657 329.718C99.2957 329.038 100.246 328.398 101.186 327.728C101.266 327.678 101.356 327.638 101.436 327.598L101.446 327.608Z" fill="#CCCCCC"/>
<path d="M186.616 336.537C186.646 338.207 185.266 339.368 183.776 339.398C182.346 339.428 180.886 338.038 180.916 336.528C180.946 335.048 182.136 333.668 183.826 333.698C185.376 333.728 186.686 334.948 186.616 336.528V336.537ZM181.486 336.478C181.376 337.858 182.616 338.978 183.826 338.888C185.176 338.788 186.146 337.988 186.116 336.458C186.086 334.988 185.116 334.268 183.756 334.188C182.656 334.118 181.296 335.308 181.486 336.478Z" fill="white"/>
<path d="M127.766 353.068C127.756 352.978 127.766 352.898 127.866 352.868C127.956 352.998 127.806 352.998 127.766 353.068Z" fill="#949494"/>
<path d="M108.186 350.818C107.826 350.818 107.456 350.818 107.096 350.818C106.846 350.818 106.756 350.728 106.776 350.478C106.806 349.978 106.966 349.508 107.016 349.008C107.106 348.018 107.316 347.038 107.466 346.058C107.646 344.878 107.806 343.698 107.976 342.518C108.136 341.458 108.306 340.398 108.406 339.328C108.486 338.498 108.686 337.678 108.786 336.838C108.916 335.788 109.076 334.748 109.256 333.708C109.396 332.898 109.396 332.068 109.616 331.268C109.676 331.068 109.716 330.958 109.936 330.948C111.626 330.858 112.756 331.508 113.346 333.288C113.716 334.418 113.576 335.508 113.386 336.618C113.176 337.878 113.006 339.138 112.846 340.398C112.706 341.488 112.526 342.578 112.366 343.678C112.216 344.718 112.076 345.768 111.906 346.818C111.746 347.838 111.506 348.838 110.946 349.718C110.526 350.388 109.926 350.818 109.086 350.818C108.786 350.818 108.486 350.818 108.186 350.818Z" fill="#808080"/>
<path d="M102.976 330.757C102.846 330.867 102.676 330.827 102.526 330.847C102.426 330.627 102.216 330.688 102.036 330.648C101.866 330.618 101.686 330.528 101.756 330.308C101.826 330.088 102.046 330.158 102.146 330.208C102.436 330.368 102.816 330.407 102.976 330.757Z" fill="#808080"/>
<path d="M158.986 342.038C158.896 342.588 158.776 343.308 158.666 344.038C158.546 344.818 158.436 345.608 158.326 346.388C158.216 347.218 158.116 348.058 157.996 348.888C157.926 349.408 157.876 349.938 157.766 350.458C157.586 351.288 156.216 351.968 155.646 351.818C154.726 351.578 154.246 350.698 154.416 349.718C154.586 348.728 154.666 347.708 154.816 346.708C155.006 345.478 155.116 344.238 155.346 343.018C155.436 342.558 155.416 342.088 155.566 341.638C155.906 340.648 157.106 339.968 158.076 340.418C158.716 340.718 158.976 341.108 158.976 342.028L158.986 342.038Z" fill="#808080"/>
<path d="M138.076 350.068C138.216 349.058 138.366 348.038 138.506 347.028C138.626 346.118 138.736 345.208 138.866 344.298C138.946 343.748 138.956 343.188 139.156 342.648C139.286 342.298 139.156 341.888 139.326 341.498C139.746 340.568 140.816 340.048 141.766 340.378C142.406 340.598 142.566 341.098 142.606 341.788C142.646 342.538 142.476 343.228 142.376 343.938C142.216 345.138 142.056 346.348 141.896 347.548C141.776 348.408 141.596 349.268 141.536 350.128C141.476 350.958 140.906 351.298 140.306 351.638C139.176 352.278 137.936 351.158 138.076 350.058V350.068Z" fill="#808080"/>
<path d="M174.386 340.048C174.876 340.018 175.476 340.508 175.716 341.248C175.896 341.788 175.596 342.188 175.566 342.648C175.486 343.828 175.296 344.998 175.116 346.168C174.886 347.658 174.796 349.168 174.456 350.638C174.296 351.338 173.566 351.907 172.686 352.007C171.966 352.097 171.516 351.688 171.156 351.128C170.996 350.868 170.996 350.578 171.036 350.308C171.246 348.988 171.346 347.657 171.576 346.347C171.726 345.527 171.736 344.667 171.896 343.847C172.066 342.967 171.966 342.038 172.366 341.218C172.716 340.488 173.296 340.058 174.366 340.048H174.386Z" fill="#808080"/>
<path d="M181.486 336.477C181.296 335.307 182.656 334.118 183.756 334.188C185.116 334.268 186.086 334.998 186.116 336.458C186.146 337.988 185.176 338.787 183.826 338.887C182.616 338.977 181.376 337.857 181.486 336.477ZM184.256 336.667C184.326 336.617 184.366 336.568 184.426 336.548C184.986 336.408 184.956 335.977 184.896 335.567C184.836 335.207 184.546 335.068 184.206 335.058C183.826 335.048 183.446 335.057 183.066 335.037C182.746 335.017 182.616 335.128 182.626 335.468C182.656 336.098 182.626 336.728 182.636 337.368C182.636 337.598 182.506 338.007 182.786 338.007C183.146 338.007 182.976 337.587 182.986 337.347C183.006 336.737 183.356 336.508 183.886 336.808C184.086 336.928 184.176 337.157 184.336 337.317C184.566 337.547 184.586 338.078 185.146 337.938C184.916 337.448 184.596 337.058 184.256 336.658V336.667Z" fill="#808080"/>
<path d="M184.256 336.668C184.596 337.068 184.926 337.458 185.146 337.948C184.586 338.088 184.566 337.568 184.336 337.328C184.176 337.168 184.086 336.928 183.886 336.818C183.356 336.518 183.006 336.748 182.986 337.358C182.986 337.598 183.146 338.018 182.786 338.018C182.506 338.018 182.646 337.598 182.636 337.378C182.616 336.748 182.646 336.108 182.626 335.478C182.616 335.138 182.736 335.028 183.066 335.048C183.446 335.068 183.826 335.048 184.206 335.068C184.546 335.078 184.846 335.218 184.896 335.578C184.956 335.988 184.986 336.418 184.426 336.558C184.366 336.568 184.326 336.628 184.256 336.678V336.668ZM183.626 335.318C183.526 335.318 183.446 335.318 183.376 335.318C183.026 335.288 182.996 335.508 183.006 335.768C183.006 336.048 182.916 336.428 183.346 336.418C183.596 336.418 183.876 336.418 184.126 336.338C184.356 336.258 184.636 336.208 184.616 335.878C184.596 335.568 184.426 335.438 184.106 335.388C183.936 335.358 183.776 335.348 183.626 335.328V335.318Z" fill="white"/>
<path d="M183.626 335.318C183.776 335.338 183.946 335.358 184.106 335.378C184.426 335.428 184.596 335.548 184.616 335.868C184.636 336.198 184.346 336.258 184.126 336.328C183.876 336.408 183.606 336.408 183.346 336.408C182.916 336.418 183.016 336.038 183.006 335.758C183.006 335.498 183.026 335.278 183.376 335.308C183.456 335.308 183.536 335.308 183.626 335.308V335.318Z" fill="#808080"/>
<path d="M257.696 142.668C257.696 147.058 261.256 150.608 265.636 150.608C270.016 150.608 273.576 147.048 273.576 142.668C273.576 138.288 270.016 134.728 265.636 134.728C261.256 134.728 257.696 138.288 257.696 142.668ZM266.216 137.478C267.946 136.488 270.406 137.658 270.866 139.558C271.006 140.008 271.136 140.428 271.316 140.828C272.076 141.978 272.446 143.388 271.816 144.728H271.706C271.056 143.448 271.086 142.268 270.976 140.948C270.156 138.938 268.196 138.228 266.226 137.578L266.216 137.468V137.478Z" fill="white"/>
<path d="M241.406 167.317C241.406 176.097 248.516 183.207 257.296 183.207C266.076 183.207 273.186 176.097 273.186 167.317C273.186 158.537 266.076 151.427 257.296 151.427C248.516 151.427 241.406 158.537 241.406 167.317ZM258.446 156.947C260.946 155.597 264.606 156.227 266.386 158.607C267.716 160.007 267.876 162.007 268.646 163.657C269.006 164.467 269.586 165.237 269.916 166.097C270.486 167.847 270.396 169.757 269.656 171.467H269.436C268.686 169.817 268.266 168.227 268.096 166.487C268.066 165.647 268.196 164.737 267.966 163.907C267.306 161.667 264.946 160.017 263.006 158.937C261.726 158.197 260.256 157.767 258.466 157.177L258.446 156.957V156.947Z" fill="white"/>
<path d="M246.126 187.288C246.126 190.128 248.426 192.428 251.266 192.428C254.106 192.428 256.406 190.128 256.406 187.288C256.406 184.448 254.106 182.148 251.266 182.148C248.426 182.148 246.126 184.448 246.126 187.288ZM251.636 183.928C253.446 183.128 254.526 184.478 254.936 186.098C255.426 186.848 255.666 187.758 255.266 188.618H255.196C254.776 187.788 254.796 187.028 254.726 186.168C254.196 184.868 252.926 184.408 251.656 183.988V183.918L251.636 183.928Z" fill="white"/>
<path d="M267.906 190.838C267.906 193.678 270.206 195.978 273.046 195.978C275.886 195.978 278.186 193.678 278.186 190.838C278.186 187.998 275.886 185.698 273.046 185.698C270.206 185.698 267.906 187.998 267.906 190.838ZM273.416 187.478C275.226 186.678 276.306 188.028 276.716 189.648C277.206 190.398 277.446 191.307 277.046 192.167H276.976C276.556 191.337 276.576 190.577 276.506 189.717C275.976 188.417 274.706 187.958 273.436 187.538V187.467L273.416 187.478Z" fill="white"/>
<path d="M280.566 200.838C280.566 203.678 282.866 205.978 285.706 205.978C288.546 205.978 290.846 203.678 290.846 200.838C290.846 197.998 288.546 195.698 285.706 195.698C282.866 195.698 280.566 197.998 280.566 200.838ZM286.086 197.478C287.896 196.678 288.976 198.028 289.386 199.648C289.876 200.398 290.116 201.307 289.716 202.167H289.646C289.226 201.337 289.246 200.577 289.176 199.717C288.646 198.417 287.376 197.958 286.106 197.538V197.467L286.086 197.478Z" fill="white"/>
<path d="M315.236 200.168C315.236 203.008 317.536 205.308 320.376 205.308C323.216 205.308 325.516 203.008 325.516 200.168C325.516 197.328 323.216 195.028 320.376 195.028C317.536 195.028 315.236 197.328 315.236 200.168ZM320.746 196.818C322.556 196.018 323.636 197.368 324.046 198.988C324.536 199.738 324.776 200.648 324.376 201.508H324.306C323.886 200.678 323.906 199.918 323.836 199.058C323.306 197.758 322.036 197.298 320.766 196.878V196.808L320.746 196.818Z" fill="white"/>
<path d="M315.906 179.288C315.906 182.128 318.206 184.428 321.046 184.428C323.886 184.428 326.186 182.128 326.186 179.288C326.186 176.448 323.886 174.148 321.046 174.148C318.206 174.148 315.906 176.448 315.906 179.288ZM321.416 175.928C323.226 175.128 324.306 176.478 324.716 178.098C325.206 178.848 325.446 179.758 325.046 180.618H324.976C324.556 179.788 324.576 179.028 324.506 178.168C323.976 176.868 322.706 176.408 321.436 175.988V175.918L321.416 175.928Z" fill="white"/>
<path d="M235.486 152.728C235.486 155.568 237.786 157.868 240.626 157.868C243.466 157.868 245.766 155.568 245.766 152.728C245.766 149.888 243.466 147.588 240.626 147.588C237.786 147.588 235.486 149.888 235.486 152.728ZM241.006 149.378C242.816 148.578 243.896 149.928 244.306 151.548C244.796 152.298 245.036 153.208 244.636 154.068H244.566C244.146 153.238 244.166 152.478 244.096 151.618C243.566 150.318 242.296 149.858 241.026 149.438V149.368L241.006 149.378Z" fill="white"/>
<path d="M243.116 142.318C243.116 147.558 247.356 151.798 252.596 151.798C257.836 151.798 262.076 147.558 262.076 142.318C262.076 137.078 257.836 132.838 252.596 132.838C247.356 132.838 243.116 137.078 243.116 142.318ZM245.826 144.498C244.916 143.128 244.476 141.418 245.226 139.848H245.356C245.616 140.358 245.746 140.858 245.886 141.348C246.246 142.338 246.066 143.358 246.226 144.358C246.656 145.728 248.006 146.658 249.186 147.328C249.946 147.768 250.826 148.028 251.896 148.378L251.906 148.508C249.836 149.688 246.906 148.298 246.356 146.028C246.186 145.498 246.036 144.988 245.816 144.508L245.826 144.498Z" fill="white"/>
<path d="M279.836 174.928C279.836 183.708 286.946 190.818 295.726 190.818C304.506 190.818 311.616 183.708 311.616 174.928C311.616 166.148 304.506 159.038 295.726 159.038C286.946 159.038 279.836 166.148 279.836 174.928ZM283.106 176.158C282.536 174.408 282.626 172.498 283.366 170.788H283.586C284.336 172.438 284.756 174.028 284.926 175.768C284.956 176.608 284.826 177.518 285.056 178.348C285.716 180.588 288.076 182.238 290.016 183.318C291.296 184.058 292.766 184.488 294.556 185.078L294.576 185.298C292.076 186.648 288.416 186.018 286.636 183.638C285.306 182.238 285.146 180.238 284.376 178.588C284.016 177.778 283.436 177.008 283.106 176.148V176.158Z" fill="white"/>
<path d="M290.636 154.137C290.636 158.527 294.196 162.077 298.576 162.077C302.956 162.077 306.516 158.517 306.516 154.137C306.516 149.757 302.956 146.198 298.576 146.198C294.196 146.198 290.636 149.757 290.636 154.137ZM292.906 155.967C292.146 154.817 291.776 153.408 292.406 152.068H292.516C293.166 153.348 293.136 154.528 293.246 155.848C294.066 157.858 296.026 158.567 297.996 159.217L298.006 159.327C296.276 160.317 293.816 159.147 293.356 157.247C293.216 156.797 293.086 156.378 292.906 155.978V155.967Z" fill="white"/>
<path d="M271.646 157.817C271.646 160.657 273.946 162.957 276.786 162.957C279.626 162.957 281.926 160.657 281.926 157.817C281.926 154.977 279.626 152.677 276.786 152.677C273.946 152.677 271.646 154.977 271.646 157.817ZM273.116 159.007C272.626 158.257 272.386 157.347 272.786 156.487H272.856C273.276 157.317 273.256 158.077 273.326 158.937C273.856 160.237 275.126 160.697 276.396 161.117V161.187C274.586 161.987 273.506 160.637 273.096 159.017L273.116 159.007Z" fill="white"/>
</svg>
