<svg width="287" height="582" viewBox="0 0 287 582" fill="none" xmlns="http://www.w3.org/2000/svg">
<path d="M99.6802 31.5396C98.9963 31.5396 65.2483 36.9871 60.0401 38.6917C54.8319 40.3963 -2.24784 88.1768 1.14538 88.8533C4.54737 89.5387 12.1317 89.5387 14.2799 88.6249C16.428 87.7111 59.1282 44.5874 66.4933 44.2535C73.8585 43.9108 94.9192 46.5204 96.7342 46.6346C98.5492 46.7488 99.6802 31.5396 99.6802 31.5396Z" fill="white" stroke="#1D1D1B" stroke-width="1.74" stroke-miterlimit="10"/>
<mask id="mask0_133_1146" style="mask-type:luminance" maskUnits="userSpaceOnUse" x="12" y="147" width="216" height="434">
<path d="M90.0531 149.646C90.0531 150.859 90.509 155.999 90.0531 156.605C89.5971 157.211 88.8431 162.808 88.8431 165.383C88.8431 167.957 79.9348 170.98 79.0317 175.522C75.2527 175.522 26.3973 206.125 13.4996 254.969C7.16031 276.461 35.2442 558.373 42.9425 564.725C50.6409 571.078 76.0155 583.335 130.377 580.611C184.739 577.887 206.027 565.63 207.842 562.45C209.657 559.269 231.849 266.919 226.869 250.119C221.889 233.319 202.178 193.376 159.373 172.948C159.373 169.996 150.088 167.729 149.632 164.32C149.176 160.91 149.404 157.053 147.589 155.463C145.774 153.873 148.273 147.292 148.273 147.292L90.0618 149.637L90.0531 149.646Z" fill="white"/>
</mask>
<g mask="url(#mask0_133_1146)">
<path d="M80.0925 137.082C105.809 137.864 154.13 135.518 154.13 135.518L218.82 201.908L251.551 280.01C251.551 280.01 246.097 388.575 246.097 390.912C246.097 393.249 235.19 535.396 235.19 535.396L223.502 586.946L123.74 600.222L20.8646 573.67C20.8646 573.67 -4.85197 511.972 -4.85197 509.626C-4.85197 507.28 -43.0454 367.479 -43.0454 362.014C-43.0454 356.549 -39.1524 228.46 -39.1524 228.46L59.0493 155.823L80.0925 137.082Z" fill="white"/>
<path d="M56.6381 236.201C61.4693 236.201 130.324 212.592 133.349 268.887C136.374 325.181 153.884 516.453 115.831 533.402C77.7778 550.351 28.8523 565.481 28.8523 565.481C28.8523 565.481 180.46 585.452 164.756 585.452C149.053 585.452 254.155 542.478 254.155 536.424C254.155 530.37 248.114 343.94 248.719 322.15C249.324 300.36 254.76 205.932 254.76 205.932L141.206 176.269L68.1154 203.507L56.6381 236.192V236.201Z" fill="#D9D9D9"/>
<path d="M17.6818 389.946C17.6818 389.946 19.4967 262.833 57.5499 243.766C95.603 224.7 101.039 194.738 131.841 200.186C162.643 205.633 197.978 223.795 195.26 285.528C192.542 347.27 190.727 537.935 151.771 548.831C112.815 559.726 40.3295 563.354 23.1179 561.544C5.90632 559.726 23.1179 618.744 23.1179 618.744C23.1179 618.744 236.031 660.506 237.846 633.268C239.661 606.03 279.521 172.034 279.521 172.034L217.005 73.9775L20.3998 112.111L-17.6533 418.994L17.6818 389.937V389.946Z" fill="#C6C6C5"/>
<path d="M70.5354 172.034C82.0127 179.907 135.164 181.717 164.765 172.034C194.366 162.351 233.015 250.119 233.015 250.119C233.015 250.119 229.999 407.492 229.394 409.311C228.789 411.13 222.143 429.889 222.143 429.889C222.143 429.889 225.159 310.649 212.481 268.281C199.793 225.912 181.074 196.856 152.078 192.014C123.082 187.173 107.379 193.227 92.8851 190.802C78.3915 188.377 59.0581 180.513 57.8481 176.884C56.6381 173.255 70.5354 172.043 70.5354 172.043V172.034Z" fill="#868686"/>
<path d="M34.8934 208.963C34.8934 208.963 14.3588 316.096 12.5438 383.286C10.7288 450.476 -22.4932 257.385 -22.4932 257.385L22.8111 199.281L34.8934 208.963Z" fill="#868686"/>
<path d="M147.589 155.472C147.589 155.472 113.271 158.881 98.7771 157.519C84.2836 156.157 101.495 163.423 119.163 162.966C136.83 162.51 155.857 162.51 155.857 162.51L154.954 155.243L147.589 155.472Z" fill="#868686"/>
<path d="M158.119 322.756C161.79 322.756 164.765 299.991 164.765 271.909C164.765 243.827 161.79 221.062 158.119 221.062C154.448 221.062 151.473 243.827 151.473 271.909C151.473 299.991 154.448 322.756 158.119 322.756Z" fill="white"/>
<path d="M176.243 360.283C178.577 360.283 180.469 342.262 180.469 320.032C180.469 297.803 178.577 279.782 176.243 279.782C173.908 279.782 172.016 297.803 172.016 320.032C172.016 342.262 173.908 360.283 176.243 360.283Z" fill="white"/>
<path d="M180.469 278.569C182.469 278.569 184.09 273.015 184.09 266.163C184.09 259.311 182.469 253.756 180.469 253.756C178.469 253.756 176.847 259.311 176.847 266.163C176.847 273.015 178.469 278.569 180.469 278.569Z" fill="white"/>
<path d="M160.232 340.303C161.065 340.303 161.74 338.678 161.74 336.674C161.74 334.67 161.065 333.045 160.232 333.045C159.399 333.045 158.724 334.67 158.724 336.674C158.724 338.678 159.399 340.303 160.232 340.303Z" fill="white"/>
<path d="M165.668 373.603C166.835 373.603 167.781 371.298 167.781 368.454C167.781 365.611 166.835 363.306 165.668 363.306C164.501 363.306 163.555 365.611 163.555 368.454C163.555 371.298 164.501 373.603 165.668 373.603Z" fill="white"/>
<path d="M137.277 233.776C139.113 233.776 140.6 229.984 140.6 225.306C140.6 220.628 139.113 216.836 137.277 216.836C135.442 216.836 133.954 220.628 133.954 225.306C133.954 229.984 135.442 233.776 137.277 233.776Z" fill="white"/>
<path d="M50.6057 239.224C51.6081 239.224 52.4207 235.294 52.4207 230.446C52.4207 225.598 51.6081 221.668 50.6057 221.668C49.6034 221.668 48.7908 225.598 48.7908 230.446C48.7908 235.294 49.6034 239.224 50.6057 239.224Z" fill="white"/>
<path d="M164.16 513.422C165.826 513.422 167.176 489.98 167.176 461.063C167.176 432.147 165.826 408.705 164.16 408.705C162.494 408.705 161.144 432.147 161.144 461.063C161.144 489.98 162.494 513.422 164.16 513.422Z" fill="white"/>
<path d="M59.3563 227.116C60.5233 227.116 61.4693 224.272 61.4693 220.763C61.4693 217.255 60.5233 214.411 59.3563 214.411C58.1892 214.411 57.2432 217.255 57.2432 220.763C57.2432 224.272 58.1892 227.116 59.3563 227.116Z" fill="white"/>
<path d="M85.1868 175.672C110.772 178.088 136.813 177.789 162.187 173.58L164.923 173.159C167.536 172.64 170.456 172.043 173.077 171.586C158.978 176.093 144.169 178.369 129.386 178.949C114.603 179.502 99.689 178.703 85.1955 175.672H85.1868Z" fill="#1D1D1B"/>
<path d="M90.053 156.605C90.053 156.605 128.22 161.148 150.868 153.424" stroke="#1D1D1B" stroke-width="0.58" stroke-miterlimit="10"/>
</g>
<path d="M90.0531 149.646C90.0531 150.859 90.509 155.999 90.0531 156.605C89.5971 157.211 88.8431 162.808 88.8431 165.383C88.8431 167.957 79.9348 170.98 79.0317 175.522C75.2527 175.522 26.3973 206.125 13.4996 254.969C7.16031 276.461 35.2442 558.373 42.9425 564.725C50.6409 571.078 76.0155 583.335 130.377 580.611C184.739 577.887 206.027 565.63 207.842 562.45C209.657 559.269 231.849 266.919 226.869 250.119C221.889 233.319 202.178 193.376 159.373 172.948C159.373 169.996 150.088 167.729 149.632 164.32C149.176 160.91 149.404 157.053 147.589 155.463C145.774 153.873 148.273 147.292 148.273 147.292L90.0618 149.637L90.0531 149.646Z" stroke="#1D1D1B" stroke-width="1.74" stroke-linejoin="round"/>
<path d="M149.281 53.1012C149.281 53.1012 142.144 14.2829 139.084 14.2829L137.558 13.7733C137.558 13.7733 138.575 4.58266 136.541 2.53543C134.507 0.488191 105.958 0.488191 104.941 2.53543C103.924 4.58266 103.924 12.754 103.924 12.754H101.881C99.838 12.754 83.5295 104.686 80.4782 127.153C78.4353 128.172 75.0946 144.005 76.4537 145.253C77.8127 146.501 80.4168 153.539 118.584 153.881C156.751 154.224 164.791 148.891 163.774 142.872C162.757 136.853 161.398 125.396 159.925 125.396C158.452 125.396 155.059 92.2535 155.059 92.2535C157.549 94.3007 196.4 124.262 196.733 124.596C198.092 125.501 209.535 112.339 208.061 111.092C206.588 109.387 150.64 54.2347 149.281 53.1012Z" fill="white"/>
<mask id="mask1_133_1146" style="mask-type:luminance" maskUnits="userSpaceOnUse" x="76" y="1" width="133" height="153">
<path d="M149.281 53.1012C149.281 53.1012 142.144 14.2829 139.084 14.2829L137.558 13.7733C137.558 13.7733 138.575 4.58266 136.541 2.53543C134.507 0.488191 105.958 0.488191 104.941 2.53543C103.924 4.58266 103.924 12.754 103.924 12.754H101.881C99.838 12.754 83.5295 104.686 80.4782 127.153C78.4353 128.172 75.0946 144.005 76.4537 145.253C77.8127 146.501 80.4168 153.539 118.584 153.881C156.751 154.224 164.791 148.891 163.774 142.872C162.757 136.853 161.398 125.396 159.925 125.396C158.452 125.396 155.059 92.2535 155.059 92.2535C157.549 94.3007 196.4 124.262 196.733 124.596C198.092 125.501 209.535 112.339 208.061 111.092C206.588 109.387 150.64 54.2347 149.281 53.1012Z" fill="white"/>
</mask>
<g mask="url(#mask1_133_1146)">
<path d="M155.287 47.1968C149.281 53.1013 134.445 55.8251 133.998 73.5297C133.542 91.2343 107.273 101.673 108.176 118.472C109.079 135.272 168.877 120.291 168.877 120.291L174.769 151.158C174.769 151.158 66.9491 168.862 65.5901 167.5C64.231 166.139 46.5635 157.51 52.4556 132.996C58.3477 108.482 65.5901 92.1393 67.4051 79.4254C69.22 66.7115 81.4514 -7.27893 81.4514 -7.27893C81.4514 -7.27893 99.119 -22.2598 100.478 -22.2598C101.837 -22.2598 137.628 -21.8029 137.628 -21.8029L155.296 47.1968H155.287Z" fill="#C6C6C5"/>
<path d="M139.206 47.6537C143.511 51.2825 149.377 68.7939 149.623 66.2634C149.851 63.9965 147.58 55.3682 152.569 60.5873C157.549 65.8065 211.007 120.511 211.691 120.511C212.375 120.511 218.259 108.254 218.031 106.663C217.803 105.073 186.089 47.4165 186.089 47.4165L139.198 47.645L139.206 47.6537Z" fill="#C6C6C5"/>
<path d="M147.588 36.3018C141.249 25.4067 126.3 19.0541 119.505 21.7779C112.709 24.5017 106.37 20.8729 103.652 40.3875C100.934 59.9109 92.7797 104.397 95.4977 111.663C98.2158 118.929 119.505 136.177 127.659 139.358C135.813 142.538 51.5525 142.081 51.0966 140.72C50.6406 139.358 57.8918 74.4436 57.8918 66.7204C57.8918 58.9971 65.1429 -7.7269 65.1429 -7.7269C65.1341 -7.73569 90.5088 -33.1548 93.2268 -33.1548C95.9449 -33.1548 134.454 -25.8884 134.454 -25.8884L147.588 36.3018Z" fill="#868686"/>
<path d="M138.978 10.8828L159.364 143.435" stroke="#1D1D1B" stroke-width="0.29" stroke-linejoin="round"/>
<path d="M136.856 10.7422L154.436 143.215" stroke="#1D1D1B" stroke-width="0.29" stroke-linejoin="round"/>
<path d="M134.735 10.5928L149.509 142.986" stroke="#1D1D1B" stroke-width="0.29" stroke-linejoin="round"/>
<path d="M132.613 10.4521L144.581 142.758" stroke="#1D1D1B" stroke-width="0.29" stroke-linejoin="round"/>
<path d="M130.482 10.3115L139.662 142.529" stroke="#1D1D1B" stroke-width="0.29" stroke-linejoin="round"/>
<path d="M128.36 10.1709L134.735 142.301" stroke="#1D1D1B" stroke-width="0.29" stroke-linejoin="round"/>
<path d="M126.239 10.0303L129.807 142.073" stroke="#1D1D1B" stroke-width="0.29" stroke-linejoin="round"/>
<path d="M124.116 9.88965L124.879 141.853" stroke="#1D1D1B" stroke-width="0.29" stroke-linejoin="round"/>
<path d="M121.995 9.74902L119.952 141.624" stroke="#1D1D1B" stroke-width="0.29" stroke-linejoin="round"/>
<path d="M119.864 9.59961L115.024 141.396" stroke="#1D1D1B" stroke-width="0.29" stroke-linejoin="round"/>
<path d="M117.742 9.45898L110.096 141.167" stroke="#1D1D1B" stroke-width="0.29" stroke-linejoin="round"/>
<path d="M115.62 9.31885L105.169 140.939" stroke="#1D1D1B" stroke-width="0.29" stroke-linejoin="round"/>
<path d="M113.498 9.17822L100.25 140.711" stroke="#1D1D1B" stroke-width="0.29" stroke-linejoin="round"/>
<path d="M111.377 9.0376L95.3225 140.491" stroke="#1D1D1B" stroke-width="0.29" stroke-linejoin="round"/>
<path d="M109.246 8.89697L90.3948 140.263" stroke="#1D1D1B" stroke-width="0.29" stroke-linejoin="round"/>
<path d="M107.124 8.75635L85.4673 140.034" stroke="#1D1D1B" stroke-width="0.29" stroke-linejoin="round"/>
<path d="M105.002 8.60693L80.5396 139.806" stroke="#1D1D1B" stroke-width="0.29" stroke-linejoin="round"/>
<path d="M142.152 11.3307C138.978 12.2357 136.26 14.9595 119.049 14.5114C101.837 14.0545 94.3579 8.15881 94.3579 8.15881L96.848 -8.64082C96.848 -8.64082 124.713 -10.9077 125.616 -10.9077C126.519 -10.9077 133.998 -10.4508 134.901 -9.08893C135.804 -7.72703 142.152 11.3395 142.152 11.3395V11.3307Z" fill="white"/>
<mask id="mask2_133_1146" style="mask-type:luminance" maskUnits="userSpaceOnUse" x="94" y="-11" width="49" height="26">
<path d="M142.152 11.3307C138.978 12.2357 136.26 14.9595 119.049 14.5114C101.837 14.0545 94.3579 8.15881 94.3579 8.15881L96.848 -8.64082C96.848 -8.64082 124.713 -10.9077 125.616 -10.9077C126.519 -10.9077 133.998 -10.4508 134.901 -9.08893C135.804 -7.72703 142.152 11.3395 142.152 11.3395V11.3307Z" fill="white"/>
</mask>
<g mask="url(#mask2_133_1146)">
<path d="M126.291 1.12089C121.758 1.80623 115.647 4.53002 116.322 7.02537C117.006 9.52071 115.191 12.016 118.137 14.2917C121.083 16.5586 119.496 17.9205 117.006 18.149C114.516 18.3774 99.7942 16.3302 99.7942 16.3302C99.7942 16.3302 98.2072 -0.697894 99.5662 -2.73634C100.925 -4.78358 114.516 -12.498 114.516 -12.498L127.203 -0.697894L126.3 1.12089" fill="#C6C6C5"/>
<path d="M113.271 11.7878C113.706 11.7878 114.06 10.112 114.06 8.04477C114.06 5.97756 113.706 4.30176 113.271 4.30176C112.835 4.30176 112.481 5.97756 112.481 8.04477C112.481 10.112 112.835 11.7878 113.271 11.7878Z" fill="white"/>
<path d="M110.211 13.1494C110.588 13.1494 110.894 12.0834 110.894 10.7683C110.894 9.45327 110.588 8.38721 110.211 8.38721C109.833 8.38721 109.527 9.45327 109.527 10.7683C109.527 12.0834 109.833 13.1494 110.211 13.1494Z" fill="white"/>
</g>
<path d="M163.748 123.92C158.312 124.526 148.044 129.069 117.242 128.463C86.4403 127.856 69.8249 122.716 69.8249 122.716L60.4607 160.551L118.145 163.274L170.692 158.433L163.748 123.929V123.92Z" fill="white"/>
</g>
<path d="M149.281 53.1012C149.281 53.1012 142.144 14.2829 139.084 14.2829L137.558 13.7733C137.558 13.7733 138.575 4.58266 136.541 2.53543C134.507 0.488191 105.958 0.488191 104.941 2.53543C103.924 4.58266 103.924 12.754 103.924 12.754H101.881C99.838 12.754 83.5295 104.686 80.4782 127.153C78.4353 128.172 75.0946 144.005 76.4537 145.253C77.8127 146.501 80.4168 153.539 118.584 153.881C156.751 154.224 164.791 148.891 163.774 142.872C162.757 136.853 161.398 125.396 159.925 125.396C158.452 125.396 155.059 92.2535 155.059 92.2535C157.549 94.3007 196.4 124.262 196.733 124.596C198.092 125.501 209.535 112.339 208.061 111.092C206.588 109.387 150.64 54.2347 149.281 53.1012Z" stroke="#1D1D1B" stroke-width="1.74" stroke-linejoin="round"/>
<path d="M129.009 72.0537C127.3 71.2278 125.16 65.4727 118.137 65.4727C111.114 65.4727 109.194 72.1679 107.379 72.739C105.564 73.3101 91.4121 80.9104 92.2012 98.1581C92.9903 115.406 104.433 124.377 117.795 124.377C131.157 124.377 145.099 112.234 145.099 98.615C145.099 84.9961 140.557 77.6155 129.009 72.0537Z" fill="white" stroke="#1D1D1B" stroke-width="0.58" stroke-miterlimit="10"/>
<path d="M118.041 78.9774C120.166 78.9774 121.89 77.0971 121.89 74.7775C121.89 72.458 120.166 70.5776 118.041 70.5776C115.915 70.5776 114.191 72.458 114.191 74.7775C114.191 77.0971 115.915 78.9774 118.041 78.9774Z" fill="white" stroke="#1D1D1B" stroke-width="1.16" stroke-miterlimit="10"/>
<path d="M117.69 120.625C129.573 120.625 139.206 110.464 139.206 97.9297C139.206 85.3954 129.573 75.2344 117.69 75.2344C105.806 75.2344 96.1731 85.3954 96.1731 97.9297C96.1731 110.464 105.806 120.625 117.69 120.625Z" fill="white" stroke="#1D1D1B" stroke-width="1.16" stroke-miterlimit="10"/>
<path d="M117.234 118.894C126.086 118.894 133.262 111.703 133.262 102.833C133.262 93.962 126.086 86.771 117.234 86.771C108.382 86.771 101.206 93.962 101.206 102.833C101.206 111.703 108.382 118.894 117.234 118.894Z" stroke="#1D1D1B" stroke-width="0.58" stroke-miterlimit="10"/>
<path d="M148.264 126.644C125.651 129.745 102.617 129.455 79.9521 126.977L80.2152 124.948C102.714 128.093 125.642 129.06 148.264 126.644Z" fill="#1D1D1B"/>
<path d="M78.4793 317.66C77.4096 316.676 76.5766 315.481 75.7787 314.286C74.9896 313.1 74.3145 311.843 73.7972 310.499C73.3325 309.295 73.0081 308.057 72.745 306.8C72.6749 306.466 72.6749 306.115 72.6573 305.772C72.6398 305.377 72.596 304.972 72.596 304.577C72.596 303.496 72.5697 302.389 72.7889 301.344C72.9905 300.386 73.2536 299.419 73.6043 298.488C74.1654 297.003 74.8669 295.589 75.7437 294.262C76.6906 292.812 77.7866 291.485 79.0054 290.264C79.9874 289.28 81.0395 288.375 82.118 287.505C83.2315 286.618 84.4065 285.827 85.5989 285.062C86.8703 284.245 88.203 283.516 89.5533 282.831C90.9562 282.119 92.3941 281.486 93.8408 280.88C94.9544 280.414 96.0942 280.01 97.2428 279.632C98.0056 279.386 98.7421 279.061 99.5137 278.868C100.461 278.64 101.381 278.306 102.337 278.104C103.1 277.945 103.854 277.708 104.625 277.541C105.599 277.33 106.563 277.111 107.545 276.953C108.378 276.821 109.194 276.592 110.035 276.513C110.57 276.461 111.088 276.338 111.622 276.285C112.14 276.232 112.683 276.215 113.174 275.995C113.244 275.96 113.341 275.977 113.42 275.969C114.665 275.881 115.91 275.828 117.146 275.705C118.111 275.608 119.075 275.599 120.031 275.547C122.039 275.433 124.047 275.441 126.046 275.476C127.44 275.503 128.851 275.476 130.228 275.661C131.447 275.828 132.674 275.846 133.902 276.021C135.086 276.188 136.287 276.329 137.479 276.487C138.33 276.592 139.163 276.777 140.004 276.953C140.627 277.084 141.258 277.19 141.89 277.313C143.135 277.55 144.362 277.84 145.59 278.165C147.01 278.534 148.422 278.947 149.816 279.413C151.35 279.931 152.885 280.467 154.375 281.117C155.322 281.53 156.304 281.882 157.216 282.356C157.803 282.664 158.391 282.98 158.987 283.27C160.408 283.973 161.714 284.834 163.047 285.669C164.458 286.556 165.765 287.593 167.054 288.647C167.115 288.7 167.15 288.779 167.194 288.841C167.212 288.893 167.238 288.92 167.29 288.902C167.317 288.902 167.334 288.92 167.352 288.928C167.589 289.324 168.001 289.535 168.308 289.86C168.308 289.877 168.325 289.886 168.334 289.895C168.877 290.466 169.421 291.037 169.965 291.617C169.965 291.635 169.982 291.643 170 291.652C170.736 292.548 171.482 293.445 172.087 294.42C173.165 296.168 174.059 298.014 174.585 300.026C174.831 300.966 174.989 301.924 175.085 302.881C175.234 304.278 175.147 305.684 174.927 307.064C174.656 308.742 174.121 310.341 173.393 311.87C171.929 314.91 169.798 317.44 167.308 319.655C165.537 321.227 163.625 322.624 161.574 323.846C159.373 325.146 157.111 326.297 154.761 327.299C153.025 328.037 151.263 328.678 149.474 329.267C148.439 329.61 147.405 329.952 146.344 330.207C145.169 330.488 144.003 330.848 142.81 331.077C141.933 331.244 141.065 331.481 140.189 331.63C139.487 331.745 138.786 331.894 138.084 332.008C137.409 332.122 136.734 332.245 136.05 332.298C135.305 332.36 134.559 332.5 133.814 332.553C133.034 332.606 132.253 332.825 131.482 332.843C129.062 332.904 126.651 333.168 124.222 333.08C123.003 333.036 121.784 333.019 120.557 333.045C119.575 333.071 118.61 332.843 117.62 332.931C117.085 332.975 116.532 332.834 115.98 332.79C115.34 332.738 114.691 332.65 114.051 332.597C113.201 332.527 112.359 332.342 111.508 332.245C110.237 332.105 108.983 331.894 107.729 331.657C107.019 331.516 106.318 331.34 105.607 331.226C104.371 331.033 103.17 330.673 101.969 330.348C101.311 330.172 100.645 329.987 99.9872 329.803C99.1016 329.557 98.2424 329.249 97.3656 328.959C96.4362 328.652 95.5243 328.256 94.5949 327.931C93.5076 327.554 92.4555 327.088 91.4209 326.605C90.3336 326.095 89.2639 325.55 88.203 324.979C86.6598 324.136 85.1517 323.239 83.7313 322.194C83.5297 322.044 83.328 321.86 83.0387 321.86C82.9159 321.737 82.8107 321.579 82.6266 321.526C82.6529 321.377 82.5564 321.333 82.4424 321.298C82.3898 321.271 82.3372 321.236 82.2846 321.21C82.2495 321.078 82.1706 320.99 82.0216 320.981C81.9953 320.981 81.9777 320.964 81.9514 320.955C81.9251 320.85 81.8462 320.814 81.7673 320.762C81.7673 320.744 81.7498 320.727 81.7322 320.718C81.6884 320.63 81.6182 320.568 81.513 320.577C80.8554 320.006 80.1452 319.488 79.5753 318.82C79.3649 318.547 79.1106 318.319 78.8475 318.099L78.8212 318.073C78.7248 317.924 78.6371 317.774 78.4618 317.704L78.4793 317.66ZM113.113 310.077C113.157 309.84 112.981 309.875 112.85 309.875C112.587 309.867 112.324 309.858 112.061 309.866C111.824 309.866 111.701 309.761 111.771 309.55C111.885 309.216 111.824 308.874 111.903 308.531C112.087 307.793 112.113 307.02 112.245 306.264C112.394 305.394 112.438 304.516 112.745 303.663C113.429 301.765 114.691 300.588 116.69 300.228C116.883 300.193 117.199 300.184 117.243 299.92C117.427 298.927 117.567 297.935 117.734 296.942C117.76 296.766 117.699 296.669 117.523 296.661C116.734 296.625 115.963 296.661 115.261 297.091C114.367 297.645 113.788 298.462 113.315 299.376C113.218 299.56 113.166 299.788 112.867 299.929C113.016 298.963 113.157 298.058 113.306 297.161C113.367 296.819 113.306 296.661 112.902 296.669C111.763 296.696 110.632 296.669 109.492 296.669C108.422 296.669 108.326 296.766 108.334 297.873C108.334 297.917 108.334 297.961 108.334 297.996C108.308 298.251 108.431 298.321 108.676 298.33C109.299 298.339 109.509 298.558 109.492 299.2C109.474 300.122 109.273 301.019 109.159 301.924C109.018 302.978 108.878 304.032 108.72 305.087C108.554 306.185 108.44 307.283 108.247 308.373C108.045 309.506 107.992 309.717 106.817 309.919C106.712 309.937 106.59 309.919 106.59 310.086C106.59 310.429 106.484 310.763 106.423 311.097C106.388 311.325 106.44 311.457 106.721 311.448C107.265 311.43 107.8 311.448 108.343 311.448C109.746 311.448 111.14 311.448 112.543 311.448C112.692 311.448 112.902 311.527 112.911 311.246C112.929 310.921 113.043 310.596 112.999 310.262C113.034 310.209 113.166 310.2 113.087 310.086L113.113 310.077ZM91.5524 291.292C91.6839 291.652 91.6488 292.039 91.605 292.399C91.4559 293.822 91.2367 295.246 91.0175 296.661C90.8246 297.935 90.6405 299.2 90.4564 300.474C90.3336 301.344 90.2284 302.214 90.0969 303.075C89.904 304.331 89.755 305.588 89.5358 306.835C89.4568 307.257 89.4831 307.714 89.2289 308.1C88.7642 308.795 88.0627 309.058 87.2736 309.146C86.9843 309.181 86.8703 309.216 86.8615 309.541C86.844 309.99 86.7563 310.438 86.6686 310.886C86.5634 311.413 86.5634 311.43 87.0895 311.43C90.0268 311.43 92.9728 311.43 95.9101 311.43C96.7518 311.43 97.576 311.378 98.4002 311.158C99.8995 310.763 101.232 310.077 102.346 309.005C103.687 307.723 104.284 306.062 104.529 304.252C104.625 303.549 104.783 302.855 104.836 302.152C104.889 301.44 105.073 300.746 105.116 300.034C105.16 299.34 105.301 298.655 105.397 297.97C105.52 297.144 105.721 296.327 105.765 295.501C105.835 294.341 105.546 293.234 105.116 292.144C104.59 290.818 103.88 289.649 102.767 288.753C102.109 288.226 101.364 287.857 100.54 287.725C99.768 287.602 98.9701 287.602 98.181 287.549C98.181 287.444 98.2511 287.4 98.3476 287.347C99.1279 286.908 99.9872 286.635 100.794 286.257C102.346 285.528 103.942 284.896 105.555 284.298C108.326 283.27 111.158 282.435 114.025 281.724C116.313 281.161 118.619 280.696 120.916 280.177C121.6 280.019 122.302 279.896 122.959 279.606C123.082 279.553 123.24 279.483 123.205 279.307C123.17 279.14 123.012 279.123 122.872 279.132C121.96 279.158 121.057 279.061 120.136 279.079C118.163 279.132 116.208 279.36 114.27 279.65C112.438 279.922 110.605 280.177 108.799 280.652C107.466 281.003 106.107 281.267 104.766 281.609C103.065 282.049 101.425 282.69 99.7417 283.191C98.3914 283.586 97.1025 284.184 95.8049 284.746C94.3845 285.361 92.9991 286.064 91.6576 286.829C91.342 287.013 90.9036 287.083 90.7808 287.523C90.4827 287.575 90.0706 287.356 89.9478 287.857C89.8777 287.892 89.79 287.918 89.7286 287.971C88.9044 288.559 88.0715 289.122 87.2561 289.719C85.6164 290.923 84.0207 292.188 82.6353 293.691C81.399 295.026 80.3206 296.476 79.3999 298.058C78.2338 300.061 77.471 302.196 77.1904 304.507C77.1115 305.113 77.0852 305.728 77.2605 306.326C77.3921 306.774 77.6551 306.844 77.9883 306.519C78.4617 306.053 78.7686 305.491 79.0317 304.885C79.1807 304.542 79.321 304.199 79.4964 303.865C80.3469 302.257 81.3377 300.746 82.4512 299.305C83.819 297.539 85.3972 295.993 87.0895 294.552C87.8786 293.875 88.6765 293.207 89.5094 292.592C90.167 292.118 90.7808 291.556 91.5612 291.274L91.5524 291.292ZM138.558 309.981C138.452 310.833 138.067 311.571 137.646 312.23C137.032 313.188 136.252 314.031 135.322 314.725C134.191 315.569 132.99 316.281 131.71 316.869C130.5 317.423 129.246 317.853 127.975 318.222C127.133 318.46 126.274 318.627 125.397 318.767C124.099 318.978 122.81 319.189 121.495 319.224C120.452 319.25 119.408 319.329 118.374 319.224C117.313 319.11 116.252 318.996 115.226 318.6C114.489 318.319 113.797 318.012 113.227 317.449C112.455 316.685 112.683 315.806 113.455 315.296C114.77 314.444 116.243 314.225 117.769 314.277C118.155 314.295 118.532 314.374 118.909 314.4C120.075 314.497 121.188 314.804 122.267 315.226C122.679 315.384 123.073 315.657 123.547 315.569C123.827 315.516 124.126 315.437 124.222 315.112C124.31 314.796 124.196 314.576 123.915 314.365C122.872 313.548 121.662 313.117 120.425 312.766C119.768 312.582 119.075 312.476 118.382 312.388C117.094 312.221 115.822 312.028 114.507 312.151C113.481 312.248 112.473 312.379 111.473 312.608C110.377 312.863 109.325 313.24 108.501 314.102C107.712 314.91 107.756 315.991 108.334 316.799C108.659 317.247 109.053 317.625 109.483 317.976C110.684 318.96 112.096 319.54 113.543 319.997C114.56 320.314 115.612 320.568 116.681 320.709C117.69 320.841 118.689 321.008 119.706 321.008C121.022 321.008 122.337 321.043 123.652 320.955C124.923 320.858 126.177 320.7 127.431 320.472C128.334 320.305 129.237 320.12 130.132 319.874C131.052 319.628 131.964 319.373 132.858 319.057C134.34 318.53 135.769 317.906 137.128 317.098C138.093 316.527 139.031 315.903 139.864 315.147C140.881 314.233 141.811 313.232 142.468 312.01C142.924 311.158 143.275 310.262 143.459 309.313C143.573 308.715 143.687 308.109 143.74 307.494C143.827 306.607 143.959 305.728 144.046 304.849C144.125 304.024 144.257 303.198 144.362 302.372C144.476 301.519 144.625 300.667 144.695 299.815C144.757 299.042 145.265 298.435 146.046 298.356C146.238 298.339 146.352 298.242 146.352 298.102C146.335 297.706 146.493 297.355 146.545 296.977C146.598 296.652 146.493 296.59 146.195 296.599C144.625 296.608 143.056 296.599 141.495 296.599C140.811 296.599 140.741 296.661 140.706 297.372C140.706 297.486 140.767 297.653 140.627 297.715C140.478 297.776 140.425 297.601 140.346 297.53C139.294 296.573 138.128 296.168 136.708 296.669C135.883 296.959 135.208 297.434 134.586 298.022C133.139 299.384 132.306 301.08 131.789 302.96C131.491 304.05 131.517 305.157 131.543 306.264C131.578 307.74 132.034 309.085 132.92 310.262C133.516 311.061 134.358 311.51 135.349 311.518C136.182 311.518 136.927 311.167 137.611 310.675C137.909 310.464 138.128 310.148 138.523 310.025L138.558 309.981ZM127.44 311.43C128.229 311.43 129.018 311.422 129.816 311.43C130.14 311.43 130.298 311.369 130.36 311C130.412 310.701 130.36 310.394 130.491 310.104C130.561 309.946 130.456 309.858 130.272 309.858C129.965 309.858 129.658 309.858 129.36 309.84C129.272 309.84 129.097 309.884 129.132 309.656C129.29 308.645 129.421 307.626 129.562 306.616C129.658 305.921 129.746 305.236 129.833 304.542C129.939 303.76 130.035 302.969 130.149 302.187C130.263 301.352 130.403 300.509 130.5 299.674C130.57 299.006 131.096 298.374 131.762 298.33C132.069 298.312 132.148 298.145 132.148 297.935C132.157 297.636 132.236 297.372 132.315 297.091C132.438 296.643 132.35 296.564 131.885 296.564C130.43 296.564 128.974 296.564 127.519 296.564C126.917 296.564 126.578 296.863 126.502 297.46C126.502 297.46 126.502 297.548 126.484 297.583C126.414 297.689 126.396 297.785 126.23 297.618C125.125 296.502 123.836 296.081 122.319 296.661C121.337 297.038 120.574 297.732 119.873 298.488C118.952 299.481 118.321 300.65 117.865 301.897C117.313 303.4 117.216 304.964 117.348 306.554C117.453 307.81 117.804 308.997 118.549 310.025C119.382 311.167 120.496 311.703 121.934 311.325C122.714 311.114 123.38 310.701 123.968 310.148C124.222 309.91 124.397 309.937 124.406 310.244C124.415 310.543 124.573 310.807 124.573 311.088C124.573 311.422 124.739 311.439 124.985 311.43C125.8 311.43 126.624 311.43 127.44 311.43ZM146.449 305.333C146.484 305.772 146.431 306.361 146.572 306.932C146.94 308.487 147.676 309.858 149 310.771C150.622 311.887 152.429 311.975 154.244 311.255C155.489 310.763 156.558 309.989 157.426 308.926C158.145 308.048 158.75 307.108 159.11 306.044C159.601 304.595 159.838 303.092 159.566 301.546C159.32 300.193 158.821 298.963 157.839 297.987C156.392 296.555 154.603 296.195 152.665 296.59C151.35 296.863 150.219 297.539 149.281 298.488C147.457 300.333 146.405 302.539 146.458 305.324L146.449 305.333ZM164.625 295.72C164.695 294.332 163.546 293.26 162.179 293.234C160.697 293.207 159.653 294.42 159.627 295.72C159.601 297.038 160.881 298.268 162.135 298.242C163.441 298.216 164.651 297.196 164.625 295.729V295.72Z" fill="#808080"/>
<path d="M83.0649 321.825C83.3455 321.825 83.5472 322.009 83.7576 322.159C85.178 323.204 86.6773 324.1 88.2293 324.944C89.2902 325.515 90.3599 326.06 91.4471 326.569C92.4818 327.053 93.5339 327.518 94.6212 327.896C95.5506 328.212 96.4537 328.608 97.3919 328.924C98.2599 329.214 99.1279 329.513 100.013 329.768C100.671 329.952 101.337 330.137 101.995 330.312C103.196 330.637 104.397 330.989 105.634 331.191C106.344 331.305 107.045 331.49 107.756 331.622C109.009 331.859 110.263 332.078 111.535 332.21C112.385 332.298 113.227 332.491 114.077 332.562C114.726 332.614 115.366 332.702 116.006 332.755C116.559 332.799 117.111 332.94 117.646 332.896C118.637 332.808 119.601 333.036 120.583 333.01C121.802 332.983 123.021 333.001 124.248 333.045C126.677 333.133 129.088 332.86 131.508 332.808C132.28 332.79 133.06 332.57 133.84 332.518C134.595 332.465 135.331 332.324 136.076 332.263C136.76 332.21 137.435 332.087 138.11 331.973C138.812 331.859 139.513 331.709 140.215 331.595C141.092 331.455 141.96 331.209 142.836 331.042C144.029 330.813 145.186 330.462 146.37 330.172C147.431 329.917 148.466 329.574 149.5 329.232C151.289 328.643 153.06 328.002 154.787 327.264C157.137 326.262 159.399 325.111 161.6 323.81C163.652 322.598 165.563 321.201 167.334 319.619C169.824 317.405 171.955 314.866 173.419 311.835C174.156 310.306 174.691 308.707 174.954 307.028C175.173 305.64 175.261 304.243 175.111 302.846C175.015 301.888 174.857 300.939 174.612 299.99C174.086 297.978 173.191 296.133 172.113 294.385C171.508 293.401 170.763 292.504 170.026 291.617C170.122 291.503 170.236 291.406 170.35 291.591C170.675 292.118 171.175 292.504 171.569 292.961C171.955 293.401 172.025 293.972 172.428 294.376C172.735 294.683 172.946 295.079 173.139 295.501C173.279 295.808 173.516 296.133 173.717 296.45C174.068 297.012 174.34 297.601 174.629 298.198C174.901 298.76 175.155 299.323 175.436 299.885C175.541 300.096 175.532 300.316 175.585 300.526C175.909 301.8 176.234 303.083 176.225 304.401C176.207 305.535 176.172 306.668 176.085 307.802C176.015 308.68 175.699 309.515 175.453 310.323C175.252 310.982 175.068 311.712 174.638 312.335C174.34 312.766 174.208 313.337 173.945 313.82C173.542 314.55 173.042 315.226 172.569 315.911C171.736 317.124 170.789 318.24 169.754 319.268C169.062 319.953 168.378 320.647 167.606 321.262C166.624 322.044 165.616 322.791 164.651 323.6C164.081 324.083 163.441 324.505 162.731 324.803C162.1 325.067 161.582 325.524 160.977 325.814C159.522 326.525 158.093 327.272 156.62 327.931C155.647 328.362 154.577 328.59 153.682 329.196C153.604 329.249 153.498 329.258 153.402 329.284C152.569 329.478 151.78 329.759 151.035 330.163C150.929 330.225 150.798 330.277 150.684 330.286C149.965 330.312 149.369 330.778 148.676 330.875C147.939 330.98 147.247 331.253 146.537 331.446C145.397 331.753 144.213 331.894 143.091 332.307C142.582 332.491 141.995 332.351 141.495 332.544C140.644 332.887 139.741 332.878 138.873 333.027C137.321 333.309 135.743 333.44 134.174 333.616C133.428 333.704 132.674 333.73 131.938 333.853C130.903 334.029 129.869 334.064 128.834 334.064C126.09 334.064 123.345 334.064 120.592 334.064C119.18 334.064 117.76 333.95 116.375 333.757C115.033 333.572 113.665 333.581 112.35 333.282C111.201 333.027 110.018 333.036 108.895 332.755C108.071 332.553 107.212 332.544 106.432 332.254C105.704 331.982 104.915 332.008 104.222 331.736C103.512 331.455 102.714 331.481 102.065 331.033C101.916 330.927 101.714 330.971 101.539 330.963C100.873 330.936 100.25 330.84 99.6452 330.488C99.2419 330.251 98.7421 330.154 98.295 330.005C97.199 329.636 96.1205 329.223 95.0333 328.836C94.5861 328.678 94.174 328.458 93.7707 328.221C92.7273 327.606 91.5699 327.22 90.4914 326.684C90.2284 326.552 90.0618 326.315 89.8075 326.165C89.1499 325.77 88.4573 325.453 87.7646 325.137C87.3525 324.953 86.9579 324.68 86.6072 324.355C86.2916 324.074 85.8444 323.995 85.52 323.696C85.1956 323.406 84.8098 323.195 84.459 322.923C84.082 322.633 83.6261 322.449 83.2754 322.106C83.1701 322.009 83.0562 321.939 83.0649 321.781V321.825Z" fill="#333333"/>
<path d="M169.973 291.591C169.43 291.02 168.886 290.449 168.343 289.869C168.474 289.807 168.57 289.798 168.711 289.904C169.114 290.211 169.412 290.633 169.789 290.967C169.956 291.116 170 291.354 169.973 291.582V291.591Z" fill="#949494"/>
<path d="M168.308 289.834C168.001 289.509 167.589 289.298 167.352 288.902C167.738 288.973 168.255 289.473 168.308 289.834Z" fill="#949494"/>
<path d="M78.865 318.047C79.128 318.267 79.3823 318.495 79.5927 318.767C79.2245 318.767 78.9439 318.486 78.865 318.047Z" fill="#949494"/>
<path d="M78.4792 317.66C78.6546 317.73 78.7423 317.88 78.8387 318.029C78.5845 318.038 78.4968 317.889 78.4792 317.66Z" fill="#949494"/>
<path d="M82.0391 320.938C82.1881 320.938 82.267 321.025 82.3021 321.166C82.1443 321.166 82.0478 321.104 82.0391 320.938Z" fill="#949494"/>
<path d="M81.5305 320.533C81.6357 320.533 81.7059 320.595 81.7497 320.674C81.6094 320.727 81.5481 320.656 81.5305 320.533Z" fill="#949494"/>
<path d="M81.7849 320.718C81.8638 320.77 81.9515 320.814 81.9691 320.911C81.8551 320.902 81.7499 320.876 81.7849 320.718Z" fill="#949494"/>
<path d="M82.4687 321.254C82.5827 321.289 82.6792 321.342 82.6529 321.482C82.5213 321.456 82.4512 321.386 82.4687 321.254Z" fill="#949494"/>
<path d="M167.291 288.885C167.238 288.894 167.212 288.867 167.194 288.823C167.229 288.841 167.255 288.867 167.291 288.885Z" fill="#949494"/>
<path d="M89.9478 287.874C90.0705 287.373 90.4826 287.593 90.7808 287.54C91.2718 287.593 91.7277 287.522 92.1836 287.276C93.0166 286.82 93.8671 286.354 94.7439 285.985C96.1818 285.379 97.5847 284.676 99.0578 284.148C100.811 283.516 102.556 282.822 104.362 282.356C106.397 281.829 108.422 281.249 110.518 280.985C111.456 280.862 112.385 280.731 113.315 280.599C113.507 280.572 113.779 280.572 113.823 280.766C113.884 280.994 113.604 281.003 113.446 281.047C112.034 281.495 110.623 281.925 109.22 282.374C107.896 282.795 106.589 283.235 105.283 283.7C103.205 284.447 101.171 285.282 99.1805 286.222C98.4528 286.565 97.725 286.899 97.006 287.241C96.9008 287.294 96.743 287.32 96.7518 287.478C96.7518 287.566 96.857 287.61 96.9359 287.61C97.3568 287.61 97.7864 287.698 98.2073 287.558C98.9964 287.61 99.7855 287.619 100.566 287.733C101.39 287.865 102.135 288.234 102.793 288.761C103.915 289.658 104.625 290.826 105.143 292.153C105.572 293.242 105.862 294.349 105.792 295.509C105.739 296.335 105.546 297.152 105.423 297.978C105.318 298.664 105.187 299.349 105.143 300.043C105.099 300.755 104.915 301.449 104.862 302.161C104.81 302.863 104.652 303.566 104.555 304.261C104.319 306.071 103.714 307.722 102.372 309.014C101.259 310.077 99.9258 310.771 98.4265 311.167C97.6023 311.378 96.7781 311.439 95.9363 311.439C92.9991 311.439 90.053 311.439 87.1157 311.439C86.5896 311.439 86.5896 311.421 86.6949 310.894C86.7825 310.455 86.8702 310.007 86.8878 309.55C86.8965 309.225 87.0105 309.181 87.2999 309.155C88.0802 309.067 88.7816 308.803 89.2551 308.109C89.5094 307.722 89.4831 307.274 89.562 306.844C89.7812 305.596 89.9303 304.331 90.1232 303.083C90.2547 302.222 90.3599 301.343 90.4826 300.482C90.6668 299.208 90.8597 297.943 91.0438 296.669C91.2542 295.254 91.4822 293.831 91.6313 292.408C91.6663 292.047 91.7102 291.661 91.5786 291.301C91.5962 291.037 91.5786 290.8 91.3068 290.65C91.1665 290.343 90.8334 290.308 90.5791 290.167C90.4914 290.114 90.2985 290.053 90.2371 290.255C90.1758 290.457 90.3336 290.527 90.4826 290.554C90.6405 290.589 90.8158 290.536 90.9123 290.729C90.6054 290.879 90.4037 291.16 90.1319 291.345C88.9044 292.153 87.8347 293.163 86.7212 294.121C86.1951 294.569 85.6602 295.017 85.178 295.509C84.1521 296.537 83.0649 297.504 82.153 298.646C81.1359 299.92 80.0487 301.15 79.3911 302.679C79.2245 303.066 79.0404 303.461 78.6721 303.725C78.3916 303.918 78.2162 303.865 78.1724 303.514C78.1461 303.276 78.1724 303.048 78.2162 302.811C78.5494 301.097 79.2771 299.542 80.1452 298.057C81.0307 296.537 82.0917 295.158 83.3893 293.963C84.0382 293.365 84.573 292.645 85.2306 292.047C85.6515 291.67 86.1337 291.406 86.5633 291.063C87.5015 290.325 88.4485 289.605 89.4656 288.972C89.8864 288.709 90.0355 288.357 89.9741 287.891L89.9478 287.874ZM95.8574 308.267C96.1205 308.267 96.3835 308.267 96.6466 308.267C97.3831 308.267 97.9091 307.889 98.2774 307.301C98.7684 306.527 98.9701 305.649 99.1191 304.753C99.2682 303.839 99.3822 302.916 99.5225 301.994C99.6628 301.036 99.8206 300.078 99.9433 299.112C100.084 298.005 100.233 296.898 100.417 295.79C100.575 294.815 100.706 293.857 100.382 292.865C99.8644 291.292 98.8736 290.729 97.3918 290.809C97.1989 290.817 97.1639 290.914 97.1113 291.09C96.9184 291.793 96.9184 292.522 96.7956 293.234C96.6378 294.147 96.4887 295.061 96.3835 295.984C96.2958 296.713 96.1205 297.442 96.0503 298.172C95.9626 299.112 95.8136 300.043 95.6733 300.974C95.5155 302.011 95.384 303.048 95.2261 304.085C95.0946 304.946 94.9105 305.807 94.8316 306.677C94.7877 307.116 94.6474 307.529 94.6211 307.968C94.6124 308.188 94.6913 308.267 94.9017 308.267C95.2174 308.258 95.5418 308.267 95.8574 308.267Z" fill="white"/>
<path d="M138.558 309.981C138.163 310.104 137.935 310.42 137.646 310.631C136.962 311.114 136.208 311.474 135.384 311.474C134.393 311.474 133.551 311.017 132.955 310.218C132.069 309.04 131.613 307.696 131.578 306.22C131.552 305.113 131.526 304.006 131.824 302.916C132.341 301.027 133.174 299.331 134.621 297.978C135.243 297.39 135.927 296.915 136.743 296.625C138.154 296.124 139.32 296.529 140.381 297.486C140.46 297.557 140.513 297.741 140.662 297.671C140.802 297.609 140.732 297.451 140.741 297.328C140.776 296.625 140.846 296.555 141.53 296.555C143.099 296.555 144.669 296.555 146.23 296.555C146.528 296.555 146.624 296.608 146.58 296.933C146.528 297.311 146.37 297.671 146.387 298.057C146.387 298.207 146.274 298.295 146.081 298.312C145.3 298.391 144.8 299.006 144.73 299.771C144.66 300.623 144.511 301.475 144.397 302.328C144.283 303.153 144.16 303.979 144.082 304.805C143.994 305.693 143.854 306.571 143.775 307.45C143.713 308.065 143.608 308.663 143.494 309.269C143.31 310.218 142.968 311.114 142.503 311.966C141.846 313.188 140.916 314.189 139.899 315.103C139.066 315.859 138.128 316.482 137.164 317.054C135.813 317.862 134.375 318.486 132.894 319.013C131.999 319.329 131.087 319.584 130.167 319.83C129.272 320.067 128.378 320.261 127.466 320.428C126.221 320.656 124.958 320.823 123.687 320.911C122.372 321.007 121.057 320.972 119.742 320.964C118.733 320.964 117.725 320.797 116.717 320.665C115.647 320.524 114.595 320.269 113.578 319.953C112.131 319.496 110.719 318.916 109.518 317.932C109.088 317.581 108.694 317.212 108.369 316.755C107.799 315.955 107.756 314.875 108.536 314.057C109.36 313.205 110.412 312.819 111.508 312.564C112.499 312.335 113.516 312.204 114.542 312.107C115.857 311.984 117.129 312.177 118.418 312.344C119.11 312.432 119.803 312.537 120.46 312.722C121.697 313.073 122.907 313.504 123.95 314.321C124.231 314.541 124.345 314.752 124.257 315.068C124.161 315.393 123.862 315.472 123.582 315.525C123.108 315.621 122.714 315.349 122.302 315.182C121.215 314.76 120.11 314.453 118.944 314.356C118.558 314.321 118.181 314.242 117.804 314.233C116.278 314.18 114.805 314.391 113.49 315.252C112.71 315.753 112.49 316.641 113.262 317.405C113.832 317.967 114.525 318.275 115.261 318.556C116.287 318.951 117.348 319.066 118.409 319.18C119.435 319.294 120.487 319.215 121.53 319.18C122.845 319.145 124.134 318.934 125.432 318.723C126.3 318.582 127.168 318.415 128.01 318.178C129.281 317.809 130.535 317.379 131.745 316.825C133.025 316.236 134.226 315.534 135.357 314.681C136.287 313.987 137.067 313.144 137.681 312.186C138.102 311.518 138.488 310.789 138.593 309.937L138.558 309.981ZM140.399 300.553C140.399 299.744 140.171 299.402 139.61 299.138C138.759 298.734 137.707 299.34 137.409 300.21C137.278 300.605 137.286 301.018 137.216 301.423C137.014 302.495 136.918 303.584 136.751 304.665C136.611 305.543 136.55 306.431 136.401 307.309C136.252 308.171 136.664 308.944 137.479 309.155C137.979 309.286 139.189 308.689 139.338 307.96C139.434 307.503 139.478 307.046 139.54 306.58C139.645 305.851 139.724 305.113 139.829 304.384C139.925 303.689 140.022 303.004 140.127 302.319C140.224 301.686 140.329 301.054 140.408 300.561L140.399 300.553Z" fill="white"/>
<path d="M127.44 311.431C126.624 311.431 125.8 311.431 124.985 311.431C124.739 311.431 124.564 311.413 124.573 311.088C124.573 310.807 124.424 310.543 124.406 310.244C124.397 309.937 124.213 309.919 123.968 310.148C123.38 310.693 122.723 311.114 121.933 311.325C120.495 311.712 119.382 311.167 118.549 310.025C117.804 309.006 117.453 307.819 117.348 306.554C117.216 304.964 117.313 303.4 117.865 301.897C118.321 300.641 118.952 299.472 119.873 298.488C120.583 297.724 121.337 297.038 122.319 296.661C123.836 296.072 125.125 296.503 126.23 297.618C126.396 297.785 126.414 297.689 126.484 297.583C126.502 297.548 126.493 297.504 126.502 297.46C126.572 296.863 126.911 296.564 127.519 296.564C128.974 296.564 130.43 296.564 131.885 296.564C132.35 296.564 132.438 296.643 132.315 297.091C132.236 297.372 132.166 297.645 132.148 297.935C132.148 298.146 132.069 298.313 131.762 298.33C131.087 298.374 130.57 299.007 130.5 299.674C130.412 300.518 130.272 301.353 130.149 302.187C130.044 302.969 129.939 303.751 129.833 304.542C129.746 305.236 129.649 305.922 129.562 306.616C129.421 307.626 129.29 308.645 129.132 309.656C129.097 309.893 129.272 309.831 129.36 309.84C129.667 309.867 129.974 309.867 130.272 309.858C130.456 309.858 130.561 309.946 130.491 310.104C130.368 310.394 130.412 310.701 130.36 311C130.298 311.369 130.132 311.439 129.816 311.431C129.027 311.413 128.238 311.431 127.44 311.431ZM122.065 307.609C121.933 308.575 123.029 309.559 124.02 308.997C124.555 308.698 125.046 308.399 125.099 307.67C125.16 306.914 125.309 306.159 125.414 305.403C125.555 304.349 125.695 303.286 125.835 302.231C125.923 301.607 126.072 301.001 126.037 300.342C126.002 299.736 125.862 299.305 125.3 299.103C124.467 298.813 123.529 299.27 123.161 300.087C123.012 300.43 123.126 300.79 123.012 301.098C122.837 301.572 122.828 302.064 122.758 302.548C122.635 303.347 122.547 304.147 122.442 304.946C122.319 305.842 122.188 306.73 122.065 307.617V307.609Z" fill="white"/>
<path d="M146.449 305.333C146.405 302.547 147.449 300.342 149.272 298.497C150.202 297.557 151.342 296.871 152.657 296.599C154.603 296.195 156.383 296.564 157.83 297.996C158.812 298.963 159.312 300.193 159.557 301.554C159.838 303.101 159.601 304.603 159.101 306.053C158.742 307.107 158.137 308.056 157.418 308.935C156.55 309.989 155.48 310.763 154.235 311.263C152.42 311.984 150.614 311.887 148.992 310.78C147.668 309.875 146.931 308.505 146.563 306.941C146.423 306.369 146.475 305.79 146.44 305.341L146.449 305.333ZM153.902 298.804C152.964 298.822 152.455 299.2 152.148 299.832C151.797 300.562 151.885 301.379 151.736 302.143C151.596 302.864 151.587 303.61 151.455 304.34C151.245 305.491 151.166 306.668 150.982 307.819C150.947 308.056 150.938 308.32 151.087 308.54C151.403 309.032 151.797 309.383 152.429 309.313C153.192 309.225 153.832 308.724 153.981 308.109C154.279 306.818 154.358 305.491 154.559 304.182C154.717 303.154 154.893 302.126 154.954 301.089C154.98 300.685 155.243 300.333 155.085 299.859C154.866 299.209 154.349 298.778 153.919 298.804H153.902Z" fill="white"/>
<path d="M113.025 310.244C113.069 310.578 112.955 310.895 112.938 311.229C112.929 311.51 112.71 311.431 112.569 311.431C111.166 311.431 109.772 311.431 108.369 311.431C107.826 311.431 107.291 311.413 106.747 311.431C106.467 311.439 106.414 311.308 106.449 311.079C106.511 310.745 106.616 310.411 106.616 310.069C106.616 309.902 106.739 309.919 106.844 309.902C108.028 309.7 108.08 309.489 108.273 308.355C108.466 307.266 108.58 306.168 108.747 305.069C108.904 304.015 109.045 302.96 109.185 301.906C109.308 301.001 109.501 300.096 109.518 299.182C109.536 298.55 109.325 298.33 108.703 298.312C108.457 298.312 108.334 298.233 108.361 297.979C108.361 297.935 108.361 297.9 108.361 297.856C108.361 296.749 108.448 296.652 109.518 296.652C110.658 296.652 111.789 296.678 112.929 296.652C113.341 296.652 113.394 296.801 113.332 297.144C113.174 298.04 113.043 298.945 112.894 299.912C113.192 299.771 113.245 299.543 113.341 299.358C113.814 298.444 114.393 297.627 115.287 297.074C115.989 296.643 116.76 296.608 117.55 296.643C117.725 296.643 117.786 296.757 117.76 296.924C117.593 297.917 117.453 298.919 117.269 299.903C117.216 300.166 116.91 300.175 116.717 300.21C114.718 300.579 113.446 301.748 112.771 303.646C112.464 304.498 112.42 305.377 112.271 306.247C112.14 307.002 112.122 307.767 111.929 308.514C111.842 308.847 111.912 309.199 111.798 309.533C111.728 309.752 111.85 309.858 112.087 309.849C112.35 309.84 112.613 309.849 112.876 309.858C113.008 309.858 113.183 309.823 113.139 310.06C113.043 310.086 113.034 310.157 113.052 310.236L113.025 310.244Z" fill="white"/>
<path d="M98.1985 287.558C97.7776 287.698 97.348 287.61 96.9271 287.61C96.8482 287.61 96.743 287.566 96.743 287.479C96.743 287.32 96.892 287.294 96.9973 287.241C97.725 286.899 98.4527 286.565 99.1717 286.222C101.171 285.282 103.205 284.447 105.274 283.7C106.581 283.235 107.896 282.795 109.211 282.374C110.623 281.926 112.034 281.495 113.437 281.047C113.595 280.994 113.876 280.985 113.814 280.766C113.762 280.572 113.499 280.572 113.306 280.599C112.376 280.722 111.438 280.862 110.509 280.985C108.413 281.258 106.388 281.829 104.354 282.356C102.547 282.822 100.811 283.525 99.049 284.149C97.5759 284.676 96.1731 285.379 94.7351 285.985C93.8583 286.354 93.0166 286.82 92.1749 287.277C91.7277 287.523 91.2717 287.593 90.772 287.54C90.8947 287.101 91.3331 287.022 91.6488 286.846C92.999 286.082 94.3756 285.37 95.7961 284.764C97.0937 284.21 98.3826 283.604 99.7329 283.208C101.416 282.716 103.056 282.066 104.757 281.627C106.098 281.284 107.457 281.021 108.79 280.669C110.588 280.195 112.429 279.94 114.261 279.667C116.199 279.378 118.154 279.149 120.127 279.096C121.039 279.07 121.951 279.167 122.863 279.149C123.003 279.149 123.161 279.167 123.196 279.325C123.231 279.501 123.073 279.571 122.951 279.624C122.302 279.905 121.6 280.037 120.908 280.195C118.61 280.713 116.304 281.179 114.016 281.741C111.149 282.444 108.326 283.288 105.546 284.316C103.933 284.913 102.337 285.537 100.785 286.275C99.9784 286.653 99.1191 286.925 98.3388 287.364C98.2423 287.417 98.1809 287.461 98.1722 287.566L98.1985 287.558Z" fill="#CCCCCC"/>
<path d="M89.9477 287.874C90.0091 288.348 89.86 288.691 89.4392 288.955C88.4309 289.587 87.4839 290.308 86.537 291.046C86.0986 291.389 85.6251 291.652 85.2042 292.03C84.5379 292.627 84.0118 293.339 83.3629 293.945C82.074 295.14 81.0043 296.52 80.1188 298.04C79.2507 299.534 78.5142 301.08 78.1898 302.793C78.146 303.031 78.1197 303.259 78.146 303.496C78.1811 303.848 78.3564 303.909 78.6457 303.707C79.0228 303.444 79.1981 303.048 79.3647 302.662C80.0223 301.133 81.1008 299.903 82.1266 298.629C83.0385 297.495 84.1258 296.529 85.1516 295.492C85.6426 295 86.1687 294.56 86.6948 294.104C87.8083 293.146 88.878 292.135 90.1055 291.327C90.3773 291.143 90.579 290.861 90.8859 290.712C91.0174 290.686 91.1665 290.721 91.2804 290.633C91.5435 290.774 91.561 291.02 91.5523 291.283C90.7631 291.564 90.1581 292.118 89.5005 292.601C88.6676 293.216 87.8697 293.884 87.0806 294.561C85.3971 296.001 83.8101 297.548 82.4423 299.314C81.3288 300.755 80.3292 302.266 79.4875 303.874C79.3121 304.208 79.1631 304.551 79.0228 304.893C78.7685 305.5 78.4529 306.062 77.9794 306.528C77.6462 306.853 77.3832 306.782 77.2516 306.334C77.0763 305.737 77.1113 305.122 77.1815 304.515C77.4621 302.213 78.2337 300.078 79.391 298.066C80.3029 296.485 81.3901 295.035 82.6264 293.699C84.0118 292.197 85.6076 290.941 87.2472 289.728C88.0626 289.131 88.8956 288.568 89.7197 287.979C89.7899 287.936 89.8688 287.9 89.9389 287.865L89.9477 287.874Z" fill="#CCCCCC"/>
<path d="M164.625 295.72C164.651 297.188 163.441 298.207 162.135 298.233C160.881 298.26 159.601 297.038 159.627 295.712C159.653 294.411 160.697 293.199 162.179 293.225C163.538 293.251 164.686 294.323 164.625 295.712V295.72ZM160.127 295.668C160.03 296.88 161.118 297.864 162.179 297.785C163.362 297.697 164.213 296.994 164.186 295.65C164.16 294.358 163.31 293.726 162.117 293.656C161.153 293.594 159.96 294.64 160.127 295.668Z" fill="white"/>
<path d="M113.025 310.244C113.016 310.165 113.025 310.095 113.113 310.068C113.192 310.183 113.06 310.183 113.025 310.244Z" fill="#949494"/>
<path d="M95.8575 308.268C95.5419 308.268 95.2175 308.268 94.9018 308.268C94.6826 308.268 94.6037 308.188 94.6213 307.969C94.6476 307.529 94.7879 307.116 94.8317 306.677C94.9106 305.807 95.0947 304.946 95.2263 304.085C95.3841 303.048 95.5244 302.012 95.6734 300.975C95.8137 300.043 95.9628 299.112 96.0504 298.172C96.1206 297.443 96.296 296.722 96.3836 295.984C96.4976 295.062 96.6379 294.148 96.7957 293.234C96.9185 292.522 96.9185 291.793 97.1114 291.09C97.164 290.914 97.1991 290.818 97.3919 290.809C98.8737 290.73 99.8645 291.301 100.382 292.865C100.706 293.858 100.584 294.816 100.417 295.791C100.233 296.898 100.084 298.005 99.9434 299.112C99.8207 300.07 99.6629 301.028 99.5226 301.994C99.3911 302.908 99.2683 303.83 99.1192 304.753C98.979 305.649 98.7685 306.528 98.2775 307.301C97.9093 307.89 97.3832 308.268 96.6467 308.268C96.3836 308.268 96.1206 308.268 95.8575 308.268Z" fill="#808080"/>
<path d="M91.2894 290.642C91.1754 290.738 91.0263 290.703 90.8948 290.721C90.8071 290.528 90.623 290.58 90.4652 290.545C90.3161 290.519 90.1583 290.44 90.2196 290.246C90.281 290.053 90.4739 290.115 90.5616 290.159C90.8159 290.299 91.1491 290.334 91.2894 290.642Z" fill="#808080"/>
<path d="M140.399 300.553C140.32 301.036 140.215 301.669 140.118 302.31C140.013 302.995 139.917 303.69 139.82 304.375C139.724 305.104 139.636 305.842 139.531 306.571C139.47 307.028 139.426 307.494 139.329 307.951C139.171 308.68 137.97 309.278 137.47 309.146C136.664 308.935 136.243 308.162 136.392 307.301C136.541 306.431 136.611 305.535 136.743 304.656C136.909 303.575 137.006 302.486 137.207 301.414C137.286 301.01 137.269 300.597 137.4 300.201C137.698 299.331 138.751 298.734 139.601 299.129C140.162 299.393 140.39 299.736 140.39 300.544L140.399 300.553Z" fill="#808080"/>
<path d="M122.065 307.608C122.188 306.721 122.319 305.825 122.442 304.937C122.547 304.138 122.644 303.338 122.758 302.539C122.828 302.055 122.837 301.563 123.012 301.089C123.126 300.781 123.012 300.421 123.161 300.078C123.529 299.261 124.468 298.804 125.301 299.094C125.862 299.288 126.002 299.727 126.037 300.333C126.072 300.992 125.923 301.598 125.835 302.222C125.695 303.277 125.555 304.34 125.415 305.394C125.309 306.15 125.152 306.905 125.099 307.661C125.046 308.39 124.547 308.689 124.02 308.988C123.03 309.55 121.942 308.566 122.065 307.6V307.608Z" fill="#808080"/>
<path d="M153.902 298.804C154.331 298.778 154.857 299.209 155.068 299.859C155.226 300.333 154.963 300.685 154.936 301.089C154.866 302.126 154.699 303.154 154.542 304.182C154.34 305.491 154.261 306.818 153.963 308.109C153.823 308.724 153.183 309.225 152.411 309.313C151.78 309.392 151.385 309.032 151.07 308.54C150.929 308.311 150.929 308.056 150.964 307.819C151.148 306.659 151.236 305.491 151.438 304.34C151.569 303.619 151.578 302.864 151.718 302.143C151.867 301.37 151.78 300.553 152.13 299.832C152.437 299.191 152.946 298.813 153.884 298.804H153.902Z" fill="#808080"/>
<path d="M160.127 295.667C159.96 294.639 161.153 293.594 162.117 293.655C163.31 293.726 164.16 294.367 164.187 295.65C164.213 296.994 163.362 297.697 162.179 297.785C161.118 297.864 160.031 296.88 160.127 295.667ZM162.556 295.834C162.617 295.791 162.652 295.747 162.705 295.729C163.196 295.606 163.17 295.228 163.117 294.868C163.064 294.552 162.81 294.429 162.512 294.42C162.179 294.411 161.846 294.42 161.512 294.402C161.232 294.385 161.118 294.481 161.127 294.78C161.153 295.334 161.127 295.887 161.135 296.45C161.135 296.652 161.021 297.012 161.267 297.012C161.583 297.012 161.433 296.643 161.442 296.432C161.46 295.896 161.767 295.694 162.231 295.957C162.407 296.063 162.486 296.265 162.626 296.406C162.828 296.608 162.845 297.073 163.336 296.95C163.134 296.52 162.854 296.177 162.556 295.826V295.834Z" fill="#808080"/>
<path d="M162.556 295.835C162.854 296.186 163.143 296.529 163.336 296.959C162.845 297.082 162.828 296.625 162.626 296.414C162.486 296.274 162.407 296.063 162.231 295.966C161.767 295.703 161.46 295.905 161.442 296.441C161.442 296.652 161.583 297.021 161.267 297.021C161.021 297.021 161.144 296.652 161.135 296.458C161.118 295.905 161.144 295.343 161.127 294.789C161.118 294.49 161.223 294.394 161.512 294.411C161.846 294.429 162.179 294.411 162.512 294.429C162.81 294.438 163.073 294.561 163.117 294.877C163.17 295.237 163.196 295.615 162.705 295.738C162.652 295.747 162.617 295.799 162.556 295.843V295.835ZM162.003 294.648C161.916 294.648 161.846 294.648 161.784 294.648C161.477 294.622 161.451 294.815 161.46 295.044C161.46 295.29 161.381 295.624 161.758 295.615C161.977 295.615 162.223 295.615 162.442 295.545C162.643 295.474 162.889 295.43 162.871 295.14C162.854 294.868 162.705 294.754 162.424 294.71C162.275 294.684 162.135 294.675 162.003 294.657V294.648Z" fill="white"/>
<path d="M162.003 294.648C162.135 294.666 162.284 294.684 162.424 294.701C162.705 294.745 162.854 294.85 162.871 295.132C162.889 295.422 162.635 295.474 162.442 295.536C162.223 295.606 161.986 295.606 161.758 295.606C161.381 295.615 161.469 295.281 161.46 295.035C161.46 294.807 161.477 294.613 161.784 294.64C161.854 294.64 161.925 294.64 162.003 294.64V294.648Z" fill="#808080"/>
</svg>
