<svg width="233" height="255" viewBox="0 0 233 255" fill="none" xmlns="http://www.w3.org/2000/svg">
<g filter="url(#filter0_d_245_223)">
<path d="M226.066 153.865C222.152 149.563 217.056 145.968 212.334 142.931C220.186 129.08 223.795 110.952 222.56 90.9753C221.178 68.6448 213.641 46.5227 201.885 30.2841C186.919 9.62571 163.893 0 129.415 0C123.093 0 116.24 0.331594 109.049 0.980572C87.7276 2.91329 68.0736 10.3789 52.2193 22.5721C33.7812 36.7501 20.3397 57.0343 12.2653 82.8607C2.98449 112.543 10.5839 132.756 18.5966 144.485C22.1303 149.663 26.0582 153.67 29.5112 156.626C27.0272 158.133 23.9209 159.947 20.1069 162.069C8.48932 168.521 9.78123 177.46 10.4557 180.046C12.593 188.256 21.9308 194.21 32.6602 194.21C35.1348 194.21 37.5856 193.883 39.9509 193.234C43.3612 192.301 47.8354 191.553 51.3263 191.292C50.8181 198.057 49.1558 209.677 48.1013 212.637C42.0598 223.907 44.8288 231.794 47.0374 235.508C51.0699 242.291 58.7595 245.333 64.5921 245.328C66.6914 245.328 68.6103 244.968 70.3107 244.253C71.2511 244.328 73.0844 244.892 74.4476 245.314C77.0029 246.1 79.8954 246.995 82.8402 246.995C85.12 246.995 87.1814 246.465 88.9672 245.418C92.539 243.324 96.1582 242.159 104.095 239.61C105.13 239.279 106.227 238.923 107.401 238.544C117.242 235.361 136.796 232.609 141.408 232.358C141.968 232.486 143.417 233.495 144.381 234.167C146.941 235.958 150.451 238.407 155.191 238.857C155.728 238.909 156.26 238.933 156.764 238.933C164.107 238.933 166.88 233.788 168.543 230.714C169.312 229.288 170.11 227.815 171.407 226.304C176.427 220.463 176.494 215.001 176.541 211.013C176.56 209.52 176.574 208.227 176.85 207.119C177.814 203.282 181.096 190.984 183.01 183.855C184.844 183.902 187.337 183.992 190.733 184.144C193.901 184.286 197.725 185.319 201.42 186.313C205.903 187.526 210.544 188.777 215.013 188.777C224.427 188.777 228.925 183.225 231.034 178.568C233.694 172.704 234.99 163.661 226.075 153.86L226.066 153.865Z" fill="white"/>
<path d="M109.695 8.05774C157.106 3.76122 181.481 14.2538 196.105 34.4432C218.974 66.0252 222.703 117.887 202.436 145.115C213.132 151.851 230.863 161.676 224.531 175.641C218.922 188.014 203.704 177.607 191.037 177.043C178.37 176.479 177.529 176.764 177.529 176.764C177.529 176.764 171.335 199.781 169.93 205.394C168.524 211.008 171.055 215.783 165.987 221.676C160.919 227.569 161.765 232.344 155.856 231.78C149.948 231.216 146.428 224.973 141.08 225.252C135.732 225.532 115.608 228.412 105.192 231.78C94.776 235.148 90.1356 236.484 85.3479 239.288C81.0543 241.808 72.3957 235.404 67.7553 237.602C61.8467 240.411 44.6768 233.67 54.5275 215.707C56.3561 211.988 59.7331 186.792 58.1847 184.968C56.6364 183.144 45.3702 184.376 38.0605 186.37C23.4269 190.368 8.14252 176.825 23.5646 168.265C37.2151 160.686 42.1405 156.825 42.1405 156.825C42.1405 156.825 2.73743 137.176 19.0619 84.964C35.3912 32.7615 72.5429 11.4258 109.695 8.05774Z" fill="#023064"/>
<path d="M56.0426 153.505C58.2132 155.215 43.817 165.57 37.0773 168.066C29.0219 171.051 26.6281 183.258 37.3243 182.841C48.0205 182.424 62.6256 178.336 65.2237 179.999C68.5674 182.14 66.3493 215.508 65.9266 219.719C65.5039 223.93 65.9266 232.211 73.1033 232.211C80.28 232.211 81.1255 226.735 81.4057 221.543C81.6859 216.351 82.2511 211.297 82.3889 208.208C84.7827 208.208 84.6402 204.276 84.9204 201.752C85.2006 199.227 86.8915 192.77 91.3942 193.192C95.8968 193.613 98.8511 199.506 98.8511 206.384C98.8511 213.263 94.206 227.436 99.5541 225.896C104.902 224.357 109.405 224.352 109.405 219.298C109.405 214.243 109.97 202.874 110.108 199.369C110.246 195.863 110.53 190.387 114.753 189.686C118.975 188.985 120.804 198.109 121.084 204.845C121.364 211.581 119.113 217.479 125.026 217.479C130.94 217.479 139.803 219.302 139.242 209.478C138.677 199.653 135.585 186.882 142.339 186.598C149.093 186.313 150.921 198.53 151.487 204.845C152.052 211.159 152.47 215.371 155.852 215.934C159.233 216.498 163.731 215.934 164.296 210.041C164.862 204.148 166.514 170.634 168.623 169.094C170.732 167.555 202.921 173.727 205.813 167.233C208.169 161.932 190.614 150.809 187.517 144.774C192.97 143.263 199.691 138.038 203.068 131.089C206.445 124.139 219.744 94.8786 199.059 56.3474C178.37 17.8208 133.196 9.39832 100.898 16.3476C68.6007 23.2969 42.6344 36.5606 30.3945 80.3501C21.318 113.192 27.5448 131.056 56.0426 153.509V153.505Z" fill="#FFDD00"/>
<path d="M60.2319 52.0982C62.9155 53.273 65.1383 55.0068 67.2614 56.9348C69.356 58.9054 71.2273 61.0086 72.4765 63.6756C73.1177 65.092 72.486 66.7594 71.0611 67.3989C70.3439 67.7211 69.5602 67.7163 68.881 67.4558C66.1452 66.3568 63.9366 64.5993 61.8515 62.6192C59.8092 60.6107 57.9521 58.4838 56.6364 55.8784C55.4965 53.5809 57.9046 51.094 60.2319 52.0982Z" fill="#023064"/>
<path d="M121.654 45.0921C124.613 42.7804 130.588 38.1665 133.576 35.8927C135.556 34.391 140.653 30.5209 142.576 29.0713L144.077 27.9344C144.595 27.5791 145.018 27.096 145.721 26.987C148.224 26.6033 150.565 28.3181 150.95 30.8193C151.092 31.7383 150.95 32.6336 150.584 33.4152C150.285 34.0642 149.706 34.3342 149.221 34.7321L147.715 35.8595C141.194 40.7482 133.134 46.7406 126.523 51.5203C122.148 54.462 117.622 48.4933 121.659 45.0921H121.654Z" fill="#023064"/>
<path d="M63.4996 78.6258C72.8327 78.5595 85.804 89.8905 83.1299 105.362C81.2158 116.428 74.6851 126.835 59.4862 129.573C44.2873 132.311 37.9893 117.782 40.1029 108.1C42.2118 98.4172 48.2295 78.73 63.4996 78.6258Z" fill="#023064"/>
<path d="M188.577 102.098C187.118 81.2738 174.575 63.254 161.485 62.3066C159.637 62.1739 157.756 62.6524 155.833 63.5809C154.683 62.4819 153.505 61.4113 152.308 60.3596C148.376 56.949 144.338 53.6993 139.86 50.985C138.458 50.1513 136.62 50.1986 135.248 51.2503C133.448 52.6288 133.106 55.201 134.488 56.9963C136.093 59.0854 137.85 61.0039 139.651 62.8703C142.087 65.3194 144.576 67.7163 147.184 69.9712C144.414 72.5339 141.541 75.504 138.544 78.5168C129.197 87.9152 118.168 97.4603 121.022 114.31C123.378 128.204 135.153 131.098 146.737 130.677C146.262 131.018 145.782 131.359 145.303 131.69C143.83 132.666 142.325 133.595 140.695 134.343C140.254 134.547 139.869 134.888 139.608 135.343C138.952 136.498 139.361 137.967 140.52 138.621L141.014 138.9L151.206 144.651C148.513 147.436 145.934 150.321 143.365 153.22C141.669 155.167 139.988 157.128 138.34 159.113C137.551 160.132 135.276 162.571 134.863 163.756C133.091 167.574 136.668 171.87 140.786 170.785C142.23 170.392 143.218 169.53 144.068 168.431L146.352 165.309C147.867 163.22 149.354 161.112 150.826 158.99C153.895 154.461 156.968 149.933 159.642 145.144C160.378 143.566 159.694 141.69 158.112 140.956L147.079 135.831C147.331 135.636 147.578 135.442 147.834 135.253C150.803 133.102 153.909 131.146 157.205 129.549C159.594 129.156 161.827 128.711 163.774 128.308C176.579 125.674 189.987 122.202 188.577 102.098Z" fill="#023064"/>
<path d="M114.796 129.364C117.004 132.368 127.463 142.42 123.241 146.418C119.018 150.416 110.792 149.696 105.51 149.786C93.2656 149.994 88.421 146.082 90.5203 140.662C94.2488 131.046 97.6971 119.047 103.397 119.047C109.096 119.047 112.473 126.205 114.796 129.364Z" fill="#023064"/>
</g>
<defs>
<filter id="filter0_d_245_223" x="0" y="0" width="233.009" height="254.995" filterUnits="userSpaceOnUse" color-interpolation-filters="sRGB">
<feFlood flood-opacity="0" result="BackgroundImageFix"/>
<feColorMatrix in="SourceAlpha" type="matrix" values="0 0 0 0 0 0 0 0 0 0 0 0 0 0 0 0 0 0 127 0" result="hardAlpha"/>
<feOffset dx="-4" dy="4"/>
<feGaussianBlur stdDeviation="2"/>
<feComposite in2="hardAlpha" operator="out"/>
<feColorMatrix type="matrix" values="0 0 0 0 0 0 0 0 0 0 0 0 0 0 0 0 0 0 0.25 0"/>
<feBlend mode="normal" in2="BackgroundImageFix" result="effect1_dropShadow_245_223"/>
<feBlend mode="normal" in="SourceGraphic" in2="effect1_dropShadow_245_223" result="shape"/>
</filter>
</defs>
</svg>
