<svg width="233" height="226" viewBox="0 0 233 226" fill="none" xmlns="http://www.w3.org/2000/svg">
<g filter="url(#filter0_d_245_202)">
<path d="M107.294 217.347C100.69 217.347 94.0484 216.654 87.5591 215.283C73.0628 212.228 60.8185 206.801 50.1288 198.691C40.9896 191.759 34.5249 184.043 28.897 176.737C22.9656 169.038 17.1039 157.745 13.2152 146.535C9.89262 136.961 6.42646 122.92 8.76458 110.413C11.677 94.8376 17.3746 85.4113 21.8539 80.1239C16.7101 72.6911 11.6401 59.4787 11.2135 44.9988C10.7007 27.627 11.7877 17.2859 14.8396 10.4151C16.6485 6.35419 21.6776 0.631958 27.207 0.631958C29.2088 0.631958 31.309 1.40723 32.8841 3.05212C34.2706 3.49102 35.5176 4.32782 36.5143 5.50509C39.0288 8.48311 39.6688 13.3398 38.4751 20.346C37.5439 25.8057 45.8258 43.3785 59.7438 51.3773C66.996 46.7585 82.083 38.731 104.709 38.731C108.385 38.731 112.171 38.9484 115.961 39.375C147.493 42.9314 166.76 60.656 177.113 70.1807C177.642 70.6688 178.151 71.1365 178.635 71.5754C179.812 71.5672 181.486 71.3334 183.27 70.9314C188.225 69.2824 195.346 65.7834 201.585 58.4204C202.205 57.6902 202.746 56.9478 203.234 56.1561C204.227 53.699 204.662 50.7825 205.318 45.9873C205.843 42.1561 206.594 39.3832 207.681 37.2543C210.253 32.2089 214.396 31.6633 216.057 31.6633C220.171 31.6633 223.523 34.4772 225.684 36.5938C233.462 44.2071 234.34 48.1081 231.558 62.6864C228.843 76.9038 213.448 97.5654 198.907 111.09C203.009 120.475 207.976 137.067 201.159 152.569C200.97 152.991 200.781 153.414 200.589 153.832C200.162 155.419 199.67 157.023 199.12 158.598C190.633 182.993 172.17 194.281 161.136 201.025C159.799 201.845 158.531 202.617 157.436 203.322C152.317 206.612 133.571 217.351 107.306 217.351L107.294 217.347Z" fill="white"/>
<path d="M58.3861 59.7084C64.2191 55.6967 82.9364 41.8403 115.268 45.4869C147.6 49.1335 166.313 68.8229 175.55 77.0884C178.225 79.2747 194.875 75.7512 202.168 68.0928C209.461 60.4344 210.068 56.5458 211.406 46.8241C212.743 37.1025 215.659 35.4002 221.373 40.9911C227.087 46.5821 228.06 48.1614 225.504 61.5297C222.949 74.898 205.692 98.1151 188.919 111.602C190.133 116.705 202.045 131.415 193.296 156.572C184.546 181.729 164.307 191.574 154.097 198.137C143.887 204.7 119.095 215.64 88.8309 209.258C58.5666 202.875 44.1646 186.467 33.7744 172.98C23.3841 159.493 11.1684 131.054 14.8151 111.545C18.4617 92.036 26.6657 83.2865 30.3123 80.37C26.6657 78.1836 17.9162 63.4166 17.3665 44.8183C16.8168 26.22 18.2771 17.8356 20.4676 12.9132C22.658 7.99087 31.2229 1.42773 28.852 14.1889C26.4811 26.9501 37.6015 63.4125 45.6249 63.232C53.6484 63.0515 58.3861 59.7084 58.3861 59.7084Z" fill="#BF1718"/>
<path d="M170.476 78.1385C176.629 80.1074 193.894 77.0022 206.27 62.3993C215.384 51.6439 209.654 41.3603 214.716 40.946C221.037 40.4292 222.739 58.4491 214.958 71.8174C207.176 85.1857 195.449 98.0412 187.43 103.144C192.532 109.949 203.534 131.858 195.51 150.087C187.487 168.316 171.202 183.145 156.62 190.926C142.037 198.707 132.312 207.457 107.273 206.485C82.2348 205.513 59.6289 191.172 50.3913 181.934C41.1536 172.697 16.4229 138.999 19.524 115.573C22.539 92.7907 29.9758 84.7016 35.5668 81.055C30.706 77.6504 13.691 33.6527 26.3292 12.2651C31.19 5.45994 34.1065 9.3486 32.4042 19.3164C30.7019 29.2841 44.5583 54.8065 65.4619 60.3975C76.4018 57.239 85.3933 48.2434 118.697 52.6202C152.001 56.997 164.397 76.1983 170.472 78.1426L170.476 78.1385Z" fill="#FFED00"/>
<path d="M86.554 72.1086C88.5147 74.3483 103.692 93.529 105.698 96.0805C107.704 98.6319 104.697 99.6369 103.146 100.457C101.596 101.278 98.3143 102.918 96.6735 100.638C95.0327 98.357 79.355 77.8472 77.5297 75.5707C75.7043 73.2941 77.985 71.8338 80.6308 70.7385C83.2765 69.6433 84.0026 69.188 86.554 72.1045V72.1086Z" fill="#BF1718"/>
<path d="M131.126 104.375C130.695 106.385 134.806 106.442 138.69 104.284C158.38 93.3444 170.685 93.6193 169.59 89.6978C168.495 85.7763 151.542 93.4347 146.344 96.0805C141.147 98.7262 131.668 101.823 131.122 104.375H131.126Z" fill="#BF1718"/>
<path d="M140.425 124.216C137.476 127.797 134.166 133.634 135.745 134.91C137.324 136.185 140.667 133.814 140.667 133.814C140.667 133.814 142.915 136.793 147.169 136.973C151.423 137.153 159.142 131.14 159.323 128.342C159.503 125.545 155.311 121.537 155.311 121.537C155.311 121.537 156.222 119.531 158.412 120.385C160.603 121.238 162.362 126.037 165.825 125.43C169.287 124.823 172.511 121.968 171.781 118.44C171.05 114.913 166.797 110.967 159.992 113.698C153.186 116.43 142.977 121.111 140.425 124.212V124.216Z" fill="#BF1718"/>
<path d="M55.9249 98.8166C59.4321 97.4916 70.6304 93.1025 77.9237 95.4119C85.217 97.7213 93.1174 112.308 93.6629 118.141C94.2085 123.974 74.5191 124.827 71.9677 117.837C69.4162 110.848 73.7889 106.413 74.9457 105.56C73.4854 104.346 72.1523 97.9634 57.0201 102.098C54.8338 102.644 53.193 99.8503 55.9249 98.8166Z" fill="#BF1718"/>
<path d="M75.9711 139.085C78.3461 138.4 78.6251 138.593 78.6907 138.942C81.1067 143.737 84.6057 147.987 88.6872 151.469C97.6089 159.017 109.964 162.475 121.519 161.921C127.471 161.585 133.37 159.862 138.501 156.761C139.182 156.338 140.081 156.552 140.495 157.241C140.86 157.844 140.729 158.607 140.224 159.058C137.73 161.261 134.826 163.041 131.786 164.394C120.937 169.231 108.356 168.587 97.2644 164.85C86.2588 161.039 76.8694 152.831 71.5861 142.453C71.299 142.096 71.2415 141.571 73.3089 140.16C73.834 139.803 74.3959 139.541 74.9743 139.368L75.9711 139.081V139.085Z" fill="#BF1718"/>
</g>
<defs>
<filter id="filter0_d_245_202" x="0" y="0.631958" width="233" height="224.719" filterUnits="userSpaceOnUse" color-interpolation-filters="sRGB">
<feFlood flood-opacity="0" result="BackgroundImageFix"/>
<feColorMatrix in="SourceAlpha" type="matrix" values="0 0 0 0 0 0 0 0 0 0 0 0 0 0 0 0 0 0 127 0" result="hardAlpha"/>
<feOffset dx="-4" dy="4"/>
<feGaussianBlur stdDeviation="2"/>
<feComposite in2="hardAlpha" operator="out"/>
<feColorMatrix type="matrix" values="0 0 0 0 0 0 0 0 0 0 0 0 0 0 0 0 0 0 0.25 0"/>
<feBlend mode="normal" in2="BackgroundImageFix" result="effect1_dropShadow_245_202"/>
<feBlend mode="normal" in="SourceGraphic" in2="effect1_dropShadow_245_202" result="shape"/>
</filter>
</defs>
</svg>
