<svg width="233" height="216" viewBox="0 0 233 216" fill="none" xmlns="http://www.w3.org/2000/svg">
<g filter="url(#filter0_d_245_192)">
<path d="M103.781 207.853C91.4109 207.853 79.3605 205.735 67.9725 201.566C58.9649 198.268 49.9768 192.506 41.9744 184.902C34.198 177.512 27.3059 168.351 22.0502 158.404C11.4881 138.426 11.531 117.632 22.1749 96.5929C29.6124 81.8947 38.2771 70.569 47.5496 63.3307C44.3042 60.2651 41.2926 56.7839 39.3134 54.3711C37.833 52.5645 33.9447 47.6806 31.2136 43.0143C28.1942 43.838 25.3735 44.2538 22.7788 44.2538C18.0217 44.2538 14.1023 42.8667 11.1297 40.1314C9.0726 38.2315 7.95834 35.675 8.00119 32.9319C8.0908 27.1273 13.1556 21.9754 18.0958 17.7015L18.3022 17.5228C19.097 16.8312 19.5996 16.1979 20.5113 15.0478C21.7541 13.4782 23.4567 11.3257 26.78 8.01152C31.6578 3.14322 39.2667 0 46.1626 0C50.5885 0 54.4767 1.2977 57.4104 3.7571C61.1311 6.87313 62.9038 11.722 62.2687 17.0565C61.7934 21.0701 60.0091 24.9632 57.4299 27.9743C59.4792 30.4104 62.1752 33.4914 64.5401 36.1878C69.0829 41.3747 72.6321 45.4543 75.0321 48.4849C82.0332 46.7404 89.685 45.8584 97.8393 45.8584C108.557 45.8584 119.957 47.4242 129.946 50.2721C142.028 53.7145 158.111 63.6881 164.777 68.0319C172.152 63.8241 184.95 56.3099 191.546 51.597C191.46 43.2552 195.481 36.8017 202.903 33.6041C205.194 32.6172 207.73 32.116 210.446 32.116C219.707 32.116 230.463 38.3364 232.435 48.753C234.585 60.1136 229.961 73.856 218.74 76.2532C217.829 76.4475 216.909 76.5446 216.009 76.5446C211.611 76.5446 207.637 74.2523 204.668 70.0523L204.648 70.0406C200.273 72.3796 194.11 75.6588 188.348 78.6621C185.578 80.4299 183.139 81.9802 180.996 83.3284C191.207 97.3622 194.616 109.018 194.616 127.881C194.616 147.832 192.173 160.223 186.45 169.314C180.984 177.998 154.519 198.275 131.197 204.321C122.162 206.664 112.94 207.849 103.781 207.849V207.853Z" fill="white"/>
</g>
<path d="M72.7118 55.2171C69.367 49.8082 52.0587 31.5154 49.4069 27.1432C55.8669 23.9203 59.4454 13.1062 53.6746 8.27575C47.9039 3.44532 36.5999 6.55171 30.946 12.1859C25.2921 17.8201 24.8326 19.6645 22.177 21.9672C19.5213 24.2698 10.6394 31.7484 15.1407 35.8877C19.642 40.0269 27.6012 38.532 34.2947 35.8877C36.0236 41.9839 50.3337 60.0476 57.5997 63.7287C47.4483 69.1377 36.7752 80.7555 27.4298 99.223C18.0845 117.69 17.2201 136.671 27.2585 155.654C37.2969 174.638 53.0438 189.825 70.0056 196.037C86.9673 202.25 107.733 204.32 129.711 198.627C151.688 192.935 176.784 173.605 181.456 166.181C186.129 158.757 188.726 147.888 188.726 127.868C188.726 107.847 184.918 96.9748 171.422 80.5808C177.306 78.1656 207.074 62.1133 207.074 62.1133C207.074 62.1133 210.189 72.1237 217.459 70.5705C224.729 69.0173 228.362 59.0069 226.633 49.8625C224.904 40.7181 212.787 35.7129 205.174 38.9902C197.562 42.2674 196.868 49.3461 197.558 54.3512C189.77 60.7349 164.502 74.8883 164.502 74.8883C164.502 74.8883 142.868 60.0476 128.332 55.9044C113.796 51.7613 91.7023 49.3461 72.7235 55.2133L72.7118 55.2171Z" fill="#702283"/>
<path d="M45.6869 26.7199C50.3582 23.6107 56.3258 17.9986 53.9045 12.1222C51.4832 6.24587 40.9299 11.1739 35.737 15.4024C30.544 19.6309 19.0409 27.2329 23.8874 32.503C28.7339 37.773 39.1977 30.9484 39.1977 30.9484C39.1977 30.9484 45.8582 48.8262 61.7757 62.3007C54.3366 66.7041 39.5441 86.1948 35.9667 97.7104C32.3892 109.226 31.4121 124.139 33.8918 138.359C35.0246 144.857 39.0809 158.627 48.9996 170.026C55.6368 177.652 73.9133 194.9 103.327 197.547C132.741 200.193 152.691 184.647 167.11 169.335C181.529 154.018 184.41 125.343 182.911 116.132C181.412 106.921 177.835 96.7855 166.993 84.9239C172.299 82.2772 201.826 62.9303 203.788 61.776C206.439 65.4604 222.243 74.2127 222.936 53.9447C223.053 40.4703 204.714 42.3125 204.368 56.8246C182.685 70.8743 159.729 81.6981 159.729 81.6981C155.922 77.2053 143.006 65.577 124.667 60.3963C106.328 55.2156 81.0682 56.1367 72.765 59.5918C69.3043 56.9451 62.2701 48.7679 58.3462 43.354C54.4223 37.9402 45.6869 26.716 45.6869 26.716V26.7199Z" fill="#FFDD00"/>
<path d="M119.623 167.7C118.984 166.366 117.405 165.812 116.096 166.466C112.674 168.21 109.272 169.991 105.881 171.799C103.703 172.958 101.536 174.141 99.3805 175.34L101.945 166.151C102.066 165.717 102.027 165.231 101.801 164.805C101.337 163.936 100.273 163.614 99.4234 164.084L85.9387 171.564C87.4665 168.242 89.2047 164.474 89.2047 164.474C89.8555 163.056 88.5304 161.551 87.0689 162.009C82.0999 163.068 77.0958 164.566 72.2553 166.099C71.4408 166.358 70.6341 166.625 69.8234 166.896C68.8764 167.191 68.0852 167.41 67.6721 168.557C66.9277 170.297 68.4126 172.548 70.2404 172.349C71.3745 172.098 72.7386 171.516 73.8844 171.146C76.9983 170.038 80.3968 168.76 83.46 167.493C83.6588 167.41 83.8576 167.326 84.0524 167.242C82.4623 170.7 80.4864 174.985 80.4864 174.985C79.7615 176.511 81.4451 178.16 82.9105 177.323L97.4279 169.27L94.8479 178.502C94.7466 178.869 94.7544 179.271 94.9025 179.65C95.2727 180.617 96.3718 181.048 97.2876 180.613C99.0687 179.897 100.842 179.156 102.607 178.403C105.905 176.989 109.186 175.535 112.452 174.057C111.54 176.507 110.632 178.972 109.771 181.346C109.439 182.231 109.139 182.689 110.043 183.629C110.87 184.489 112.066 184.991 113.333 184.871C114.101 184.8 114.432 184.561 114.627 184.27C115.305 182.541 116.384 179.327 117.039 177.554C117.959 174.997 118.82 172.416 119.713 169.847C119.962 169.17 119.95 168.401 119.615 167.704L119.623 167.7Z" fill="#702283"/>
<path d="M166.948 104.113C166.164 101.745 163.6 98.812 160.259 95.9414C161.588 94.9599 163.233 93.9978 165.187 93.2072C165.681 93.0085 165.925 92.4399 165.724 91.9413C165.527 91.4428 164.963 91.1974 164.469 91.3999C162.26 92.2918 160.317 93.4487 158.73 94.6756C157.027 93.3123 155.173 91.988 153.289 90.7689C154.606 89.2187 156.147 87.8789 157.479 87.3141C157.969 87.1038 158.201 86.5351 157.993 86.0404C157.784 85.5458 157.22 85.3121 156.73 85.5224C155.031 86.243 153.161 87.8594 151.625 89.7251C149.62 88.5098 147.616 87.4348 145.735 86.5896C146.913 84.7668 148.454 82.9556 150.219 81.8884C150.675 81.6119 150.825 81.012 150.551 80.5524C150.277 80.0928 149.682 79.9409 149.226 80.2175C147.145 81.4755 145.299 83.6372 143.916 85.8262C142.669 85.3432 141.507 84.981 140.472 84.7746C139.95 84.6694 139.441 85.0122 139.336 85.538C139.232 86.0638 139.572 86.5779 140.093 86.6831C140.939 86.8545 141.901 87.1505 142.932 87.54C141.951 89.4252 141.379 91.1506 141.379 92.1322C141.379 92.6697 141.812 93.1059 142.345 93.1059C142.878 93.1059 143.31 92.6697 143.31 92.1322C143.31 91.509 143.832 90.0016 144.739 88.2917C146.539 89.098 148.481 90.134 150.439 91.3142C149.342 92.9462 148.57 94.6327 148.419 96.0076C148.361 96.5413 148.744 97.0242 149.273 97.0827C149.307 97.0866 149.346 97.0904 149.381 97.0904C149.867 97.0904 150.284 96.7204 150.339 96.2258C150.458 95.143 151.138 93.7369 152.088 92.3464C153.857 93.4837 155.602 94.7145 157.212 95.9726C155.872 97.2346 154.93 98.4965 154.494 99.5521C154.289 100.047 154.521 100.619 155.015 100.826C155.135 100.876 155.262 100.9 155.386 100.9C155.764 100.9 156.123 100.674 156.278 100.3C156.591 99.5443 157.417 98.4108 158.734 97.2034C161.947 99.9026 164.418 102.625 165.114 104.732C165.249 105.141 165.623 105.398 166.029 105.398C166.129 105.398 166.234 105.383 166.334 105.348C166.84 105.176 167.114 104.627 166.944 104.117L166.948 104.113Z" fill="#702283"/>
<path d="M161.791 116.224C147.003 109.211 131.704 103.47 116.171 98.4048C110.376 96.5079 104.456 94.7284 98.6095 92.9801C92.7477 91.2123 86.6991 89.4797 80.6543 88.4823C76.3933 87.7471 71.739 87.0196 67.7156 89.0925C65.628 90.1367 65.332 93.2304 67.2093 94.6423C68.5452 95.7453 70.0097 96.5001 71.5443 97.0672C70.5861 98.4322 69.5306 99.7464 68.5219 101.115C64.4829 106.677 60.296 112.094 59.3612 119.521C57.9396 132.611 68.4557 140.602 79.2638 144.802C82.2745 146.019 85.3164 147.04 88.3894 147.99C100.865 151.932 113.893 155.003 127.065 153.106C141.472 151.264 153.959 142.127 159.809 128.728C160.533 127.148 161.149 125.532 161.702 123.909C161.99 123.033 162.056 122.227 161.916 121.453C162.45 121.168 162.901 120.718 163.178 120.127C163.871 118.664 163.248 116.912 161.791 116.216V116.224ZM117.009 142.303C108.635 142.483 99.996 139.941 92.0311 137.094C86.8665 135.193 81.5345 132.811 77.1762 129.752C73.4216 127.065 71.073 124.457 70.7108 120.014C70.2239 113.592 72.6465 106.071 75.8364 100.239C76.1869 99.6329 76.5686 99.0424 76.9815 98.4752C77.0671 98.4909 77.1528 98.5104 77.2385 98.5261C84.1908 100.118 92.183 101.561 99.1353 103.09C101.92 103.74 104.693 104.42 107.466 105.124C104.257 109.372 97.2618 121.809 106.091 125.051C113.698 127.844 125.873 115.246 129.468 111.272C131.918 112.016 134.364 112.774 136.798 113.553C141.382 115.035 145.947 116.572 150.473 118.203C150.142 118.535 149.877 118.919 149.729 119.361C143.762 133.425 132.533 142.237 117.005 142.303H117.009Z" fill="#702283"/>
<defs>
<filter id="filter0_d_245_192" x="0" y="0" width="232.948" height="215.853" filterUnits="userSpaceOnUse" color-interpolation-filters="sRGB">
<feFlood flood-opacity="0" result="BackgroundImageFix"/>
<feColorMatrix in="SourceAlpha" type="matrix" values="0 0 0 0 0 0 0 0 0 0 0 0 0 0 0 0 0 0 127 0" result="hardAlpha"/>
<feOffset dx="-4" dy="4"/>
<feGaussianBlur stdDeviation="2"/>
<feComposite in2="hardAlpha" operator="out"/>
<feColorMatrix type="matrix" values="0 0 0 0 0 0 0 0 0 0 0 0 0 0 0 0 0 0 0.25 0"/>
<feBlend mode="normal" in2="BackgroundImageFix" result="effect1_dropShadow_245_192"/>
<feBlend mode="normal" in="SourceGraphic" in2="effect1_dropShadow_245_192" result="shape"/>
</filter>
</defs>
</svg>
