<?xml version="1.0" encoding="UTF-8"?>
<svg xmlns="http://www.w3.org/2000/svg" version="1.1" viewBox="0 0 30 30">
  <defs>
    <style>
      .cls-1 {
        fill: #fff;
      }
    </style>
  </defs>
  <!-- Generator: Adobe Illustrator 28.6.0, SVG Export Plug-In . SVG Version: 1.2.0 Build 709)  -->
  <g>
    <g id="Capa_1">
      <g id="Capa_1-2" data-name="Capa_1">
        <g>
          <path class="cls-1" d="M11.5,22.9c.7-.1,1.4-.4,1.9-.8.5-.4.9-.8,1.2-1.3.5-.8.7-1.7.7-2.6s-.2-1.8-.6-2.4-1.1-1.2-1.9-1.5c.6-.3,1-.6,1.3-1,.5-.6.8-1.4.8-2.4s-.2-1.8-.8-2.5c-.8-1.1-2.3-1.7-4.3-1.8H1.6v16.6h7.5c.8,0,1.6,0,2.4-.2h0ZM4.9,9.4h3.6c.8,0,1.5,0,2,.3.6.2.9.8.9,1.5s-.2,1.2-.7,1.5-1,.4-1.8.4h-4v-3.7h0ZM4.9,20.2v-4.4h4.1c.7,0,1.3.1,1.7.3.7.3,1.1.9,1.1,1.8s-.4,1.7-1.1,2.1c-.4.2-1,.3-1.7.3h-4Z"/>
          <g>
            <path class="cls-1" d="M18.1,22c1.2,1,2.7,1.5,4.3,1.5s3.5-.6,4.6-1.8c.7-.8,1.1-1.5,1.2-2.2h-3.3c-.2.4-.4.6-.7.8-.5.4-1,.6-1.8.6s-1.3-.1-1.8-.5c-.8-.5-1.2-1.4-1.3-2.6h8.9c0-1.1,0-1.9-.1-2.4-.2-1-.5-1.8-1-2.5-.6-.8-1.3-1.4-2.1-1.8-.9-.4-1.8-.6-2.9-.6-1.8,0-3.3.6-4.4,1.7-1.1,1.1-1.7,2.8-1.7,4.9s.6,3.9,1.9,4.9h0ZM20.3,13.8c.5-.5,1.1-.7,1.9-.7s1.4.2,1.9.7c.5.4.8,1.1.9,1.9h-5.5c.1-.8.4-1.4.9-1.9h0Z"/>
            <rect class="cls-1" x="18.4" y="7.4" width="7.2" height="1.7"/>
          </g>
        </g>
      </g>
    </g>
  </g>
</svg>