<?xml version="1.0" encoding="UTF-8"?>
<svg id="Capa_1" xmlns="http://www.w3.org/2000/svg" version="1.1" viewBox="0 0 75 45">
  <!-- Generator: Adobe Illustrator 29.0.0, SVG Export Plug-In . SVG Version: 2.1.0 Build 186)  -->
  <defs>
    <style>
      .st0 {
        fill: #fff;
      }

      .st1 {
        fill: #fe5eee;
      }

      .st2 {
        fill: #0ec7d4;
      }
    </style>
  </defs>
  <path class="st1" d="M44.3,4.8h13.3l-5,19.9c-.4,1.8-.7,2.7-.7,2.7-.8,3.3-1.3,6-1.3,8.1s.4,2.4,1.3,3.3c.9.9,1.9,1.3,2.9,1.3,3.8,0,7.4-3,10.8-8.8,3.4-5.9,5.1-10.6,5.1-14.1s-.6-2.5-1.7-2.5c-1.9,0-3.3-.1-4.1-.4s-1.6-.9-2.3-1.9-1-2.2-1-3.3.5-2.5,1.6-3.7c1.1-1.1,2.5-1.7,4.3-1.7s4.1.9,5.3,2.6,1.9,3.7,1.9,5.9c0,6.8-2.4,14-7.1,21.5-4.7,7.5-10.5,11.3-17.5,11.3s-5.9-1.2-7.9-3.5c-1.9-2.3-2.9-5-2.9-7.9s.2-3.9.6-5.7l-.2-.2c-3.5,6.6-6.8,11.2-10,13.7-3.1,2.5-6.7,3.6-10.5,3.6s-5.2-.8-6.8-2.4c-1.6-1.6-2.4-3.3-2.4-5s.4-4.7,1.3-8.1l4.2-16.3c.3-1.3.5-2.3.5-2.9,0-1-.4-1.4-1.3-1.4-2.1,0-4.8,3.4-8,10.2l-2.7-1.2C8.2,8.5,13.8,3.9,20.6,3.9s4.8.7,6.5,2c1.6,1.3,2.4,2.9,2.4,4.6s-.4,3.7-1.3,7.1l-4.4,16.7c-.5,2.1-.7,3.3-.7,3.6,0,1.2.7,1.9,2.2,1.9,2.8,0,6.2-3.3,10-10,3.9-6.7,6.8-15,9-25h0Z"/>
  <path class="st2" d="M40.5,1h13.3l-5,19.9c-.4,1.8-.7,2.7-.7,2.7-.8,3.3-1.3,6-1.3,8.1s.4,2.4,1.3,3.3c.9.9,1.9,1.3,2.9,1.3,3.8,0,7.4-3,10.8-8.8,3.4-5.9,5.1-10.6,5.1-14.1s-.6-2.5-1.7-2.5c-1.9,0-3.3-.1-4.1-.4s-1.6-.9-2.3-1.9-1-2.2-1-3.3.5-2.5,1.6-3.7c1.1-1.1,2.5-1.7,4.3-1.7s4.1.9,5.3,2.6,1.9,3.7,1.9,5.9c0,6.8-2.4,14-7.1,21.5-4.7,7.5-10.5,11.3-17.5,11.3s-5.9-1.2-7.9-3.5c-1.9-2.3-2.9-5-2.9-7.9s.2-3.9.6-5.7l-.2-.2c-3.5,6.6-6.8,11.2-10,13.7-3.1,2.5-6.7,3.6-10.5,3.6s-5.2-.8-6.8-2.4c-1.6-1.6-2.4-3.3-2.4-5s.4-4.7,1.3-8.1l4.2-16.3c.3-1.3.5-2.3.5-2.9,0-1-.4-1.4-1.3-1.4-2.1,0-4.8,3.4-8,10.2l-2.7-1.2C4.5,4.8,10.1.1,17,.1s4.8.7,6.5,2c1.6,1.3,2.4,2.9,2.4,4.6s-.4,3.7-1.3,7.1l-4.4,16.7c-.5,2.1-.7,3.3-.7,3.6,0,1.2.7,1.9,2.2,1.9,2.8,0,6.2-3.3,10-10,3.9-6.7,6.8-15,9-25h-.1Z"/>
  <path class="st0" d="M42.4,2.9h13.3l-5,19.9c-.4,1.8-.7,2.7-.7,2.7-.8,3.3-1.3,6-1.3,8.1s.4,2.4,1.3,3.3c.9.9,1.9,1.3,2.9,1.3,3.8,0,7.4-3,10.8-8.8,3.4-5.9,5.1-10.6,5.1-14.1s-.6-2.5-1.7-2.5c-1.9,0-3.3-.1-4.1-.4s-1.6-.9-2.3-1.9c-.7-1-1-2.2-1-3.3s.5-2.5,1.6-3.7c1.1-1.1,2.5-1.7,4.3-1.7s4.1.9,5.3,2.6c1.3,1.7,1.9,3.7,1.9,5.9,0,6.8-2.4,14-7.1,21.5-4.7,7.5-10.5,11.3-17.5,11.3s-5.9-1.2-7.9-3.5c-1.9-2.3-2.9-5-2.9-7.9s.2-3.9.6-5.7l-.2-.2c-3.5,6.6-6.8,11.2-10,13.7-3.1,2.5-6.7,3.6-10.5,3.6s-5.2-.8-6.8-2.4c-1.6-1.6-2.4-3.3-2.4-5s.4-4.7,1.3-8.1l4.2-16.3c.3-1.3.5-2.3.5-2.9,0-1-.4-1.4-1.3-1.4-2.1,0-4.8,3.4-8,10.2l-2.7-1.2C6.4,6.7,12,2,18.8,2s4.8.7,6.5,2c1.6,1.3,2.4,2.9,2.4,4.6s-.4,3.7-1.3,7.1l-4.4,16.7c-.5,2.1-.7,3.3-.7,3.6,0,1.2.7,1.9,2.2,1.9,2.8,0,6.2-3.3,10-10,3.9-6.7,6.8-15,9-25h0Z"/>
</svg>