<?xml version="1.0" encoding="UTF-8"?>
<svg id="Capa_1" xmlns="http://www.w3.org/2000/svg" version="1.1" viewBox="0 0 100 61">
  <!-- Generator: Adobe Illustrator 29.0.0, SVG Export Plug-In . SVG Version: 2.1.0 Build 186)  -->
  <defs>
    <style>
      .st0 {
        fill: #fff;
      }

      .st1 {
        fill: #fe5eee;
      }

      .st2 {
        fill: #0ec7d4;
      }
    </style>
  </defs>
  <path class="st1" d="M59,6.4h17.9l-6.8,26.8c-.6,2.4-.9,3.6-.9,3.7-1.1,4.4-1.7,8.1-1.7,10.9s.6,3.2,1.8,4.4c1.2,1.2,2.5,1.8,3.9,1.8,5.1,0,9.9-4,14.5-11.9,4.6-7.9,6.9-14.3,6.9-19s-.8-3.3-2.3-3.3c-2.5,0-4.4-.2-5.5-.5-1.1-.3-2.2-1.2-3.1-2.6-.9-1.4-1.4-2.9-1.4-4.4s.7-3.4,2.2-5c1.5-1.5,3.4-2.3,5.8-2.3s5.5,1.2,7.2,3.5c1.7,2.3,2.5,5,2.5,8,0,9.2-3.2,18.8-9.5,28.9-6.3,10.1-14.2,15.2-23.6,15.2s-8-1.6-10.6-4.7c-2.6-3.1-3.9-6.7-3.9-10.6s.3-5.3.8-7.7l-.3-.3c-4.7,8.9-9.2,15.1-13.4,18.4-4.2,3.3-9,4.9-14.2,4.9s-7-1.1-9.1-3.2c-2.1-2.1-3.2-4.4-3.2-6.8s.6-6.3,1.8-10.9l5.6-22c.4-1.8.7-3.1.7-3.9,0-1.3-.6-1.9-1.8-1.9-2.8,0-6.4,4.6-10.8,13.8l-3.7-1.6C10.5,11.5,18,5.2,27.2,5.2s6.5.9,8.7,2.7c2.1,1.8,3.2,3.9,3.2,6.2s-.6,5-1.7,9.6l-5.9,22.5c-.7,2.8-1,4.4-1,4.9,0,1.6,1,2.5,3,2.5,3.8,0,8.3-4.5,13.5-13.4,5.2-9,9.2-20.2,12.1-33.7h0Z"/>
  <path class="st2" d="M54,1.4h17.9l-6.8,26.8c-.6,2.4-.9,3.6-.9,3.7-1.1,4.4-1.7,8.1-1.7,10.9s.6,3.2,1.8,4.4c1.2,1.2,2.5,1.8,3.9,1.8,5.1,0,9.9-4,14.5-11.9,4.6-7.9,6.9-14.3,6.9-19s-.8-3.3-2.3-3.3c-2.5,0-4.4-.2-5.5-.5-1.1-.3-2.2-1.2-3.1-2.6-.9-1.4-1.4-2.9-1.4-4.4s.7-3.4,2.2-5c1.5-1.5,3.4-2.3,5.8-2.3s5.5,1.2,7.2,3.5c1.7,2.3,2.5,5,2.5,8,0,9.2-3.2,18.8-9.5,28.9-6.3,10.1-14.2,15.2-23.6,15.2s-8-1.6-10.6-4.7c-2.6-3.1-3.9-6.7-3.9-10.6s.3-5.3.8-7.7l-.3-.3c-4.7,8.9-9.2,15.1-13.4,18.4-4.2,3.3-9,4.9-14.2,4.9s-7-1.1-9.1-3.2c-2.1-2.1-3.2-4.4-3.2-6.8s.6-6.3,1.8-10.9l5.6-22c.4-1.8.7-3.1.7-3.9,0-1.3-.6-1.9-1.8-1.9-2.8,0-6.4,4.6-10.8,13.8l-3.7-1.6C5.5,6.5,13,.2,22.3.2s6.5.9,8.7,2.7c2.1,1.8,3.2,3.9,3.2,6.2s-.6,5-1.7,9.6l-5.9,22.5c-.7,2.8-1,4.4-1,4.9,0,1.6,1,2.5,3,2.5,3.8,0,8.3-4.5,13.5-13.4,5.2-9,9.2-20.2,12.1-33.7h0Z"/>
  <path class="st0" d="M56.5,3.9h17.9l-6.8,26.8c-.6,2.4-.9,3.6-.9,3.7-1.1,4.4-1.7,8.1-1.7,10.9s.6,3.2,1.8,4.4c1.2,1.2,2.5,1.8,3.9,1.8,5.1,0,9.9-4,14.5-11.9,4.6-7.9,6.9-14.3,6.9-19s-.8-3.3-2.3-3.3c-2.5,0-4.4-.2-5.5-.5-1.1-.3-2.2-1.2-3.1-2.6-.9-1.4-1.4-2.9-1.4-4.4s.7-3.4,2.2-5c1.5-1.5,3.4-2.3,5.8-2.3s5.5,1.2,7.2,3.5c1.7,2.3,2.5,5,2.5,8,0,9.2-3.2,18.8-9.5,28.9-6.3,10.1-14.2,15.2-23.6,15.2s-8-1.6-10.6-4.7c-2.6-3.1-3.9-6.7-3.9-10.6s.3-5.3.8-7.7l-.3-.3c-4.7,8.9-9.2,15.1-13.4,18.4-4.2,3.3-9,4.9-14.2,4.9s-7-1.1-9.1-3.2c-2.1-2.1-3.2-4.4-3.2-6.8s.6-6.3,1.8-10.9l5.6-22c.4-1.8.7-3.1.7-3.9,0-1.3-.6-1.9-1.8-1.9-2.8,0-6.4,4.6-10.8,13.8l-3.7-1.6C8,9,15.5,2.7,24.7,2.7s6.5.9,8.7,2.7c2.1,1.8,3.2,3.9,3.2,6.2s-.6,5-1.7,9.6l-5.9,22.5c-.7,2.8-1,4.4-1,4.9,0,1.6,1,2.5,3,2.5,3.8,0,8.3-4.5,13.5-13.4,5.2-9,9.2-20.2,12.1-33.7h0Z"/>
</svg>