<?xml version="1.0" encoding="UTF-8"?>
<svg xmlns="http://www.w3.org/2000/svg" version="1.1" viewBox="0 0 30 30">
  <defs>
    <style>
      .cls-1 {
        fill: #fff;
      }
    </style>
  </defs>
  <!-- Generator: Adobe Illustrator 28.6.0, SVG Export Plug-In . SVG Version: 1.2.0 Build 709)  -->
  <g>
    <g id="Capa_1">
      <g id="Capa_1-2" data-name="Capa_1">
        <g>
          <path class="cls-1" d="M15,4.3c3.5,0,3.9,0,5.2,0,1.3,0,2,.3,2.4.4.6.2,1,.5,1.5,1,.5.5.7.9,1,1.5.2.5.4,1.1.5,2.4,0,1.4,0,1.8,0,5.2s0,3.9,0,5.2c0,1.3-.3,2-.5,2.4-.2.6-.5,1-1,1.5-.5.5-.9.7-1.5,1-.5.2-1.1.4-2.4.5-1.4,0-1.8,0-5.2,0s-3.9,0-5.2,0c-1.3,0-2-.3-2.4-.5-.6-.2-1-.5-1.5-1-.4-.5-.7-.9-1-1.5-.2-.5-.4-1.1-.4-2.4,0-1.4,0-1.8,0-5.2s0-3.9,0-5.2c0-1.3.3-2,.4-2.4.2-.6.5-1,1-1.5.5-.5.9-.7,1.5-1,.5-.2,1.1-.4,2.4-.4,1.4,0,1.8,0,5.2,0M15,2c-3.5,0-4,0-5.4,0-1.4,0-2.3.3-3.2.6-.9.3-1.6.8-2.3,1.5s-1.2,1.4-1.5,2.3c-.3.8-.5,1.8-.6,3.2s0,1.8,0,5.4,0,4,0,5.4c0,1.4.3,2.3.6,3.2.3.9.8,1.6,1.5,2.3.7.7,1.4,1.2,2.3,1.5.8.3,1.8.5,3.2.6,1.4,0,1.8,0,5.4,0s4,0,5.4,0c1.4,0,2.3-.3,3.2-.6.9-.3,1.6-.8,2.3-1.5.7-.7,1.2-1.5,1.5-2.3.3-.8.5-1.8.6-3.2,0-1.4,0-1.8,0-5.4s0-4,0-5.4c0-1.4-.3-2.3-.6-3.2-.3-.9-.8-1.6-1.5-2.3s-1.5-1.2-2.3-1.5c-.8-.3-1.8-.5-3.2-.6s-1.8,0-5.4,0"/>
          <path class="cls-1" d="M15,8.3c-3.7,0-6.7,3-6.7,6.7s3,6.7,6.7,6.7,6.7-3,6.7-6.7-3-6.7-6.7-6.7M15,19.3c-2.4,0-4.3-1.9-4.3-4.3s1.9-4.3,4.3-4.3,4.3,1.9,4.3,4.3-1.9,4.3-4.3,4.3"/>
          <path class="cls-1" d="M23.5,8.1c0,.9-.7,1.6-1.6,1.6s-1.6-.7-1.6-1.6.7-1.6,1.6-1.6,1.6.7,1.6,1.6"/>
        </g>
      </g>
    </g>
  </g>
</svg>