<?xml version="1.0" encoding="UTF-8"?>
<svg xmlns="http://www.w3.org/2000/svg" version="1.1" viewBox="0 0 44.67 42.67">
  <defs>
    <style>
      .cls-1, .cls-2, .cls-3 {
        fill-rule: evenodd;
      }

      .cls-1, .cls-4 {
        fill: #222221;
      }

      .cls-2, .cls-5, .cls-3 {
        fill: #fff;
      }

      .cls-2, .cls-6 {
        stroke: #222221;
        stroke-miterlimit: 10;
      }

      .cls-6 {
        fill: none;
        stroke-width: 1.5px;
      }
    </style>
  </defs>
  <!-- Generator: Adobe Illustrator 28.6.0, SVG Export Plug-In . SVG Version: 1.2.0 Build 709)  -->
  <g>
    <g id="Capa_1">
      <g>
        <path class="cls-4" d="M340.71,68.08h0c-10.51,0-19.03-8.52-19.03-19.03h0c0-10.51,8.52-19.03,19.03-19.03h0c10.51,0,19.03,8.52,19.03,19.03h0c0,10.51-8.52,19.03-19.03,19.03Z"/>
        <path class="cls-5" d="M330.1,49.06c0,5.85,4.75,10.6,10.6,10.6.68,0,1.34-.07,1.99-.19.93.56,2.03.89,3.19.89,3.42,0,6.19-2.77,6.19-6.19,0-1.2-.34-2.32-.93-3.26.1-.6.16-1.22.16-1.85,0-5.85-4.75-10.6-10.6-10.6-.67,0-1.32.06-1.95.18-.94-.57-2.04-.9-3.21-.9-3.42,0-6.19,2.77-6.19,6.19,0,1.19.34,2.3.92,3.25-.11.61-.17,1.24-.17,1.88ZM340.82,41.53c3.42.2,5.42,1.7,5.62,3.11.1.92-.51,1.63-1.57,1.63-1.55,0-1.7-2.06-4.37-2.06-1.2,0-2.21.5-2.21,1.58,0,2.26,8.53.95,8.53,5.93,0,2.87-2.3,4.76-5.73,4.76-3.02,0-6.05-1.37-6.04-3.72,0-.71.54-1.36,1.24-1.36,1.78,0,1.76,2.64,4.59,2.64,1.99,0,2.66-1.08,2.66-1.84,0-2.73-8.58-1.05-8.58-6.18,0-2.78,2.28-4.69,5.86-4.48Z"/>
      </g>
      <g>
        <path class="cls-4" d="M340.71,122.01h0c-10.51,0-19.03-8.52-19.03-19.03h0c0-10.51,8.52-19.03,19.03-19.03h0c10.51,0,19.03,8.52,19.03,19.03h0c0,10.51-8.52,19.03-19.03,19.03Z"/>
        <g>
          <path class="cls-5" d="M329.03,96.8l5.85,3.72,5.85-3.72-5.85-3.72-5.85,3.72Z"/>
          <path class="cls-5" d="M340.71,96.8l5.85,3.72,5.85-3.72-5.85-3.72-5.85,3.72Z"/>
          <path class="cls-5" d="M329.03,104.2l5.85,3.72,5.85-3.72-5.85-3.72-5.85,3.72Z"/>
          <path class="cls-5" d="M346.55,100.47l-5.85,3.72,5.85,3.72,5.85-3.72-5.85-3.72Z"/>
          <path class="cls-5" d="M334.91,109.15l5.85,3.72,5.85-3.72-5.85-3.72-5.85,3.72Z"/>
        </g>
      </g>
      <g>
        <rect class="cls-4" x="265.95" y="30.02" width="38.06" height="38.06" rx="19.03" ry="19.03"/>
        <g>
          <path class="cls-3" d="M295.41,48.52c-.14-5.5-4.67-9.91-10.24-9.91s-10,4.31-10.24,9.73c0,.15,0,.3,0,.45,0,1.92.54,3.72,1.47,5.25l-1.85,5.46,5.68-1.8c1.47.81,3.16,1.27,4.95,1.27,5.66,0,10.25-4.55,10.25-10.17,0-.09,0-.17,0-.26ZM285.17,57.33c-1.75,0-3.38-.52-4.74-1.42l-3.31,1.06,1.07-3.18c-1.03-1.41-1.64-3.14-1.64-5.01,0-.28.01-.56.04-.83.42-4.33,4.11-7.72,8.57-7.72s8.24,3.48,8.59,7.88c.02.22.03.44.03.67,0,4.72-3.87,8.55-8.62,8.55Z"/>
          <path class="cls-3" d="M289.86,50.84c-.25-.12-1.49-.73-1.72-.81-.23-.09-.4-.12-.57.12-.17.25-.65.81-.8.97-.15.17-.29.19-.55.06-.25-.12-1.06-.38-2.02-1.24-.74-.66-1.25-1.47-1.4-1.72-.14-.25-.01-.38.11-.51.12-.11.25-.29.38-.44.03-.04.06-.08.09-.12.06-.09.1-.18.16-.3.09-.17.04-.31-.02-.44s-.57-1.35-.78-1.85c-.21-.5-.42-.41-.57-.41s-.31-.02-.48-.02-.44.06-.67.31c-.23.25-.88.85-.88,2.08,0,.29.05.58.13.85.25.88.8,1.6.9,1.73.12.16,1.74,2.76,4.29,3.77,2.56.99,2.56.66,3.02.62.46-.04,1.49-.6,1.69-1.19.21-.58.21-1.08.15-1.19-.06-.1-.23-.16-.48-.29Z"/>
        </g>
      </g>
      <g>
        <rect class="cls-4" x="265.95" y="83.95" width="38.06" height="38.06" rx="19.03" ry="19.03"/>
        <g>
          <path class="cls-5" d="M299.57,95.6c-.35-1.32-1.38-2.36-2.69-2.71-2.38-.64-11.9-.64-11.9-.64,0,0-9.53,0-11.9.64-1.31.35-2.34,1.39-2.69,2.71-.64,2.39-.64,7.38-.64,7.38,0,0,0,4.99.64,7.38.35,1.32,1.38,2.36,2.69,2.71,2.38.64,11.9.64,11.9.64,0,0,9.53,0,11.9-.64,1.31-.35,2.34-1.39,2.69-2.71.64-2.39.64-7.38.64-7.38,0,0,0-4.99-.64-7.38Z"/>
          <polygon class="cls-4" points="281.86 107.51 281.86 98.45 289.82 102.98 281.86 107.51"/>
        </g>
      </g>
      <g>
        <path class="cls-4" d="M229.58-39.77h0c-10.51,0-19.03-8.52-19.03-19.03h0c0-10.51,8.52-19.03,19.03-19.03h0c10.51,0,19.03,8.52,19.03,19.03h0c0,10.51-8.52,19.03-19.03,19.03Z"/>
        <path class="cls-5" d="M219.44-52.43c1.84,1.18,4.03,1.87,6.38,1.87,7.72,0,12.09-6.52,11.83-12.38.81-.59,1.52-1.32,2.08-2.15-.75.33-1.55.55-2.39.65.86-.51,1.52-1.33,1.83-2.3-.8.48-1.69.82-2.64,1.01-.76-.81-1.84-1.31-3.04-1.31-2.69,0-4.66,2.51-4.05,5.11-3.46-.17-6.52-1.83-8.57-4.35-1.09,1.87-.57,4.32,1.29,5.56-.68-.02-1.32-.21-1.89-.52-.04,1.93,1.34,3.73,3.34,4.13-.59.16-1.23.2-1.88.07.53,1.65,2.07,2.86,3.89,2.89-1.75,1.37-3.95,1.98-6.16,1.72Z"/>
      </g>
      <g>
        <path class="cls-4" d="M285.32-39.77h0c-10.51,0-19.03-8.52-19.03-19.03h0c0-10.51,8.52-19.03,19.03-19.03h0c10.51,0,19.03,8.52,19.03,19.03h0c0,10.51-8.52,19.03-19.03,19.03Z"/>
        <g>
          <path class="cls-5" d="M287.7-59.29h-7.69v2.2h5.19c-.61,2.68-2.51,4.33-5.05,4.33-3.33,0-6.03-2.7-6.03-6.03s2.7-6.03,6.03-6.03c1.58,0,3.02.61,4.1,1.61l1.7-1.47c-1.49-1.47-3.54-2.38-5.8-2.38-4.57,0-8.27,3.7-8.27,8.27s3.7,8.27,8.27,8.27,7.55-3.34,7.55-7.91v-.85Z"/>
          <polygon class="cls-5" points="298.75 -59.2 295.57 -59.2 295.57 -62.38 293.55 -62.38 293.55 -59.2 290.37 -59.2 290.37 -57.18 293.55 -57.18 293.55 -54 295.57 -54 295.57 -57.18 298.75 -57.18 298.75 -59.2"/>
        </g>
      </g>
      <g>
        <path class="cls-4" d="M285.32,14.16h0c-10.51,0-19.03-8.52-19.03-19.03h0c0-10.51,8.52-19.03,19.03-19.03h0c10.51,0,19.03,8.52,19.03,19.03h0c0,10.51-8.52,19.03-19.03,19.03Z"/>
        <g>
          <g>
            <rect class="cls-5" x="276.69" y="-9.11" width="3.94" height="12.72"/>
            <path class="cls-5" d="M278.64-10.78c1.29,0,2.33-1.05,2.33-2.35s-1.04-2.35-2.33-2.35-2.33,1.05-2.33,2.35,1.04,2.35,2.33,2.35Z"/>
          </g>
          <path class="cls-5" d="M286.92-3.07c0-1.79.82-2.85,2.4-2.85,1.45,0,2.14,1.02,2.14,2.85V3.61h3.92V-4.45c0-3.41-1.93-5.06-4.63-5.06s-3.83,2.1-3.83,2.1v-1.71h-3.78V3.61h3.78V-3.07Z"/>
        </g>
      </g>
      <g>
        <path class="cls-4" d="M229.58,14.16h0c-10.51,0-19.03-8.52-19.03-19.03h0c0-10.51,8.52-19.03,19.03-19.03h0c10.51,0,19.03,8.52,19.03,19.03h0c0,10.51-8.52,19.03-19.03,19.03Z"/>
        <path class="cls-5" d="M229.58-16c-6.14,0-11.13,4.98-11.13,11.13s4.98,11.13,11.13,11.13,11.13-4.98,11.13-11.13-4.98-11.13-11.13-11.13ZM234.7.08c-.22.33-.61.44-.95.22-2.61-1.61-5.9-1.95-9.79-1.06-.39.11-.72-.17-.83-.5-.11-.39.17-.72.5-.83,4.23-.95,7.9-.56,10.79,1.22.39.17.45.61.28.95ZM236.04-2.98c-.28.39-.78.56-1.17.28-3-1.84-7.57-2.39-11.07-1.28-.45.11-.95-.11-1.06-.56-.11-.45.11-.95.56-1.06,4.06-1.22,9.07-.61,12.52,1.5.33.17.5.72.22,1.11ZM236.15-6.1c-3.56-2.11-9.51-2.34-12.91-1.28-.56.17-1.11-.17-1.28-.67-.17-.56.17-1.11.67-1.28,3.95-1.17,10.46-.95,14.58,1.5.5.28.67.95.39,1.45-.28.39-.95.56-1.45.28Z"/>
      </g>
      <g>
        <rect class="cls-4" x="321.39" y="-77.83" width="38.06" height="38.06" rx="-.85" ry="-.85"/>
        <path class="cls-5" d="M337.52-47.29h4.63v-11.6h3.23l.34-3.88h-3.58v-2.21c0-.92.18-1.28,1.07-1.28h2.51v-4.03h-3.21c-3.45,0-5,1.52-5,4.42v3.1h-2.41v3.93h2.41v11.55Z"/>
      </g>
      <g>
        <path class="cls-4" d="M396.16-39.77h0c-10.51,0-19.03-8.52-19.03-19.03h0c0-10.51,8.52-19.03,19.03-19.03h0c10.51,0,19.03,8.52,19.03,19.03h0c0,10.51-8.52,19.03-19.03,19.03Z"/>
        <g>
          <path class="cls-5" d="M396.16-67.35c2.79,0,3.12.01,4.22.06,1.02.05,1.57.22,1.94.36.49.19.83.42,1.2.78.37.37.59.71.78,1.2.14.37.31.92.36,1.94.05,1.1.06,1.43.06,4.22s-.01,3.12-.06,4.22c-.05,1.02-.22,1.57-.36,1.94-.19.49-.42.83-.78,1.2-.36.36-.71.59-1.2.78-.37.14-.92.31-1.94.36-1.1.05-1.43.06-4.22.06s-3.12-.01-4.22-.06c-1.02-.05-1.57-.22-1.94-.36-.49-.19-.83-.42-1.2-.78-.36-.37-.59-.71-.78-1.2-.14-.37-.31-.92-.36-1.94-.05-1.1-.06-1.43-.06-4.22s.01-3.12.06-4.22c.05-1.02.22-1.57.36-1.94.19-.49.42-.83.78-1.2.37-.37.71-.59,1.2-.78.37-.14.92-.31,1.94-.36,1.1-.05,1.43-.06,4.22-.06M396.16-69.23c-2.83,0-3.19.01-4.3.06-1.11.05-1.87.23-2.53.49-.69.27-1.27.62-1.85,1.2s-.94,1.16-1.2,1.85c-.26.66-.43,1.42-.48,2.53-.05,1.11-.06,1.47-.06,4.3s.01,3.19.06,4.3c.05,1.11.23,1.87.48,2.53.27.69.62,1.27,1.2,1.85s1.16.94,1.85,1.2c.66.26,1.42.43,2.53.49,1.11.05,1.47.06,4.3.06s3.19-.01,4.3-.06c1.11-.05,1.87-.23,2.53-.49.69-.27,1.27-.62,1.85-1.2s.94-1.16,1.2-1.85c.26-.66.43-1.42.49-2.53.05-1.11.06-1.47.06-4.3s-.01-3.19-.06-4.3c-.05-1.11-.23-1.87-.49-2.53-.27-.69-.62-1.27-1.2-1.85s-1.16-.94-1.85-1.2c-.66-.26-1.42-.43-2.53-.49-1.11-.05-1.47-.06-4.3-.06"/>
          <path class="cls-5" d="M396.16-64.16c-2.96,0-5.36,2.4-5.36,5.36s2.4,5.36,5.36,5.36,5.36-2.4,5.36-5.36-2.4-5.36-5.36-5.36M396.16-55.32c-1.92,0-3.48-1.56-3.48-3.48s1.56-3.48,3.48-3.48,3.48,1.56,3.48,3.48-1.56,3.48-3.48,3.48"/>
          <path class="cls-5" d="M402.98-64.37c0,.69-.56,1.25-1.25,1.25s-1.25-.56-1.25-1.25.56-1.25,1.25-1.25,1.25.56,1.25,1.25"/>
        </g>
      </g>
      <g>
        <path class="cls-4" d="M396.16,14.16h0c-10.51,0-19.03-8.52-19.03-19.03h0c0-10.51,8.52-19.03,19.03-19.03h0c10.51,0,19.03,8.52,19.03,19.03h0c0,10.51-8.52,19.03-19.03,19.03Z"/>
        <path class="cls-5" d="M390.07-3.1c.3.12.56,0,.65-.32.06-.23.2-.8.26-1.04.09-.33.05-.44-.19-.72-.52-.62-.86-1.42-.86-2.55,0-3.28,2.45-6.22,6.39-6.22,3.49,0,5.4,2.13,5.4,4.98,0,3.74-1.66,6.9-4.12,6.9-1.36,0-2.37-1.12-2.05-2.5.39-1.64,1.15-3.42,1.15-4.61,0-1.06-.57-1.95-1.75-1.95-1.39,0-2.5,1.44-2.5,3.36,0,1.23.41,2.05.41,2.05,0,0-1.42,6.02-1.67,7.07-.5,2.1-.07,4.67-.04,4.93.02.15.22.19.31.07.13-.17,1.78-2.21,2.34-4.25.16-.58.91-3.57.91-3.57.45.86,1.77,1.62,3.17,1.62,4.17,0,7.01-3.8,7.01-8.9,0-3.85-3.26-7.44-8.22-7.44-6.17,0-9.28,4.42-9.28,8.11,0,2.23.85,4.22,2.66,4.96Z"/>
      </g>
      <g>
        <rect class="cls-4" x="321.39" y="-23.9" width="38.06" height="38.06" rx="19.03" ry="19.03"/>
        <g>
          <path class="cls-5" d="M337.58,1.44c.58-.12,1.08-.34,1.51-.67.38-.28.69-.63.94-1.05.4-.63.59-1.34.59-2.13s-.17-1.42-.52-1.95c-.35-.54-.86-.93-1.54-1.18.45-.23.79-.48,1.02-.76.41-.49.62-1.15.62-1.96s-.2-1.47-.61-2.03c-.68-.92-1.83-1.39-3.45-1.42h-6.44V1.62h6c.68,0,1.31-.06,1.88-.18ZM332.35-9.39h2.9c.64,0,1.16.07,1.57.21.48.2.72.61.72,1.23,0,.56-.18.95-.54,1.17-.36.22-.83.33-1.41.33h-3.24v-2.94ZM332.35-.69v-3.55h3.28c.57,0,1.02.08,1.33.23.57.26.85.73.85,1.43,0,.82-.29,1.37-.88,1.66-.32.16-.77.23-1.35.23h-3.24Z"/>
          <g>
            <path class="cls-5" d="M342.88.74c1,.81,2.16,1.21,3.47,1.21,1.59,0,2.83-.48,3.71-1.44.57-.6.89-1.2.96-1.78h-2.63c-.15.29-.33.51-.53.68-.37.3-.84.45-1.43.45-.55,0-1.03-.12-1.42-.37-.65-.4-.99-1.09-1.03-2.08h7.18c.01-.85-.02-1.5-.08-1.96-.12-.77-.38-1.45-.79-2.04-.45-.66-1.02-1.15-1.7-1.46-.69-.31-1.46-.46-2.32-.46-1.44,0-2.62.46-3.52,1.37-.9.91-1.36,2.22-1.36,3.93,0,1.82.5,3.14,1.5,3.95ZM344.72-5.81c.36-.37.88-.56,1.54-.56.61,0,1.12.18,1.53.53.41.35.64.87.69,1.56h-4.44c.09-.64.32-1.15.69-1.53Z"/>
            <rect class="cls-5" x="343.19" y="-10.94" width="5.79" height="1.34"/>
          </g>
        </g>
      </g>
      <g>
        <path class="cls-4" d="M396.49,68.08h0c-10.51,0-19.03-8.52-19.03-19.03h0c0-10.51,8.52-19.03,19.03-19.03h0c10.51,0,19.03,8.52,19.03,19.03h0c0,10.51-8.52,19.03-19.03,19.03Z"/>
        <path class="cls-5" d="M392.22,54.68c0,.99.1,1.74.31,2.26.21.52.58,1.01,1.11,1.47.53.46,1.18.82,1.94,1.06.76.25,1.63.37,2.62.37.87,0,1.68-.09,2.42-.26.75-.18,1.58-.48,2.5-.91v-3.39c-1.08.71-2.17,1.07-3.26,1.07-.61,0-1.16-.14-1.64-.43-.36-.21-.61-.5-.74-.85-.13-.36-.2-1.16-.2-2.41v-5.54h5.12v-3.39h-5.12v-5.47h-3.06c-.14,1.11-.39,2.03-.75,2.75-.36.72-.85,1.34-1.45,1.85-.6.51-1.33.91-2.17,1.18v3.07h2.36v7.56Z"/>
      </g>
      <g>
        <rect class="cls-4" x="209.92" y="30.02" width="38.06" height="38.06" rx="19.03" ry="19.03"/>
        <path class="cls-2" d="M239.98,54.57h0s-.01-.01-.02-.02h0c-.27-.17-.54-.2-.71-.26,0,0-.01,0-.01,0-1.17-.37-2.18-1.16-2.93-2.14-.42-.54-.77-1.13-1-1.75h0c-.09-.28-.1-.58.04-.76,0,0,0,0,0,0,.21-.3.6-.49,1.01-.64h0c.46-.16.96-.34,1.37-.7,0,0,0,0,.01,0,.06-.06.14-.13.2-.25.01-.03.03-.06.03-.09.03-.11.03-.24-.03-.36h0c-.12-.24-.32-.37-.48-.46h0c-.25-.15-.55-.16-.82-.07h0c-.28.08-.51.19-.72.21,0,0-.01,0-.02,0-.3.05-.59.06-.82-.02,0-.03,0-.1-.02-.18h0c-.02-.5.03-1.01.03-1.54h0c.03-.81.06-1.64-.06-2.48h0c-.26-1.42-1.17-2.64-2.32-3.44-.83-.59-1.83-.92-2.83-1.01h0c-.35-.03-.68-.04-1.02-.04-1.36.01-2.77.37-3.87,1.23-.83.65-1.48,1.5-1.89,2.46h0c-.39.99-.36,2.04-.3,3.01h0c.03.68.11,1.34.05,1.98,0,.02,0,.03-.01.04-.31.06-.64.04-.97-.03h0c-.23-.04-.47-.13-.74-.21,0,0-.01,0-.02,0-.26-.06-.53.02-.72.17,0,0-.01,0-.01,0,0,0-.01,0-.01.01-.17.1-.39.28-.4.59,0,.02,0,.04,0,.06,0,0,0,0,0,0,.03.18.14.32.25.4.1.09.2.14.25.19,0,0,.01,0,.02.01.5.33,1.04.48,1.53.66h0c.33.14.62.37.68.65.08.36-.07.77-.27,1.17h0c-.54,1.06-1.33,1.98-2.32,2.66-.52.35-1.1.62-1.7.78,0,0-.02,0-.03.01-.12.05-.42.07-.6.35-.01.02-.02.04-.03.07-.06.18.01.37.1.48.08.1.18.16.26.2,0,0,.01,0,.02,0,.51.29,1.07.42,1.57.55,0,0,0,0,0,0,.37.08.71.12.98.24.01.02.04.11.1.27.09.28.13.61.24.95.03.09.11.17.21.19.23.05.36-.03.38-.03h.03c.85-.15,1.7-.28,2.48-.09h0c.82.22,1.53.78,2.33,1.26h0c.53.34,1.15.66,1.86.69h0c.54.03,1.06,0,1.58-.04h.01c.44-.04.86-.19,1.24-.42,0,0,.01-.01.02-.01.84-.48,1.59-1.06,2.41-1.42h0c.26-.09.6-.09.97-.11h.01c.68-.02,1.36.02,2.04.1.02,0,.05,0,.07,0,.09-.01.19-.07.23-.13.05-.06.06-.11.07-.14.02-.07.04-.1,0-.04.01-.02.02-.04.03-.06.12-.41.19-.78.39-1,.09-.09.24-.13.42-.13h.04c.59-.07,1.12-.28,1.62-.46,0,0,.02,0,.02,0,.19-.08.47-.18.66-.44h0c.16-.23.08-.53-.14-.67h0Z"/>
      </g>
      <g>
        <rect class="cls-4" x="209.92" y="83.95" width="38.06" height="38.06" rx="19.03" ry="19.03"/>
        <path class="cls-5" d="M236.59,93.64c-2.99-.1-5.02,1.59-6.08,5.07.55-.24,1.08-.35,1.6-.35,1.1,0,1.58.62,1.45,1.85-.06.75-.55,1.83-1.45,3.26-.91,1.43-1.58,2.14-2.04,2.14-.58,0-1.12-1.1-1.6-3.3-.16-.65-.45-2.3-.87-4.95-.39-2.46-1.42-3.61-3.1-3.45-.71.06-1.78.71-3.2,1.94-1.03.94-2.08,1.87-3.15,2.81l1.02,1.31c.97-.68,1.53-1.02,1.69-1.02.74,0,1.43,1.16,2.08,3.49.58,2.13,1.16,4.26,1.74,6.39.87,2.32,1.93,3.49,3.19,3.49,2.03,0,4.51-1.91,7.45-5.72,2.84-3.65,4.31-6.53,4.4-8.63.13-2.81-.92-4.25-3.14-4.32Z"/>
      </g>
      <g>
        <path class="cls-4" d="M396.49,122.01h0c-10.51,0-19.03-8.52-19.03-19.03h0c0-10.51,8.52-19.03,19.03-19.03h0c10.51,0,19.03,8.52,19.03,19.03h0c0,10.51-8.52,19.03-19.03,19.03Z"/>
        <path class="cls-5" d="M396.49,90.85c-6.7,0-12.13,5.43-12.13,12.13s5.43,12.13,12.13,12.13,12.13-5.43,12.13-12.13-5.43-12.13-12.13-12.13ZM396.49,92.96c2.3,0,4.42.79,6.11,2.1-1.22,1.57-2.9,2.81-5.04,3.72-1.03-1.88-2.2-3.72-3.53-5.5.79-.2,1.61-.32,2.46-.32ZM391.97,94.05c1.35,1.76,2.54,3.58,3.58,5.44-2.46.72-5.39,1.09-8.78,1.12.7-2.87,2.63-5.25,5.2-6.56ZM386.47,102.98c0-.09.01-.17.01-.26,3.89,0,7.25-.45,10.06-1.34.24.48.46.96.68,1.45-3.42,1.07-6.23,3.26-8.43,6.55-1.45-1.74-2.32-3.97-2.32-6.4ZM396.49,113c-2.32,0-4.45-.8-6.15-2.13,1.99-3.12,4.53-5.16,7.68-6.09.94,2.45,1.63,4.96,2.07,7.54-1.12.43-2.33.68-3.6.68ZM402.05,111.31c-.44-2.38-1.09-4.7-1.94-6.97,1.9-.27,3.98-.2,6.27.2-.44,2.82-2.05,5.25-4.33,6.77ZM399.3,102.34c-.25-.57-.5-1.14-.78-1.7,2.33-1.01,4.21-2.38,5.61-4.13,1.36,1.61,2.22,3.66,2.35,5.9-2.6-.43-5-.45-7.18-.07Z"/>
      </g>
      <g>
        <rect class="cls-6" x="546.25" y="30.02" width="38.06" height="38.06" rx="19.03" ry="19.03"/>
        <path class="cls-4" d="M554.67,49.06c0,5.85,4.75,10.6,10.6,10.6.68,0,1.34-.07,1.99-.19.93.56,2.03.89,3.19.89,3.42,0,6.19-2.77,6.19-6.19,0-1.2-.34-2.32-.93-3.26.11-.6.16-1.22.16-1.85,0-5.85-4.75-10.6-10.6-10.6-.67,0-1.32.06-1.95.18-.94-.57-2.04-.9-3.21-.9-3.42,0-6.19,2.77-6.19,6.19,0,1.19.34,2.3.92,3.25-.11.61-.17,1.24-.17,1.88ZM565.38,41.53c3.42.2,5.42,1.7,5.62,3.11.1.92-.51,1.63-1.57,1.63-1.55,0-1.7-2.06-4.37-2.06-1.2,0-2.21.5-2.21,1.58,0,2.26,8.53.95,8.53,5.93,0,2.87-2.3,4.76-5.73,4.76-3.02,0-6.05-1.37-6.04-3.72,0-.71.54-1.36,1.24-1.36,1.78,0,1.76,2.64,4.59,2.64,1.99,0,2.66-1.08,2.66-1.84,0-2.73-8.58-1.05-8.58-6.18,0-2.78,2.28-4.69,5.86-4.48Z"/>
      </g>
      <g>
        <rect class="cls-6" x="546.25" y="83.95" width="38.06" height="38.06" rx="19.03" ry="19.03"/>
        <g>
          <path class="cls-4" d="M553.59,96.8l5.85,3.72,5.85-3.72-5.85-3.72-5.85,3.72Z"/>
          <path class="cls-4" d="M565.27,96.8l5.85,3.72,5.85-3.72-5.85-3.72-5.85,3.72Z"/>
          <path class="cls-4" d="M553.59,104.2l5.85,3.72,5.85-3.72-5.85-3.72-5.85,3.72Z"/>
          <path class="cls-4" d="M571.12,100.47l-5.85,3.72,5.85,3.72,5.85-3.72-5.85-3.72Z"/>
          <path class="cls-4" d="M559.47,109.15l5.85,3.72,5.85-3.72-5.85-3.72-5.85,3.72Z"/>
        </g>
      </g>
      <g>
        <path class="cls-6" d="M509.54,68.08h0c-10.51,0-19.03-8.52-19.03-19.03h0c0-10.51,8.52-19.03,19.03-19.03h0c10.51,0,19.03,8.52,19.03,19.03h0c0,10.51-8.52,19.03-19.03,19.03Z"/>
        <g>
          <path class="cls-1" d="M519.98,48.52c-.14-5.5-4.67-9.91-10.24-9.91s-10,4.31-10.24,9.73c0,.15,0,.3,0,.45,0,1.92.54,3.72,1.47,5.25l-1.85,5.46,5.68-1.8c1.47.81,3.16,1.27,4.95,1.27,5.66,0,10.25-4.55,10.25-10.17,0-.09,0-.17,0-.26ZM509.73,57.33c-1.75,0-3.38-.52-4.74-1.42l-3.31,1.06,1.07-3.18c-1.03-1.41-1.64-3.14-1.64-5.01,0-.28.01-.56.04-.83.42-4.33,4.11-7.72,8.57-7.72s8.24,3.48,8.59,7.88c.02.22.03.44.03.67,0,4.72-3.87,8.55-8.62,8.55Z"/>
          <path class="cls-1" d="M514.43,50.84c-.25-.12-1.49-.73-1.72-.81-.23-.09-.4-.12-.57.12-.17.25-.65.81-.8.97-.15.17-.29.19-.55.06-.25-.12-1.06-.38-2.02-1.24-.74-.66-1.25-1.47-1.4-1.72-.14-.25-.01-.38.11-.51.11-.11.25-.29.38-.44.03-.04.06-.08.09-.12.06-.09.1-.18.16-.3.09-.17.04-.31-.02-.44-.06-.12-.57-1.35-.78-1.85-.21-.5-.42-.41-.57-.41s-.31-.02-.48-.02-.44.06-.67.31c-.23.25-.88.85-.88,2.08,0,.29.05.58.13.85.25.88.8,1.6.9,1.73.12.16,1.74,2.76,4.29,3.77,2.56.99,2.56.66,3.02.62.46-.04,1.49-.6,1.69-1.19.21-.58.21-1.08.15-1.19-.06-.1-.23-.16-.48-.29Z"/>
        </g>
      </g>
      <g>
        <path class="cls-6" d="M509.54,122.01h0c-10.51,0-19.03-8.52-19.03-19.03h0c0-10.51,8.52-19.03,19.03-19.03h0c10.51,0,19.03,8.52,19.03,19.03h0c0,10.51-8.52,19.03-19.03,19.03Z"/>
        <g>
          <path class="cls-4" d="M524.14,95.6c-.35-1.32-1.38-2.36-2.69-2.71-2.38-.64-11.9-.64-11.9-.64,0,0-9.53,0-11.9.64-1.31.35-2.34,1.39-2.69,2.71-.64,2.39-.64,7.38-.64,7.38,0,0,0,4.99.64,7.38.35,1.32,1.38,2.36,2.69,2.71,2.38.64,11.9.64,11.9.64,0,0,9.53,0,11.9-.64,1.31-.35,2.34-1.39,2.69-2.71.64-2.39.64-7.38.64-7.38,0,0,0-4.99-.64-7.38Z"/>
          <polygon class="cls-5" points="506.43 107.51 506.43 98.45 514.39 102.98 506.43 107.51"/>
        </g>
      </g>
      <g>
        <path class="cls-6" d="M454.15-39.77h0c-10.51,0-19.03-8.52-19.03-19.03h0c0-10.51,8.52-19.03,19.03-19.03h0c10.51,0,19.03,8.52,19.03,19.03h0c0,10.51-8.52,19.03-19.03,19.03Z"/>
        <path class="cls-4" d="M444.01-52.43c1.84,1.18,4.03,1.87,6.38,1.87,7.72,0,12.09-6.52,11.83-12.38.81-.59,1.52-1.32,2.08-2.15-.75.33-1.55.55-2.39.65.86-.51,1.52-1.33,1.83-2.3-.8.48-1.69.82-2.64,1.01-.76-.81-1.84-1.31-3.04-1.31-2.69,0-4.66,2.51-4.05,5.11-3.46-.17-6.52-1.83-8.58-4.35-1.09,1.87-.57,4.32,1.29,5.56-.68-.02-1.32-.21-1.89-.52-.04,1.93,1.34,3.73,3.34,4.13-.59.16-1.23.2-1.88.07.53,1.65,2.07,2.86,3.89,2.89-1.75,1.37-3.95,1.98-6.16,1.72Z"/>
      </g>
      <g>
        <rect class="cls-6" x="490.85" y="-77.83" width="38.06" height="38.06" rx="-.85" ry="-.85"/>
        <g>
          <path class="cls-4" d="M512.26-59.29h-7.69v2.2h5.19c-.61,2.68-2.51,4.33-5.05,4.33-3.33,0-6.03-2.7-6.03-6.03s2.7-6.03,6.03-6.03c1.58,0,3.02.61,4.1,1.61l1.7-1.47c-1.49-1.47-3.54-2.38-5.8-2.38-4.57,0-8.27,3.7-8.27,8.27s3.7,8.27,8.27,8.27,7.55-3.34,7.55-7.91v-.85Z"/>
          <polygon class="cls-4" points="523.31 -59.2 520.14 -59.2 520.14 -62.38 518.11 -62.38 518.11 -59.2 514.94 -59.2 514.94 -57.18 518.11 -57.18 518.11 -54 520.14 -54 520.14 -57.18 523.31 -57.18 523.31 -59.2"/>
        </g>
      </g>
      <g>
        <rect class="cls-6" x="490.85" y="-23.9" width="38.06" height="38.06" rx="19.03" ry="19.03"/>
        <g>
          <g>
            <rect class="cls-4" x="501.25" y="-9.11" width="3.94" height="12.72"/>
            <path class="cls-4" d="M503.2-10.78c1.29,0,2.33-1.05,2.33-2.35s-1.04-2.35-2.33-2.35-2.33,1.05-2.33,2.35,1.04,2.35,2.33,2.35Z"/>
          </g>
          <path class="cls-4" d="M511.49-3.07c0-1.79.82-2.85,2.4-2.85,1.45,0,2.14,1.02,2.14,2.85V3.61h3.92V-4.45c0-3.41-1.93-5.06-4.63-5.06s-3.83,2.1-3.83,2.1v-1.71h-3.78V3.61h3.78V-3.07Z"/>
        </g>
      </g>
      <g>
        <path class="cls-6" d="M454.15,14.16h0c-10.51,0-19.03-8.52-19.03-19.03h0c0-10.51,8.52-19.03,19.03-19.03h0c10.51,0,19.03,8.52,19.03,19.03h0c0,10.51-8.52,19.03-19.03,19.03Z"/>
        <path class="cls-4" d="M454.15-16c-6.14,0-11.13,4.98-11.13,11.13s4.98,11.13,11.13,11.13,11.13-4.98,11.13-11.13-4.98-11.13-11.13-11.13ZM459.27.08c-.22.33-.61.44-.95.22-2.61-1.61-5.9-1.95-9.79-1.06-.39.11-.72-.17-.83-.5-.11-.39.17-.72.5-.83,4.23-.95,7.9-.56,10.79,1.22.39.17.45.61.28.95ZM460.6-2.98c-.28.39-.78.56-1.17.28-3-1.84-7.57-2.39-11.07-1.28-.45.11-.95-.11-1.06-.56-.11-.45.11-.95.56-1.06,4.06-1.22,9.07-.61,12.52,1.5.33.17.5.72.22,1.11ZM460.71-6.1c-3.56-2.11-9.51-2.34-12.91-1.28-.56.17-1.11-.17-1.28-.67-.17-.56.17-1.11.67-1.28,3.95-1.17,10.46-.95,14.58,1.5.5.28.67.95.39,1.45-.28.39-.95.56-1.45.28Z"/>
      </g>
      <g>
        <rect class="cls-6" x="545.96" y="-77.83" width="38.06" height="38.06" rx="-.85" ry="-.85"/>
        <path class="cls-4" d="M562.09-47.29h4.63v-11.6h3.23l.34-3.88h-3.58v-2.21c0-.92.18-1.28,1.07-1.28h2.51v-4.03h-3.21c-3.45,0-5,1.52-5,4.42v3.1h-2.41v3.93h2.41v11.55Z"/>
      </g>
      <g>
        <path class="cls-6" d="M620.72-39.77h0c-10.51,0-19.03-8.52-19.03-19.03h0c0-10.51,8.52-19.03,19.03-19.03h0c10.51,0,19.03,8.52,19.03,19.03h0c0,10.51-8.52,19.03-19.03,19.03Z"/>
        <g>
          <path class="cls-4" d="M620.72-67.35c2.79,0,3.12.01,4.22.06,1.02.05,1.57.22,1.94.36.49.19.83.42,1.2.78.37.37.59.71.78,1.2.14.37.31.92.36,1.94.05,1.1.06,1.43.06,4.22s-.01,3.12-.06,4.22c-.05,1.02-.22,1.57-.36,1.94-.19.49-.42.83-.78,1.2-.36.36-.71.59-1.2.78-.37.14-.92.31-1.94.36-1.1.05-1.43.06-4.22.06s-3.12-.01-4.22-.06c-1.02-.05-1.57-.22-1.94-.36-.49-.19-.83-.42-1.2-.78-.37-.37-.59-.71-.78-1.2-.14-.37-.31-.92-.36-1.94-.05-1.1-.06-1.43-.06-4.22s.01-3.12.06-4.22c.05-1.02.22-1.57.36-1.94.19-.49.42-.83.78-1.2.37-.37.71-.59,1.2-.78.37-.14.92-.31,1.94-.36,1.1-.05,1.43-.06,4.22-.06M620.72-69.23c-2.83,0-3.19.01-4.3.06-1.11.05-1.87.23-2.53.49-.69.27-1.27.62-1.85,1.2-.58.58-.94,1.16-1.2,1.85-.26.66-.43,1.42-.48,2.53-.05,1.11-.06,1.47-.06,4.3s.01,3.19.06,4.3c.05,1.11.23,1.87.48,2.53.27.69.62,1.27,1.2,1.85.58.58,1.16.94,1.85,1.2.66.26,1.42.43,2.53.49,1.11.05,1.47.06,4.3.06s3.19-.01,4.3-.06c1.11-.05,1.87-.23,2.53-.49.69-.27,1.27-.62,1.85-1.2s.94-1.16,1.2-1.85c.26-.66.43-1.42.49-2.53.05-1.11.06-1.47.06-4.3s-.01-3.19-.06-4.3c-.05-1.11-.23-1.87-.49-2.53-.27-.69-.62-1.27-1.2-1.85s-1.16-.94-1.85-1.2c-.66-.26-1.42-.43-2.53-.49-1.11-.05-1.47-.06-4.3-.06"/>
          <path class="cls-4" d="M620.72-64.16c-2.96,0-5.36,2.4-5.36,5.36s2.4,5.36,5.36,5.36,5.36-2.4,5.36-5.36-2.4-5.36-5.36-5.36M620.72-55.32c-1.92,0-3.48-1.56-3.48-3.48s1.56-3.48,3.48-3.48,3.48,1.56,3.48,3.48-1.56,3.48-3.48,3.48"/>
          <path class="cls-4" d="M627.54-64.37c0,.69-.56,1.25-1.25,1.25s-1.25-.56-1.25-1.25.56-1.25,1.25-1.25,1.25.56,1.25,1.25"/>
        </g>
      </g>
      <g>
        <path class="cls-6" d="M620.72,14.16h0c-10.51,0-19.03-8.52-19.03-19.03h0c0-10.51,8.52-19.03,19.03-19.03h0c10.51,0,19.03,8.52,19.03,19.03h0c0,10.51-8.52,19.03-19.03,19.03Z"/>
        <path class="cls-4" d="M614.63-3.1c.3.12.56,0,.65-.32.06-.23.2-.8.26-1.04.09-.33.05-.44-.19-.72-.52-.62-.86-1.42-.86-2.55,0-3.28,2.45-6.22,6.39-6.22,3.49,0,5.4,2.13,5.4,4.98,0,3.74-1.66,6.9-4.12,6.9-1.36,0-2.37-1.12-2.05-2.5.39-1.64,1.15-3.42,1.15-4.61,0-1.06-.57-1.95-1.75-1.95-1.39,0-2.5,1.44-2.5,3.36,0,1.23.41,2.05.41,2.05,0,0-1.42,6.02-1.67,7.07-.5,2.1-.07,4.67-.04,4.93.02.15.22.19.31.07.13-.17,1.78-2.21,2.34-4.25.16-.58.91-3.57.91-3.57.45.86,1.77,1.62,3.17,1.62,4.17,0,7.01-3.8,7.01-8.9,0-3.85-3.26-7.44-8.22-7.44-6.17,0-9.28,4.42-9.28,8.11,0,2.23.85,4.22,2.66,4.96Z"/>
      </g>
      <g>
        <rect class="cls-6" x="545.96" y="-23.9" width="38.06" height="38.06" rx="19.03" ry="19.03"/>
        <g>
          <path class="cls-4" d="M562.14,1.44c.58-.12,1.08-.34,1.51-.67.38-.28.69-.63.94-1.05.4-.63.59-1.34.59-2.13s-.17-1.42-.52-1.95c-.35-.54-.86-.93-1.54-1.18.45-.23.79-.48,1.02-.76.41-.49.62-1.15.62-1.96s-.2-1.47-.61-2.03c-.68-.92-1.83-1.39-3.45-1.42h-6.44V1.62h6c.68,0,1.31-.06,1.88-.18ZM556.91-9.39h2.9c.64,0,1.16.07,1.57.21.48.2.72.61.72,1.23,0,.56-.18.95-.54,1.17-.36.22-.83.33-1.41.33h-3.24v-2.94ZM556.91-.69v-3.55h3.28c.57,0,1.02.08,1.33.23.57.26.85.73.85,1.43,0,.82-.29,1.37-.88,1.66-.32.16-.77.23-1.35.23h-3.24Z"/>
          <g>
            <path class="cls-4" d="M567.44.74c1,.81,2.16,1.21,3.47,1.21,1.59,0,2.83-.48,3.71-1.44.57-.6.89-1.2.96-1.78h-2.63c-.15.29-.33.51-.53.68-.37.3-.84.45-1.43.45-.55,0-1.03-.12-1.42-.37-.65-.4-.99-1.09-1.03-2.08h7.18c.01-.85-.02-1.5-.08-1.96-.12-.77-.38-1.45-.79-2.04-.45-.66-1.02-1.15-1.7-1.46-.69-.31-1.46-.46-2.32-.46-1.44,0-2.62.46-3.52,1.37-.9.91-1.36,2.22-1.36,3.93,0,1.82.5,3.14,1.5,3.95ZM569.28-5.81c.36-.37.88-.56,1.54-.56.61,0,1.12.18,1.53.53.41.35.64.87.69,1.56h-4.44c.09-.64.32-1.15.69-1.53Z"/>
            <rect class="cls-4" x="567.76" y="-10.94" width="5.79" height="1.34"/>
          </g>
        </g>
      </g>
      <g>
        <rect class="cls-6" x="602.02" y="30.02" width="38.06" height="38.06" rx="19.03" ry="19.03"/>
        <path class="cls-4" d="M616.78,54.68c0,.99.1,1.74.31,2.26.21.52.58,1.01,1.11,1.47.53.46,1.18.82,1.94,1.06.76.25,1.63.37,2.61.37.87,0,1.68-.09,2.42-.26.75-.18,1.58-.48,2.5-.91v-3.39c-1.08.71-2.17,1.07-3.26,1.07-.61,0-1.16-.14-1.64-.43-.36-.21-.61-.5-.74-.85-.13-.36-.2-1.16-.2-2.41v-5.54h5.12v-3.39h-5.12v-5.47h-3.06c-.14,1.11-.39,2.03-.75,2.75-.36.72-.85,1.34-1.45,1.85-.6.51-1.33.91-2.17,1.18v3.07h2.36v7.56Z"/>
      </g>
      <g>
        <path class="cls-6" d="M453.51,68.08h0c-10.51,0-19.03-8.52-19.03-19.03h0c0-10.51,8.52-19.03,19.03-19.03h0c10.51,0,19.03,8.52,19.03,19.03h0c0,10.51-8.52,19.03-19.03,19.03Z"/>
        <path class="cls-1" d="M464.54,54.57h0s-.01-.01-.02-.02h0c-.27-.17-.54-.2-.71-.26,0,0-.01,0-.01,0-1.17-.37-2.18-1.16-2.93-2.14-.42-.54-.77-1.13-1-1.75h0c-.09-.28-.1-.58.04-.76,0,0,0,0,0,0,.21-.3.6-.49,1.01-.64h0c.46-.16.96-.34,1.37-.7,0,0,0,0,.01,0,.06-.06.14-.13.2-.25.01-.03.03-.06.03-.09.03-.11.03-.24-.03-.36h0c-.12-.24-.32-.37-.48-.46h0c-.25-.15-.55-.16-.82-.07h0c-.28.08-.51.19-.72.21,0,0-.01,0-.02,0-.3.05-.59.06-.82-.02,0-.03,0-.1-.02-.18h0c-.02-.5.03-1.01.03-1.54h0c.03-.81.06-1.64-.06-2.48h0c-.26-1.42-1.17-2.64-2.32-3.44-.83-.59-1.83-.92-2.83-1.01h0c-.35-.03-.68-.04-1.02-.04-1.36.01-2.77.37-3.87,1.23-.83.65-1.48,1.5-1.89,2.46h0c-.39.99-.36,2.04-.3,3.01h0c.03.68.11,1.34.05,1.98,0,.02,0,.03-.01.04-.31.06-.64.04-.97-.03h0c-.23-.04-.47-.13-.74-.21,0,0-.01,0-.02,0-.26-.06-.53.02-.72.17,0,0-.01,0-.01,0,0,0-.01,0-.01.01-.17.1-.39.28-.4.59,0,.02,0,.04,0,.06,0,0,0,0,0,0,.03.18.14.32.25.4.1.09.2.14.25.19,0,0,.01,0,.02.01.5.33,1.04.48,1.53.66h0c.33.14.62.37.68.65.08.36-.07.77-.27,1.17h0c-.54,1.06-1.33,1.98-2.32,2.66-.52.35-1.1.62-1.7.78,0,0-.02,0-.03.01-.12.05-.42.07-.6.35-.01.02-.02.04-.03.07-.06.18.01.37.1.48.08.1.18.16.26.2,0,0,.01,0,.02,0,.51.29,1.07.42,1.57.55,0,0,0,0,0,0,.37.08.71.12.98.24.01.02.04.11.1.27.09.28.13.61.24.95.03.09.11.17.21.19.23.05.36-.03.38-.03h.03c.85-.15,1.7-.28,2.48-.09h0c.82.22,1.53.78,2.33,1.26h0c.53.34,1.15.66,1.86.69h0c.54.03,1.06,0,1.58-.04h.01c.44-.04.86-.19,1.24-.42,0,0,.01-.01.02-.01.84-.48,1.59-1.06,2.41-1.42h0c.26-.09.6-.09.97-.11h.01c.68-.02,1.36.02,2.04.1.02,0,.05,0,.07,0,.09-.01.19-.07.23-.13.05-.06.06-.11.07-.14.02-.07.04-.1,0-.04.01-.02.02-.04.03-.06.12-.41.19-.78.39-1,.09-.09.24-.13.42-.13h.04c.59-.07,1.12-.28,1.62-.46,0,0,.02,0,.02,0,.19-.08.47-.18.66-.44h0c.16-.23.08-.53-.14-.67h0Z"/>
      </g>
      <g>
        <path class="cls-6" d="M453.51,122.01h0c-10.51,0-19.03-8.52-19.03-19.03h0c0-10.51,8.52-19.03,19.03-19.03h0c10.51,0,19.03,8.52,19.03,19.03h0c0,10.51-8.52,19.03-19.03,19.03Z"/>
        <path class="cls-4" d="M461.16,93.64c-2.99-.1-5.02,1.59-6.08,5.07.55-.24,1.08-.35,1.6-.35,1.1,0,1.58.62,1.45,1.85-.06.75-.55,1.83-1.45,3.26-.91,1.43-1.58,2.14-2.04,2.14-.58,0-1.12-1.1-1.6-3.3-.16-.65-.45-2.3-.87-4.95-.39-2.46-1.42-3.61-3.1-3.45-.71.06-1.78.71-3.2,1.94-1.03.94-2.08,1.87-3.15,2.81l1.02,1.31c.97-.68,1.53-1.02,1.69-1.02.74,0,1.43,1.16,2.08,3.49.58,2.13,1.16,4.26,1.74,6.39.87,2.32,1.93,3.49,3.19,3.49,2.03,0,4.51-1.91,7.45-5.72,2.84-3.65,4.31-6.53,4.4-8.63.13-2.81-.92-4.25-3.14-4.32Z"/>
      </g>
      <g>
        <rect class="cls-6" x="602.02" y="83.95" width="38.06" height="38.06" rx="19.03" ry="19.03"/>
        <path class="cls-4" d="M621.05,90.85c-6.7,0-12.13,5.43-12.13,12.13s5.43,12.13,12.13,12.13,12.13-5.43,12.13-12.13-5.43-12.13-12.13-12.13ZM621.05,92.96c2.3,0,4.42.79,6.11,2.1-1.22,1.57-2.9,2.81-5.04,3.72-1.03-1.88-2.2-3.72-3.53-5.5.79-.2,1.61-.32,2.46-.32ZM616.53,94.05c1.35,1.76,2.54,3.58,3.58,5.44-2.46.72-5.39,1.09-8.78,1.12.7-2.87,2.63-5.25,5.2-6.56ZM611.03,102.98c0-.09.01-.17.01-.26,3.89,0,7.25-.45,10.06-1.34.24.48.46.96.68,1.45-3.42,1.07-6.23,3.26-8.43,6.55-1.45-1.74-2.32-3.97-2.32-6.4ZM621.05,113c-2.32,0-4.45-.8-6.15-2.13,1.99-3.12,4.53-5.16,7.68-6.09.94,2.45,1.63,4.96,2.07,7.54-1.12.43-2.33.68-3.6.68ZM626.62,111.31c-.44-2.38-1.09-4.7-1.94-6.97,1.9-.27,3.98-.2,6.27.2-.44,2.82-2.05,5.25-4.33,6.77ZM623.87,102.34c-.25-.57-.5-1.14-.78-1.7,2.33-1.01,4.21-2.38,5.61-4.13,1.36,1.61,2.22,3.66,2.35,5.9-2.6-.43-5-.45-7.18-.07Z"/>
      </g>
      <path class="cls-4" d="M328.51,168.36c2.29,1.47,5.02,2.33,7.95,2.33,9.63,0,15.06-8.13,14.74-15.42,1.01-.73,1.89-1.64,2.59-2.68-.93.41-1.93.69-2.98.82,1.07-.64,1.89-1.66,2.28-2.87-1,.59-2.11,1.03-3.29,1.26-.95-1.01-2.29-1.64-3.78-1.64-3.35,0-5.81,3.12-5.05,6.37-4.31-.22-8.13-2.28-10.69-5.42-1.36,2.33-.7,5.38,1.6,6.92-.85-.03-1.65-.26-2.35-.65-.06,2.4,1.67,4.65,4.16,5.15-.73.2-1.53.24-2.34.09.66,2.06,2.57,3.56,4.84,3.6-2.18,1.71-4.92,2.47-7.68,2.15Z"/>
      <path class="cls-4" d="M222.07,174.75h5.77v-14.46h4.03l.43-4.84h-4.46v-2.76c0-1.14.23-1.59,1.33-1.59h3.12v-5.02h-4c-4.3,0-6.23,1.89-6.23,5.51v3.86h-3v4.9h3v14.39Z"/>
      <g>
        <path class="cls-4" d="M22.67,10.66c3.47,0,3.88.01,5.25.08,1.27.06,1.96.27,2.41.45.61.24,1.04.52,1.49.97.46.46.74.89.97,1.49.18.46.39,1.15.45,2.41.06,1.37.08,1.78.08,5.25s-.01,3.88-.08,5.25c-.06,1.27-.27,1.96-.45,2.41-.24.61-.52,1.04-.97,1.5-.45.45-.89.74-1.49.97-.46.18-1.15.39-2.41.45-1.37.06-1.78.08-5.25.08s-3.88-.01-5.25-.08c-1.27-.06-1.96-.27-2.41-.45-.61-.24-1.04-.52-1.5-.97-.45-.46-.74-.89-.97-1.5-.18-.46-.39-1.15-.45-2.41-.06-1.37-.08-1.78-.08-5.25s.01-3.88.08-5.25c.06-1.27.27-1.96.45-2.41.24-.61.52-1.04.97-1.49.46-.46.89-.74,1.5-.97.46-.18,1.15-.39,2.41-.45,1.37-.06,1.78-.08,5.25-.08M22.67,8.32c-3.53,0-3.97.02-5.36.08-1.38.06-2.33.28-3.16.6-.86.33-1.58.78-2.3,1.5-.72.72-1.17,1.45-1.5,2.3-.32.83-.54,1.77-.6,3.16-.06,1.39-.08,1.83-.08,5.36s.01,3.97.08,5.36c.06,1.38.28,2.33.6,3.16.33.85.78,1.58,1.5,2.3s1.45,1.17,2.3,1.5c.83.32,1.77.54,3.16.6,1.39.06,1.83.08,5.36.08s3.97-.01,5.36-.08c1.38-.06,2.33-.28,3.16-.6.86-.33,1.58-.78,2.3-1.5.72-.72,1.17-1.45,1.5-2.3.32-.83.54-1.77.6-3.16.06-1.39.08-1.83.08-5.36s-.01-3.97-.08-5.36c-.06-1.38-.28-2.33-.6-3.16-.33-.85-.78-1.58-1.5-2.3-.72-.72-1.45-1.17-2.3-1.5-.83-.32-1.77-.54-3.16-.6-1.39-.06-1.83-.08-5.36-.08"/>
        <path class="cls-4" d="M22.67,14.65c-3.69,0-6.68,2.99-6.68,6.68s2.99,6.68,6.68,6.68,6.68-2.99,6.68-6.68-2.99-6.68-6.68-6.68M22.67,25.66c-2.39,0-4.33-1.94-4.33-4.33s1.94-4.33,4.33-4.33,4.33,1.94,4.33,4.33-1.94,4.33-4.33,4.33"/>
        <path class="cls-4" d="M31.17,14.38c0,.86-.7,1.56-1.56,1.56s-1.56-.7-1.56-1.56.7-1.56,1.56-1.56,1.56.7,1.56,1.56"/>
      </g>
      <g>
        <path class="cls-4" d="M401.83,159.8h-9.58v2.74h6.47c-.76,3.34-3.12,5.39-6.29,5.39-4.15,0-7.52-3.37-7.52-7.52s3.36-7.52,7.52-7.52c1.97,0,3.77.76,5.11,2.01l2.12-1.83c-1.86-1.83-4.41-2.96-7.23-2.96-5.69,0-10.3,4.61-10.3,10.3s4.61,10.3,10.3,10.3,9.41-4.17,9.41-9.86l-.02-1.06Z"/>
        <polygon class="cls-4" points="415.6 159.92 411.65 159.92 411.65 155.96 409.13 155.96 409.13 159.92 405.17 159.92 405.17 162.44 409.13 162.44 409.13 166.39 411.65 166.39 411.65 162.44 415.6 162.44 415.6 159.92"/>
      </g>
      <path class="cls-4" d="M562.3,167.43c0,1.23.13,2.16.39,2.81.26.65.72,1.26,1.39,1.83.67.57,1.47,1.02,2.42,1.33.94.31,2.03.47,3.26.47,1.08,0,2.09-.11,3.02-.32.93-.22,1.97-.6,3.12-1.14v-4.23c-1.35.89-2.7,1.33-4.06,1.33-.77,0-1.45-.18-2.04-.54-.45-.26-.76-.62-.92-1.06-.16-.44-.25-1.44-.25-3v-6.9h6.39v-4.22h-6.39v-6.81h-3.81c-.17,1.39-.49,2.53-.94,3.42-.45.9-1.06,1.66-1.81,2.31-.75.64-1.65,1.13-2.7,1.47v3.83h2.94v9.43Z"/>
      <path class="cls-1" d="M522.81,167.3h0s-.01-.01-.03-.03h0c-.34-.21-.68-.24-.89-.32,0,0-.01,0-.01,0-1.46-.46-2.71-1.45-3.65-2.66-.52-.68-.96-1.41-1.25-2.18h0c-.12-.35-.12-.72.05-.95,0,0,0,0,0,0,.26-.37.75-.61,1.26-.8h0c.57-.2,1.19-.43,1.7-.88,0,0,0,0,.01,0,.08-.07.17-.17.24-.32.01-.03.03-.07.04-.12.04-.14.04-.3-.03-.44h0c-.15-.3-.4-.46-.59-.57h0c-.32-.19-.69-.2-1.02-.09h0c-.35.1-.64.23-.9.26,0,0-.01,0-.02,0-.37.06-.74.08-1.02-.03,0-.04,0-.12-.02-.23h0c-.03-.62.03-1.26.04-1.92h0c.03-1.01.07-2.04-.08-3.09h0c-.33-1.77-1.46-3.29-2.89-4.29-1.04-.73-2.27-1.14-3.53-1.26h0c-.43-.04-.85-.05-1.27-.05-1.69.01-3.45.46-4.83,1.53-1.03.81-1.84,1.88-2.35,3.07h0c-.49,1.23-.44,2.54-.38,3.75h0c.04.85.14,1.68.06,2.46,0,.03,0,.04-.01.05-.38.07-.8.04-1.21-.03h0c-.28-.05-.59-.16-.93-.26,0,0-.01,0-.02,0-.33-.07-.66.02-.9.21,0,0-.01,0-.01,0,0,0-.01,0-.01.01-.21.13-.48.35-.5.74,0,.03,0,.05,0,.07,0,0,0,0,0,0,.04.23.18.39.31.5.13.11.24.18.32.24,0,0,.01,0,.02.01.62.41,1.3.59,1.9.82h0c.41.18.77.46.85.81.1.44-.09.96-.34,1.46h0c-.67,1.32-1.66,2.47-2.89,3.31-.64.44-1.37.77-2.12.97,0,0-.02,0-.03.01-.15.06-.52.09-.75.44-.01.03-.03.05-.04.08-.08.22.01.46.12.59.1.12.22.2.32.25,0,0,.01,0,.02,0,.63.37,1.33.52,1.96.68,0,0,0,0,0,0,.46.1.88.15,1.22.3.01.03.05.14.13.34.12.35.17.75.3,1.19.04.12.14.21.26.24.29.06.44-.03.47-.04h.04c1.06-.19,2.12-.35,3.09-.11h0c1.02.27,1.91.97,2.91,1.57h0c.66.42,1.43.82,2.32.86h0c.67.04,1.32,0,1.97-.04h.01c.55-.05,1.08-.24,1.55-.53,0,0,.01-.01.02-.01,1.05-.6,1.98-1.31,3-1.77h0c.33-.12.75-.11,1.2-.14h.01c.85-.03,1.69.02,2.54.13.03,0,.06,0,.08,0,.12-.01.23-.09.29-.16.06-.07.08-.14.09-.18.03-.08.05-.12,0-.05.01-.03.03-.05.03-.07.15-.51.24-.97.49-1.25.11-.11.3-.16.52-.16h.05c.73-.08,1.39-.35,2.02-.57,0,0,.02,0,.03,0,.23-.1.58-.22.82-.55h0c.2-.28.1-.66-.17-.83h0Z"/>
      <g>
        <path class="cls-1" d="M465.97,159.76c-.17-6.85-5.82-12.35-12.76-12.35s-12.46,5.37-12.76,12.12c0,.19-.01.37-.01.56,0,2.4.67,4.63,1.83,6.55l-2.3,6.8,7.07-2.25c1.83,1,3.93,1.58,6.17,1.58,7.06,0,12.77-5.67,12.77-12.68,0-.11,0-.22,0-.32ZM453.2,170.74c-2.18,0-4.21-.65-5.91-1.76l-4.13,1.32,1.34-3.96c-1.29-1.76-2.04-3.92-2.04-6.25,0-.35.02-.69.05-1.03.53-5.39,5.12-9.62,10.68-9.62s10.27,4.33,10.7,9.82c.02.28.04.55.04.83,0,5.88-4.82,10.65-10.74,10.65Z"/>
        <path class="cls-1" d="M459.05,162.64c-.32-.16-1.85-.91-2.14-1.01-.29-.11-.5-.16-.71.16-.21.31-.81,1.01-.99,1.21-.19.21-.36.23-.68.08-.31-.16-1.32-.48-2.52-1.54-.93-.82-1.56-1.84-1.74-2.15-.18-.31-.02-.48.14-.63.14-.14.31-.36.47-.54.04-.05.08-.1.11-.15.07-.11.13-.22.2-.37.11-.21.05-.39-.02-.54-.08-.16-.71-1.69-.97-2.31-.26-.62-.52-.51-.71-.51s-.39-.03-.6-.03-.55.08-.84.39c-.29.31-1.09,1.06-1.09,2.59,0,.36.07.72.16,1.06.32,1.09,1,2,1.12,2.15.16.2,2.16,3.44,5.34,4.69,3.19,1.24,3.19.82,3.76.77.57-.05,1.85-.75,2.11-1.48.26-.72.26-1.35.19-1.48-.08-.13-.29-.2-.6-.36Z"/>
      </g>
      <path class="cls-4" d="M609.91,160.43c0,7.29,5.91,13.21,13.21,13.21.85,0,1.67-.08,2.48-.24,1.16.7,2.52,1.11,3.98,1.11,4.26,0,7.71-3.45,7.71-7.71,0-1.49-.43-2.89-1.16-4.07.13-.75.2-1.52.2-2.3,0-7.3-5.91-13.21-13.21-13.21-.83,0-1.64.08-2.43.23-1.17-.71-2.54-1.12-4-1.12-4.26,0-7.71,3.45-7.71,7.71,0,1.48.42,2.87,1.15,4.05-.14.76-.21,1.55-.21,2.35ZM623.26,151.04c4.26.25,6.75,2.12,7,3.87.12,1.14-.64,2.03-1.96,2.03-1.93,0-2.12-2.57-5.44-2.57-1.5,0-2.76.62-2.76,1.97,0,2.82,10.63,1.18,10.63,7.39,0,3.58-2.87,5.93-7.14,5.93-3.76,0-7.54-1.71-7.52-4.64,0-.89.67-1.7,1.55-1.7,2.22,0,2.2,3.29,5.72,3.29,2.47,0,3.32-1.35,3.32-2.29,0-3.4-10.69-1.31-10.69-7.71,0-3.46,2.84-5.84,7.31-5.58Z"/>
      <path class="cls-4" d="M274.53,213.53c.37.15.7,0,.81-.4.07-.28.25-1,.33-1.3.11-.41.07-.55-.23-.9-.65-.77-1.07-1.76-1.07-3.17,0-4.09,3.06-7.75,7.96-7.75,4.34,0,6.73,2.65,6.73,6.2,0,4.66-2.06,8.6-5.13,8.6-1.69,0-2.96-1.4-2.55-3.12.49-2.05,1.43-4.26,1.43-5.74,0-1.32-.71-2.43-2.18-2.43-1.73,0-3.12,1.79-3.12,4.19,0,1.53.52,2.56.52,2.56,0,0-1.77,7.5-2.08,8.82-.62,2.62-.09,5.82-.05,6.15.03.19.27.24.38.09.16-.21,2.22-2.75,2.92-5.29.2-.72,1.14-4.45,1.14-4.45.56,1.07,2.2,2.02,3.95,2.02,5.2,0,8.73-4.74,8.73-11.09,0-4.8-4.06-9.27-10.24-9.27-7.69,0-11.56,5.51-11.56,10.11,0,2.78,1.05,5.26,3.31,6.18Z"/>
      <g>
        <path class="cls-4" d="M222.14,219.19c.72-.15,1.35-.43,1.88-.83.47-.35.86-.79,1.18-1.31.49-.78.74-1.66.74-2.65s-.22-1.76-.65-2.43c-.43-.67-1.07-1.16-1.92-1.47.56-.28.98-.6,1.27-.95.51-.61.77-1.43.77-2.44s-.25-1.83-.76-2.53c-.84-1.15-2.28-1.74-4.3-1.77h-8.03v16.6h7.48c.84,0,1.63-.08,2.35-.23ZM215.62,205.7h3.61c.8,0,1.45.09,1.96.26.6.25.89.76.89,1.53,0,.7-.23,1.19-.68,1.46-.45.27-1.03.41-1.76.41h-4.04v-3.66ZM215.62,216.54v-4.43h4.09c.71,0,1.27.1,1.66.28.7.32,1.06.92,1.06,1.78,0,1.02-.36,1.71-1.09,2.07-.4.2-.96.29-1.68.29h-4.03Z"/>
        <g>
          <path class="cls-4" d="M228.74,218.33c1.25,1.01,2.69,1.51,4.32,1.51,1.98,0,3.52-.6,4.62-1.79.71-.75,1.1-1.49,1.19-2.22h-3.28c-.19.36-.41.64-.66.84-.46.38-1.05.56-1.78.56-.69,0-1.28-.15-1.77-.46-.81-.5-1.23-1.36-1.28-2.59h8.94c.02-1.06-.02-1.87-.11-2.44-.15-.96-.48-1.81-.98-2.54-.56-.83-1.26-1.43-2.12-1.82-.86-.38-1.82-.57-2.89-.57-1.8,0-3.26.57-4.39,1.7-1.13,1.13-1.69,2.77-1.69,4.89,0,2.27.62,3.91,1.87,4.92ZM231.04,210.16c.45-.47,1.09-.7,1.92-.7.76,0,1.39.22,1.91.66.51.44.8,1.09.86,1.94h-5.53c.12-.8.4-1.43.86-1.9Z"/>
          <rect class="cls-4" x="229.13" y="203.77" width="7.22" height="1.68"/>
        </g>
      </g>
      <g>
        <g>
          <rect class="cls-4" x="388.12" y="206.04" width="4.91" height="15.85"/>
          <path class="cls-4" d="M390.55,203.96c1.6,0,2.9-1.31,2.9-2.93s-1.3-2.93-2.9-2.93-2.9,1.31-2.9,2.93,1.3,2.93,2.9,2.93Z"/>
        </g>
        <path class="cls-4" d="M400.87,213.57c0-2.23,1.03-3.56,2.99-3.56,1.8,0,2.67,1.27,2.67,3.56v8.32h4.88v-10.04c0-4.25-2.41-6.3-5.77-6.3s-4.78,2.62-4.78,2.62v-2.14h-4.71v15.85h4.71v-8.32Z"/>
      </g>
      <path class="cls-4" d="M341.15,197.46c-7.66,0-13.86,6.21-13.86,13.86s6.21,13.86,13.86,13.86,13.86-6.21,13.86-13.86-6.21-13.86-13.86-13.86ZM347.53,217.5c-.28.42-.76.55-1.18.28-3.26-2.01-7.35-2.43-12.2-1.32-.49.14-.9-.21-1.04-.62-.14-.49.21-.9.62-1.04,5.27-1.18,9.84-.69,13.45,1.52.49.21.55.76.35,1.18ZM349.19,213.68c-.35.49-.97.69-1.46.35-3.74-2.29-9.43-2.98-13.79-1.59-.55.14-1.18-.14-1.32-.69-.14-.55.14-1.18.69-1.32,5.06-1.52,11.3-.76,15.6,1.87.42.21.62.9.28,1.39ZM349.33,209.8c-4.44-2.63-11.85-2.91-16.08-1.59-.69.21-1.39-.21-1.59-.83-.21-.69.21-1.39.83-1.59,4.92-1.46,13.03-1.18,18.16,1.87.62.35.83,1.18.49,1.8-.35.49-1.18.69-1.8.35Z"/>
      <path class="cls-4" d="M518.6,199.69c-3.73-.12-6.25,1.98-7.58,6.32.68-.29,1.35-.44,1.99-.44,1.37,0,1.97.77,1.81,2.31-.08.93-.68,2.28-1.81,4.06-1.13,1.78-1.97,2.67-2.54,2.67-.73,0-1.39-1.37-1.99-4.11-.2-.81-.57-2.86-1.09-6.17-.48-3.06-1.77-4.5-3.86-4.29-.89.08-2.22.89-3.99,2.42-1.29,1.17-2.6,2.34-3.93,3.5l1.27,1.63c1.21-.84,1.91-1.27,2.11-1.27.92,0,1.79,1.45,2.59,4.35.72,2.65,1.45,5.31,2.17,7.96,1.08,2.9,2.41,4.34,3.98,4.34,2.53,0,5.62-2.38,9.28-7.13,3.54-4.55,5.37-8.14,5.49-10.76.16-3.51-1.14-5.3-3.91-5.38Z"/>
      <path class="cls-4" d="M567.62,196.21c-8.35,0-15.12,6.77-15.12,15.12s6.77,15.12,15.12,15.12,15.12-6.77,15.12-15.12-6.77-15.12-15.12-15.12ZM567.62,198.84c2.87,0,5.5.98,7.61,2.61-1.52,1.96-3.61,3.5-6.28,4.64-1.28-2.34-2.74-4.63-4.39-6.85.98-.25,2-.4,3.06-.4ZM561.98,200.2c1.68,2.2,3.16,4.46,4.46,6.78-3.06.9-6.72,1.36-10.94,1.39.87-3.57,3.28-6.54,6.49-8.17ZM555.13,211.33c0-.11.01-.21.02-.32,4.85,0,9.03-.56,12.53-1.67.29.6.57,1.2.84,1.8-4.26,1.33-7.76,4.06-10.5,8.16-1.8-2.16-2.89-4.95-2.89-7.98ZM567.62,223.81c-2.89,0-5.54-.99-7.66-2.65,2.48-3.89,5.65-6.42,9.57-7.59,1.17,3.05,2.03,6.18,2.57,9.4-1.39.54-2.9.84-4.48.84ZM574.55,221.71c-.55-2.96-1.36-5.86-2.42-8.69,2.36-.33,4.96-.25,7.81.25-.55,3.51-2.55,6.54-5.39,8.44ZM571.12,210.53c-.31-.71-.63-1.42-.97-2.12,2.91-1.26,5.25-2.97,6.99-5.14,1.7,2.01,2.77,4.56,2.92,7.35-3.24-.53-6.23-.56-8.95-.09Z"/>
      <g>
        <path class="cls-4" d="M608.56,203.63l7.28,4.64,7.28-4.64-7.28-4.64-7.28,4.64Z"/>
        <path class="cls-4" d="M623.12,203.63l7.28,4.64,7.28-4.64-7.28-4.64-7.28,4.64Z"/>
        <path class="cls-4" d="M608.56,212.85l7.28,4.64,7.28-4.64-7.28-4.64-7.28,4.64Z"/>
        <path class="cls-4" d="M630.41,208.2l-7.28,4.64,7.28,4.64,7.28-4.64-7.28-4.64Z"/>
        <path class="cls-4" d="M615.9,219.02l7.28,4.64,7.28-4.64-7.28-4.64-7.28,4.64Z"/>
      </g>
      <g>
        <path class="cls-4" d="M471.15,202.13c-.44-1.64-1.72-2.94-3.36-3.38-2.96-.8-14.83-.8-14.83-.8,0,0-11.87,0-14.83.8-1.63.44-2.92,1.73-3.36,3.38-.79,2.98-.79,9.2-.79,9.2,0,0,0,6.22.79,9.2.44,1.64,1.72,2.94,3.36,3.38,2.96.8,14.83.8,14.83.8,0,0,11.87,0,14.83-.8,1.63-.44,2.92-1.73,3.36-3.38.79-2.98.79-9.2.79-9.2,0,0,0-6.22-.79-9.2Z"/>
        <polygon class="cls-5" points="449.08 216.97 449.08 205.68 459 211.33 449.08 216.97"/>
      </g>
      <rect x="175" y="-206.33" width="500" height="24.1"/>
      <rect x="175" y="269.56" width="500" height="24.1"/>
      <g>
        <g>
          <path d="M362.67-118.94c1.71,0,2.73.79,2.73,2.12,0,.99-.57,1.71-1.56,1.91,1.22.18,1.94.98,1.94,2.14,0,1.44-1.14,2.3-3.05,2.3h-3.63v-8.47h3.57ZM360.07-115.28h2.55c1.14,0,1.8-.5,1.8-1.38s-.67-1.34-1.8-1.34h-2.55v2.72ZM360.07-111.39h2.55c1.38,0,2.18-.54,2.18-1.51s-.8-1.46-2.18-1.46h-2.55v2.98Z"/>
          <path d="M373.35-112.61l-.94,2.14h-1.03l3.8-8.47h1l3.79,8.47h-1.05l-.94-2.14h-4.62ZM375.65-117.84l-1.89,4.3h3.8l-1.91-4.3Z"/>
          <path d="M392.66-117.73l-.58.74c-.65-.67-1.57-1.07-2.5-1.07-1.91,0-3.45,1.48-3.45,3.34s1.54,3.34,3.45,3.34c.93,0,1.84-.39,2.5-1.02l.59.67c-.83.79-1.97,1.31-3.15,1.31-2.44,0-4.38-1.9-4.38-4.3s1.96-4.25,4.42-4.25c1.16,0,2.29.47,3.1,1.23Z"/>
          <path d="M401.88-114.48l-1.65,1.8v2.21h-.97v-8.47h.97v4.88l4.55-4.88h1.15l-3.35,3.68,3.61,4.79h-1.19l-3.12-4.02Z"/>
          <path d="M419.03-114.6v3.07c-.84.67-2.01,1.11-3.15,1.11-2.46,0-4.42-1.9-4.42-4.28s1.97-4.26,4.47-4.26c1.17,0,2.31.45,3.12,1.16l-.56.73c-.69-.62-1.62-.98-2.56-.98-1.94,0-3.49,1.49-3.49,3.35s1.56,3.36,3.5,3.36c.76,0,1.57-.27,2.23-.71v-2.55h.86Z"/>
          <path d="M430.01-113.16c-.18.01-.38.02-.57.02h-2.25v2.67h-.97v-8.47h3.22c2.12,0,3.34,1.04,3.34,2.84,0,1.4-.68,2.35-1.9,2.75l1.98,2.88h-1.1l-1.75-2.7ZM429.44-114.07c1.54,0,2.41-.68,2.41-2s-.87-1.94-2.41-1.94h-2.25v3.93h2.25Z"/>
          <path d="M447.89-114.7c0,2.38-1.96,4.28-4.43,4.28s-4.44-1.9-4.44-4.28,1.96-4.26,4.44-4.26,4.43,1.88,4.43,4.26ZM440-114.7c0,1.86,1.57,3.35,3.46,3.35s3.44-1.49,3.44-3.35-1.55-3.34-3.44-3.34-3.46,1.48-3.46,3.34Z"/>
          <path d="M461.43-113.95c0,2.2-1.33,3.53-3.55,3.53s-3.57-1.33-3.57-3.53v-4.99h.97v4.99c0,1.65.99,2.6,2.6,2.6s2.58-.96,2.58-2.6v-4.99h.97v4.99Z"/>
          <path d="M474.7-110.47l-5.08-6.8v6.8h-.97v-8.47h1l5.08,6.81v-6.81h.96v8.47h-.99Z"/>
          <path d="M486.54-118.94c2.47,0,4.36,1.83,4.36,4.24s-1.9,4.23-4.39,4.23h-3.39v-8.47h3.42ZM484.09-111.39h2.47c1.89,0,3.36-1.42,3.36-3.3s-1.5-3.32-3.4-3.32h-2.43v6.62Z"/>
        </g>
        <g>
          <path d="M358.68-134.5l-.06-.38-.18-.44-.15-.35-.44-.71-.18-.21-.18-.18-.15-.21-.18-.21-.15-.21-.18-.21-.18-.18-.21-.18-.18-.18-.35-.41-.15-.18-.21-.24-.15-.12-.21-.21-.53-.62-.21-.26-.62-.88-.18-.32-.12-.26-.09-.24-.09-.26-.18-.47-.06-.26-.03-.24v-.26l-.03-.29v-.38l.03-.35.03-.29.03-.26.12-.53.12-.26.09-.26.12-.24.15-.26.15-.21.18-.24.18-.21.38-.38.21-.18.24-.15.47-.24.26-.12.71-.26.32-.09.53-.12h.59l.47-.03h.29l.38.03.32.03.59.12.26.09.24.12.26.12.62.38.23.18.21.18.15.18.18.21.18.24.21.29.18.32.09.26.06.26.03.29.06.35v.91l-.03.26-.06.26-.12.24-.21.15-.24.12-.27.03-.23.03-.27-.06-.24-.15-.21-.29-.09-.32-.03-.29v-.56l-.03-.26-.09-.24-.09-.26-.12-.24-.15-.24-.18-.21-.21-.18-.21-.15-.24-.15-.24-.09-.26-.09-.24-.03-.82-.09h-.27l-.29.03-.53.18-.47.29-.21.18-.21.21-.15.21-.15.26-.09.24-.12.26-.09.26-.06.29-.03.26v.56l.03.26.06.26.06.24.12.26.09.24.15.26.18.35.18.32.29.47.71.82.15.21.59.59.71.82.38.38.15.21.32.41.18.21.18.24.15.21.12.24.15.24.24.47.12.26.12.24.09.26.09.24.06.26.03.26.06.26.03.26-.03.29-.06.53-.12.53-.03.26-.03.24-.06.26-.09.26-.12.24-.12.26-.35.65-.18.26-.18.21-.21.21-.15.12-.24.21-.15.15-.47.35-.47.24-.24.15-.29.12-.23.09-.21.06-.26.09-.29.06-.27.03-.21.06-.88.09h-.74l-.79-.09h-.21l-.29-.06-.41-.09-.62-.21-.24-.12-.21-.15-.29-.18-.47-.35-.47-.47-.18-.21-.29-.41-.15-.24-.15-.21-.18-.53-.06-.26-.09-.35-.09-.38-.06-.26-.03-.26v-.56l.03-.24v-.53l.03-.26.18-.79.09-.35.09-.38.09-.26.24-.26.41-.18h.44l.38.09.24.18.15.26v.35l-.03.29-.06.26-.09.26-.03.26-.06.26v.82l.09.79.06.26.26.79.15.24.18.26.09.15.21.24.18.18.21.18.23.15.21.15.24.15.27.12.23.09.29.06.26.03h.35l.82-.06.35-.03.27-.09.47-.18.24-.12.24-.15.24-.26.26-.26.18-.24.18-.29.18-.32.12-.29.12-.35.12-.44.06-.38.03-.29-.03-.38-.03-.35-.06-.29Z"/>
          <path d="M371.92-129.61l-.41.35-.47.29-.24.12-.47.29-.23.12-.53.18-.29.09-.53.09-.18.06-.29.06-.24.03h-.26l-.32.03h-.26l-.53-.06-.32-.09-.27-.09-.21-.09-.26-.09-.24-.12-.47-.29-.21-.18-.35-.41-.15-.24-.12-.24-.15-.24-.18-.53-.12-.53-.06-.53-.03-.29.03-.26v-.82l.06-.26.06-.24.06-.26.09-.53.06-.29.06-.26.09-.24.09-.26.12-.26.12-.24.09-.26.15-.35.18-.35.15-.24.18-.24.15-.21.18-.21.29-.47.18-.21.38-.38.41-.35.21-.15.24-.18.27-.18.32-.21.32-.18.24-.12.29-.12.18-.06.32-.12.18-.06.29-.09.26-.06.29-.03.26-.03h.68l.47.06.38.06.27.06.26.09.24.12.53.32.32.18.21.18.15.18.18.21.18.24.35.65.09.26.03.26.03.24.12.53v1.03l-.06.35-.03.32-.03.29-.18.88-.12.41-.09.29-.12.29-.12.32-.09.26-.18.32-.27.53-.15.32.03.21.23.03h.18l.32-.03.21-.03.26-.06.29-.12.21-.12.47-.29.21-.18.38-.38.35-.41.15-.21.15-.24.15-.21.23-.47.27-.5.09-.18.18-.26.27-.15.35.06.24.26.03.32-.09.26-.35.71-.15.21-.29.47-.12.24-.15.21-.18.24-.15.21-.18.18-.38.41-.18.18-.21.18-.21.15-.24.18-.21.12-.47.24-.27.12-.24.06-1.06.12-.32-.03-.27-.03-.24-.06-.23-.03-.21.09-.21.15-.18.21ZM366.09-132.82l-.03.35.03.29.03.38.06.47.12.47.21.44.21.29.24.21.32.15.44.12h.38l.29-.03.29-.06.27-.12.23-.12.27-.15.24-.15.21-.18.23-.18.12-.21v-.18l-.12-.21-.15-.24-.06-.26.06-.35.12-.35.21-.18.23-.15.27-.03.26.06.21.06.18-.03.12-.18.09-.24.35-1.06.18-.79.06-.38.09-.5.06-1-.03-.47-.12-.5-.18-.44-.21-.29-.24-.18-.35-.15-.44-.09-.38-.03h-.29l-.24.06-.26.09-.29.18-.24.15-.27.18-.29.24-.21.18-.21.21-.15.21-.18.21-.15.24-.29.41-.15.24-.59,1.18-.09.26-.06.24-.18.53-.06.24-.09.26-.03.26v.26l-.06.35Z"/>
          <path d="M381-128.02l-.24-.03-.26-.06-.26-.09-.35-.15-.32-.18-.26-.15-.29-.24-.26-.26-.21-.18-.18-.21-.18-.18-.12-.24-.15-.26-.15-.35-.15-.32-.09-.26-.09-.38-.06-.35-.03-.29-.03-.26v-.53l.03-.24.03-.26.03-.29.06-.35.09-.38.09-.26.06-.26.21-.62.15-.32.15-.26.47-.94.15-.24.29-.41.41-.44.09-.12.21-.24.21-.18.18-.18.21-.18.21-.15.24-.18.21-.15.23-.12.24-.15.21-.12.24-.12.32-.15.62-.18.32-.09.26-.06.27-.03.29-.03h.5l.27.03.38.06.44.12.38.12.27.09.21.12.21.15.21.18.18.21.18.18.12.26.12.32.09.35.03.29-.03.35-.09.38-.09.26-.12.24-.15.24-.21.29-.21.26-.18.21-.21.18-.24.12-.38.06h-.47l-.47-.12-.29-.21v-.29l.15-.26.21-.32.18-.26.12-.26.06-.24.06-.26v-.24l-.06-.26-.21-.29-.29-.21-.27-.09-.26-.03-.27.03-.35.06-.35.12-.26.12-.21.15-.24.18-.21.15-.24.18-.24.26-.21.21-.21.26-.26.32-.18.32-.12.26-.15.24-.12.21-.12.24-.09.26-.09.24-.09.26-.09.38-.09.35-.06.29-.06.35-.03.38-.03.29v.38l.03.47.09.41.09.29.29.59.18.24.18.18.21.18.32.15.35.15.26.06.38.06h.65l.68-.06.26-.06.32-.09.27-.12.32-.18.32-.15.71-.44.29-.24.26-.24.41-.35.35-.41.18-.18.35-.41.29-.41.18-.26.09-.18.21-.32.18-.29.12-.26.21-.38.29-.21.38.06.24.26v.32l-.09.24-.12.24-.12.26-.15.29-.21.32-.24.32-.24.35-.44.65-.18.24-.15.21-.21.21-.53.62-.15.21-.18.18-.21.18-.41.29-.18.15-.21.15-.26.21-.24.15-.24.12-.24.15-.35.15-.35.12-.32.09-.35.06-.35.09-.53.09-.79.09-.53-.06-.27-.06Z"/>
          <path d="M395.77-134.59v.32l-.09.26-.23.47-.27.44-.15.26-.12.24-.18.26-.09.18-.15.26-.15.24-.15.21-.18.24-.15.21-.29.47-.53.62-.35.38-.21.21-.18.21-.21.18-.65.5-.21.15-.26.12-.26.09-.24.06-.53.12h-.5l-.32-.03-.24-.09-.26-.09-.24-.15-.21-.18-.15-.21-.15-.24-.12-.26-.06-.24-.06-.26-.03-.26v-.26l.06-.53.06-.26.09-.26.12-.53.09-.24.06-.26.09-.26.09-.24.26-.79.03-.24.06-.26.09-.26.06-.26.06-.24.18-.53.09-.35.09-.38.18-.53.06-.26.06-.21.06-.26.12-.29.09-.24.18-.79.09-.26.09-.35.12-.38.09-.26.12-.24.18-.15.26-.12.24-.03.29.03.53.06.47.18.15.21v.26l-.06.26-.09.35-.09.38-.18.53-.06.24-.06.26-.09.29-.09.35-.29.88-.06.26-.12.38-.21.62-.06.26-.06.24-.06.26-.21.5-.06.26-.21.74-.18.53-.06.26-.09.38-.09.47-.06.5.06.44.24.32.32.09.27-.03.26-.12.21-.15.24-.18.97-.97.18-.21.15-.21.18-.24.29-.47.18-.21.12-.18.15-.24.18-.26.12-.26.24-.5.35-.71.15-.24.26-.15.38.06.23.29ZM391.04-143.62l.15-.24.24-.21.24-.15.29-.09.26-.06h.29l.26.06.24.15.21.18.21.21.15.24.09.26.03.26v.29l-.09.26-.15.24-.18.24-.21.18-.23.18-.27.12-.29.06-.27-.03-.29-.06-.47-.29-.18-.21-.15-.24-.06-.26-.03-.26.03-.26.06-.29.12-.26Z"/>
          <path d="M409.22-133.79l-.06.15-.15.29-.15.21-.12.24-.12.26-.12.24-.29.47-.15.21-.15.24-.12.24-.15.24-.18.21-.18.24-.18.21-.32.41-.18.21-.18.18-.82.71-.24.15-.27.15-.32.15-.35.15-.27.09-.26.06h-.29l-.35-.03-.35-.09-.27-.09-.21-.15-.21-.18-.21-.29-.21-.32-.09-.26-.09-.35-.03-.38v-.29l.03-.38.03-.35-.09-.06-.15.21-.29.47-.29.41-.18.21-.15.21-.18.21-.15.21-.21.18-.18.18-.21.18-.21.15-.24.15-.32.21-.44.21-.47.15-.38.09-.53.06-.29-.03-.35-.06-.35-.09-.26-.09-.24-.09-.21-.15-.41-.35-.15-.21-.15-.24-.18-.32-.18-.44-.09-.38-.03-.29-.06-.38-.03-.47v-.38l.03-.29.03-.38.06-.35.09-.29.09-.35.09-.38.09-.26.12-.24.09-.26.71-1.41.15-.24.15-.21.15-.24.29-.41.18-.21.38-.44.12-.12.21-.24.41-.35.26-.26.32-.24.41-.32.24-.15.21-.15.26-.12.35-.15.32-.18.29-.15.35-.12.35-.09.29-.09.74-.06.27-.03h.35l.59.03.68.06.65.12.27.06.32.09,1.18.53.21.18.21.15.21.18.18.21.06.32-.12.41-.32.35-.32.21-.23.03-.24-.09-.24-.18-.26-.15-.24-.15-.21-.09-.24-.12-.26-.12-.24-.06-.5-.12-.29-.09-.29-.06h-.59l-.21.03-.29.03-.38.09-.74.26-.29.15-.29.18-.21.15-.24.15-.21.15-.21.18-.23.21-.12.12-.21.24-.18.21-.15.21-.35.41-.15.21-.15.24-.35.71-.15.24-.18.53-.12.26-.12.24-.18.79-.09.29-.09.79v.82l.03.29.09.26.12.24.15.24.18.18.26.12.35.06.38-.03.27-.09.47-.24.41-.35.18-.18.21-.18.18-.21.15-.21.18-.21.15-.21.32-.44.15-.21.44-.71.18-.32.21-.38.12-.18.35-.76.12-.26.06-.21.12-.26.09-.24.09-.26.12-.32.18-.59.12-.32.09-.29.18-.26.29-.15.26-.06.27.03.26.06.47.24.23.15.12.18.03.26-.09.24-.06.26-.09.26-.12.53-.09.26-.06.24-.18.53-.06.29-.03.18-.09.35-.06.26-.12.5-.09.35-.06.29-.06.32-.09.44-.09.5-.03.44.03.38.15.24.29.15.44.03.35-.12.26-.15.41-.29.21-.21.35-.38.35-.41.29-.41.15-.24.18-.24.06-.18.47-.71.12-.24.15-.24.59-1.18.27-.15.35.06.24.29.03.29-.12.26-.15.29Z"/>
          <path d="M417.63-142.38l-.15.26-.23.47-.15.32-.21.32-.15.21-.15.24-.15.21-.15.26-.12.18-.15.24-.21.26-.26.29-.27.26-.12.15-.21.24-.38.38-.18.21-.32.35-.21.18-.24.24-.32.24-.44.38-.23.15-.65.41-.21.09-.24.15-.32.26-.21.26-.12.24-.06.32-.09.53v.18l-.06.29-.06.26-.03.29v.62l-.03.38v.59l.06.32.03.18.06.29.12.26.12.24.18.21.24.15.23.09.29.06h.5l.24-.03.26-.09.35-.15.32-.18.23-.18.29-.24.26-.26.35-.32.23-.21.18-.24.12-.15.18-.24.12-.21.18-.26.12-.15.18-.26.24-.44.15-.24.18-.26.15-.26.15-.29.27-.38.29-.24.38.06.24.29v.29l-.09.26-.12.24-.15.24-.12.26-.12.24-.09.24-.15.24-.12.21-.15.24-.18.26-.06.15-.15.26-.18.24-.29.41-.21.26-.12.12-.21.26-.18.21-.24.29-.26.24-.21.21-.18.15-.21.18-.27.15-.24.12-.26.12-.24.12-.24.09-.26.12-.35.12-.59.12-.35.03-.32-.03h-.18l-.29-.03-.27-.06-.23-.09-.27-.09-.24-.12-.23-.15-.21-.18-.18-.18-.18-.21-.12-.24-.12-.26-.09-.24-.06-.26-.09-.26-.03-.26-.06-.29v-.18l-.06-.32-.03-.26v-.26l.03-.26.03-.29v-.18l.03-.38.09-.65.03-.35v-.26l.06-.26.06-.29.21-.97.09-.35.09-.53.06-.15.09-.35.06-.18.12-.44.09-.38.06-.26.09-.35.12-.41.03-.21.12-.41.12-.38.09-.21.12-.38.12-.35.12-.26.29-.76.06-.18.18-.41.21-.47.15-.35.12-.26.09-.18.15-.26.21-.5.15-.29.15-.26.18-.26.24-.38.38-.53.18-.24.38-.38.12-.15.21-.21.21-.15.47-.32.32-.21.32-.15.26-.09.27-.06h.53l.29.06.18.03.29.09.23.12.41.35.15.24.21.29.15.35.12.26.12.35.06.38v.53l-.06.79-.12.53-.09.24-.06.29-.24.71-.12.24-.09.26ZM412.75-141.56l-.41,1.24-.06.26-.09.26-.12.38-.21.62-.09.29-.03.18-.09.29-.09.26-.06.29.06.18.18-.12.29-.24,1.21-1.21.15-.21.15-.24.18-.26.12-.12.18-.26.21-.26.21-.29.21-.32.15-.24.12-.21.15-.21.24-.47.12-.29.09-.18.12-.29.12-.26.06-.26.09-.26.09-.32.12-.32.09-.32.12-.32.03-.29.03-.26v-.56l-.06-.24-.09-.24-.21-.15-.24-.06-.26.06-.27.21-.21.18-.15.18-.15.21-.15.24-.29.44-.15.26-.12.26-.12.24-.12.26-.12.24-.12.26-.09.24-.12.32-.18.44-.12.26-.29.74Z"/>
          <path d="M443.2-148.62l.35.12.32.15.24.15.41.35.29.41.09.24.09.26.06.32.12.59.03.32v.56l-.03.26-.06.35-.03.38-.03.18.03.03.12-.15.15-.24.15-.21.18-.21.15-.21.18-.21.21-.18.15-.21.18-.21.56-.56.21-.18.56-.5.29-.24.38-.29.21-.18.41-.29.24-.15,1-.38.38-.12.35-.06h1.09l.53.12.26.09.47.24.21.15.21.21.18.21.15.21.12.24.09.26.06.24.06.26.03.26.03.29v.53l-.03.26v.29l-.03.18-.03.32-.03.26-.06.26-.06.21-.06.29-.15.76-.06.26-.18.53-.06.26-.09.26-.06.24-.18.53-.06.24-.06.26-.18.53-.06.24-.18.53-.06.26-.06.24-.09.26-.06.26-.09.26-.09.24-.06.26-.09.26-.06.26-.06.24-.06.26-.09.26-.09.24-.09.26-.09.24-.18.79-.03.26-.06.29-.09.38-.06.35-.06.32-.06.38-.06.35-.03.29v.53l.03.26v.26l.03.26.03.29.03.26.06.24.09.26.15.26.06.18.18.26.18.21.18.18.24.18.21.15.24.26.09.41-.15.44-.26.38-.38.26-.44.06-.38-.06-.26-.09-.24-.15-.21-.12-.18-.15-.21-.15-.24-.21-.21-.26-.09-.12-.21-.29-.35-.65-.09-.29-.06-.18-.09-.29-.03-.26-.03-.24-.09-.79v-.53l-.03-.29v-.26l.03-.26.06-.35.06-.38v-.29l.06-.53.09-.38.06-.41.15-.62.06-.35.09-.29.03-.26.06-.26.09-.35.21-.62.15-.53.09-.35.09-.26.06-.26.06-.35.09-.29.12-.32.09-.29.12-.32.12-.41.09-.35.09-.29.09-.24.09-.26.09-.24.18-.53.06-.26.09-.29.06-.26.06-.21.06-.26.09-.26.12-.53.06-.29.06-.53v-.56l-.06-.53-.06-.26-.12-.24-.18-.21-.24-.18-.24-.09-.29-.03-.35.06-.35.09-.26.12-.24.12-.44.29-.24.15-.21.15-.38.38-.41.35-.18.15-.38.38-.15.21-.21.18-.29.41-.18.21-.15.21-.21.21-.35.41-.32.47-.09.15-.18.24-.29.38-.18.26-.21.35-.21.29-.12.26-.09.24-.18.53-.06.26-.09.38-.09.35-.27.79-.06.24-.09.26-.18.79-.03.24-.09.26-.06.26-.09.26-.06.24-.09.26-.12.53-.09.29-.09.38-.09.32-.09.29-.09.35-.09.38-.09.26-.12.53-.09.29-.09.24-.12.47-.12.53-.09.26-.09.24-.18.53-.15.35-.26.38-.38.26-.47.15-.5.03-.44-.09-.35-.15-.09-.24.03-.24.06-.26.12-.38.09-.35.12-.26.09-.26.09-.24.09-.26.06-.24.09-.26.06-.26.09-.26.06-.26.06-.24.09-.29.12-.35.09-.35.06-.29.06-.26.06-.24.06-.26.09-.26.09-.24.18-.79.09-.26.06-.26.09-.38.09-.35.09-.29.09-.38.09-.35.06-.26.18-.53.06-.24.12-.53.09-.26.06-.26.06-.24.29-1.32.06-.24.18-.53.09-.24.09-.26.06-.26.09-.53.06-.29.06-.26.06-.24.03-.26v-.82l-.03-.26-.06-.26-.09-.26-.15-.21-.21-.21-.24-.15-.24-.09-.26-.03-.29.03-.27.03-.32.15-.32.18-.26.12-.21.15-.41.35-.24.21-.29.24-.24.21-.24.24-.47.53-.21.21-.29.41-.21.24-.12.15-.24.32-.24.29-.41.53-.24.29-.18.24-.21.32-.26.38-.21.32-.12.26-.15.24-.12.24-.12.35-.09.35-.06.26-.12.38-.21.62-.12.38-.09.47-.09.38-.32.97-.09.29-.09.35-.09.38-.09.26-.09.24-.09.26-.09.38-.09.35-.18.53-.06.26-.18.71-.15.47-.09.29-.06.24-.09.26-.09.24-.06.26-.09.24-.09.26-.09.24-.09.26-.15.35-.24.38-.38.24-.47.06-.5-.06-.44-.18-.29-.29-.06-.32.03-.26.18-.53.09-.24.09-.26.12-.53.09-.24.06-.26.12-.32.06-.15.09-.32.06-.24.06-.26.09-.26.09-.24.09-.26.12-.24.09-.26.06-.26.06-.29.09-.35.12-.38.06-.26.18-.53.09-.24.09-.26.18-.79.09-.24.09-.26.06-.26.09-.26.06-.24.06-.26.18-.53.06-.24.06-.26.09-.26.09-.24.12-.53.18-.53.09-.24.06-.26.09-.26.06-.26.09-.24.18-.79.12-.26.06-.26.06-.24.18-.53.09-.24.09-.26.06-.26.03-.18-.06-.03-.15.12-1.03.88-.41.29-.23.15-.47.24-.24.15-.21.15-.23.12-.27.12-.24.09-.23.15-.24.12-.27.15-.32.18-.32.15-.27.12-.24.15-.26.15-.15.09-.26.21-.21.15-.35.41-.15.21-.12.24-.12.53-.03.26v.56l.09.29.12.24.18.24.21.18.27.12.26.09.29.18.15.41-.12.44-.18.29-.24.12h-.26l-.24-.03-.32-.06-.38-.09-.35-.09-.24-.09-.23-.12-.24-.15-.24-.18-.26-.26-.24-.29-.18-.24-.12-.26-.06-.26-.09-.35-.06-.38v-.56l.06-.24.06-.26.21-.62.18-.32.15-.26.24-.29.24-.26.24-.18.21-.15.21-.18.21-.15.26-.15.32-.15.32-.18.29-.15.32-.15.62-.21.47-.24.74-.32.59-.26.32-.12.27-.12.23-.12.5-.26.29-.18.26-.15.24-.18.24-.15.23-.18.41-.35.18-.15.21-.18.21-.15.21-.18.53-.62.15-.24.21-.18.24-.15.27-.06h.29l.29.03.29.09.24.15.24.18.09.24-.03.26-.18.79-.09.24-.09.26-.09.24-.06.26-.09.26-.06.26-.06.24-.18.79-.09.24-.03.15.09-.06.21-.24.09-.18.18-.26.35-.41.18-.18.24-.26.27-.26.21-.24.41-.35.18-.18.21-.18.18-.18.18-.21.21-.15.21-.18.26-.15.15-.09.26-.18.24-.15.21-.15.26-.09.35-.15.29-.09.29-.06.29-.03h1.03l.29.03Z"/>
          <path d="M464.55-135.29l-.15.21-.35.41-.41.35-.21.15-.27.15-.18.06-.29.18-.18.09-.27.12-.29.09-.27.09-.26.03-.29.06-.32.03-.35.06-.26.03h-.27l-.53-.06-.53-.03-.26-.03-.79-.18h-.21l-.15.12-.06.21v.26l-.03.29v.5l.03.29.06.24.18.53.29.47.18.21.18.18.47.29.29.09.26.09.21.03.27.06.26.03h.29l.27-.03.77-.15.26-.06.26-.09.24-.09.5-.21.47-.24.41-.32.21-.15.21-.18.41-.38.35-.41.15-.21.18-.24.29-.41.15-.24.12-.24.15-.24.12-.24.15-.21.12-.24.12-.26.12-.24.15-.24.21-.15h.26l.27.18.15.26-.03.26-.12.26-.15.32-.18.32-.15.32-.18.32-.18.29-.29.47-.09.18-.18.26-.29.41-.18.21-.18.18-.18.21-.21.24-.09.12-.21.24-.18.21-.41.35-.29.24-.27.24-.47.29-.74.32-.24.09-.26.09-.38.06-.35.09-.62.06-.38.03-.32.03h-.26l-1.06-.12-.24-.06-.26-.09-.27-.12-.23-.12-.47-.26-.24-.12-.21-.18-.21-.21-.12-.15-.21-.24-.18-.21-.15-.24-.12-.21-.12-.26-.09-.24-.09-.26-.06-.26-.06-.24-.06-.26-.09-.79v-.56l.03-.26v-.26l.18-.79.09-.24.06-.26.09-.26.06-.26.09-.26.12-.32.15-.35.15-.26.18-.32.21-.29.12-.26.15-.21.18-.21.44-.47.44-.44.24-.21.26-.21.29-.21.26-.21.29-.18.29-.15.27-.12.38-.18.62-.21.53-.12.38-.06h.65l.38.06.47.09.38.09.26.09.26.12.24.12.18.12.41.35.18.21.18.29.15.35.09.26.06.26.03.26v.35l-.03.38-.03.29-.09.35-.12.35-.12.29-.09.15-.15.26-.12.24ZM460.96-138.82l-.41.18-.35.18-.24.15-.41.35-.27.26-.23.26-.21.24-.21.32-.21.29-.15.26-.18.32-.12.35-.12.26-.09.24-.03.21.15.15.38.09.59.03.29.03h.82l.29-.06.26-.06.29-.12.18-.06.29-.15.21-.15.21-.18.21-.21.21-.18.18-.24.15-.21.12-.24.15-.26.18-.53.06-.29.03-.26-.03-.29-.12-.26-.18-.21-.24-.18-.26-.12-.27-.06-.26-.03-.29.06-.38.09Z"/>
          <path d="M468.11-137.7l.21-.21.35-.41.62-.53.21-.15.24-.18.21-.15.24-.12.26-.12.44-.24.26-.15.53-.18.24-.09.53-.12.27-.03.29-.03.53-.06h.68l.38.06.32.06.21.03.18-.09.12-.21.06-.26.18-.53.06-.24.09-.26.21-.5.09-.29.06-.18.12-.29.06-.24.18-.53.09-.24.29-.88.15-.35.18-.53.09-.24.12-.29.06-.18.24-.53.09-.24.26-.5.12-.24.27-.21.32-.12h.29l.26.03.29.06.18.06.29.09.21.15.09.24-.06.24-.06.26-.12.26-.12.24-.09.24-.09.26-.15.35-.12.35-.12.32-.35.94-.12.35-.15.35-.09.26-.09.24-.21.62-.15.35-.09.29-.32.97-.06.26-.09.24-.09.26-.09.24-.09.26-.09.24-.06.26-.06.24-.06.26-.09.26-.09.24-.09.26-.06.26-.06.24-.06.26-.09.26-.09.38-.12.38-.06.18-.09.32-.06.26-.06.35-.06.38-.18.79-.03.26-.06.26-.06.38-.06.35-.03.26-.06.26-.03.26v.26l.03.29.03.38.09.35.09.26.18.18.24.09.26.03.24-.06.27-.09.23-.15.53-.47.21-.21.29-.41.29-.47.41-.59.15-.24.12-.24.15-.26.29-.65.15-.26.12-.21.12-.26.15-.32.32-.24.35.06.21.29v.38l-.15.35-.15.29-.18.32-.18.38-.12.18-.35.71-.18.26-.38.62-.29.47-.15.21-.18.24-.15.21-.18.18-.21.18-.21.24-.12.12-.21.24-.21.18-.24.15-.21.12-.24.12-.77.26-.26.06h-.24l-.26.03-.27-.03-.26-.06-.24-.12-.24-.15-.18-.15-.21-.21-.29-.41-.12-.24-.09-.26-.06-.24-.09-.79v-.56l-.06-.03-.15.21-.15.24-.26.47-.15.21-.18.21-.32.41-.18.18-.62.53-.27.21-.29.24-.26.18-.24.12-.29.09-.68.15-.29.06-.27.03-.23-.03-.27-.03-.26-.06-.24-.06-.26-.12-.21-.12-.24-.18-.27-.26-.26-.24-.15-.24-.12-.24-.09-.26-.18-.47-.09-.26-.03-.26-.03-.35v-.38l-.03-.26v-.26l.03-.29.03-.35.06-.38.06-.26.09-.29.03-.18.09-.29.09-.26.27-.71.09-.26.23-.47.18-.32.15-.32.18-.29.12-.15.18-.24.29-.41.18-.21ZM474.11-138.73l-.56.03h-.26l-.27.06-.29.06-.18.06-.29.12-.27.09-.26.12-.24.15-.21.15-.21.18-.21.21-.41.35-.18.18-.18.21-.35.44-.15.21-.15.26-.35.65-.15.24-.09.24-.09.26-.09.24-.12.26-.18.71-.09.26-.06.38-.03.35-.03.29.06.38.06.47.06.38.09.26.15.21.18.18.21.18.26.12.35.06.35-.03.29-.12.18-.09.27-.15.21-.15.35-.35.21-.24.18-.21.21-.21.15-.21.15-.24.18-.26.21-.35.21-.26.12-.24.12-.26.09-.24.12-.26.15-.35.15-.32.12-.26.09-.24.41-1.24.12-.38.24-.94.09-.38.09-.29.06-.32-.09-.26-.21-.12h-.26Z"/>
          <path d="M486.94-134.59v.32l-.09.26-.23.47-.27.44-.15.26-.12.24-.18.26-.09.18-.15.26-.15.24-.15.21-.18.24-.15.21-.29.47-.53.62-.35.38-.21.21-.18.21-.21.18-.65.5-.21.15-.26.12-.26.09-.24.06-.53.12h-.5l-.32-.03-.24-.09-.26-.09-.24-.15-.21-.18-.15-.21-.15-.24-.12-.26-.06-.24-.06-.26-.03-.26v-.26l.06-.53.06-.26.09-.26.12-.53.09-.24.06-.26.09-.26.09-.24.26-.79.03-.24.06-.26.09-.26.06-.26.06-.24.18-.53.09-.35.09-.38.18-.53.06-.26.06-.21.06-.26.12-.29.09-.24.18-.79.09-.26.09-.35.12-.38.09-.26.12-.24.18-.15.26-.12.24-.03.29.03.53.06.47.18.15.21v.26l-.06.26-.09.35-.09.38-.18.53-.06.24-.06.26-.09.29-.09.35-.29.88-.06.26-.12.38-.21.62-.06.26-.06.24-.06.26-.21.5-.06.26-.21.74-.18.53-.06.26-.09.38-.09.47-.06.5.06.44.24.32.32.09.27-.03.26-.12.21-.15.24-.18.97-.97.18-.21.15-.21.18-.24.29-.47.18-.21.12-.18.15-.24.18-.26.12-.26.24-.5.35-.71.15-.24.26-.15.38.06.23.29ZM482.2-143.62l.15-.24.24-.21.24-.15.29-.09.26-.06h.29l.26.06.24.15.21.18.21.21.15.24.09.26.03.26v.29l-.09.26-.15.24-.18.24-.21.18-.23.18-.27.12-.29.06-.27-.03-.29-.06-.47-.29-.18-.21-.15-.24-.06-.26-.03-.26.03-.26.06-.29.12-.26Z"/>
          <path d="M500.38-133.79l-.06.15-.15.29-.15.21-.12.24-.12.26-.12.24-.29.47-.15.21-.15.24-.12.24-.15.24-.18.21-.18.24-.18.21-.32.41-.18.21-.18.18-.82.71-.24.15-.27.15-.32.15-.35.15-.27.09-.26.06h-.29l-.35-.03-.35-.09-.27-.09-.21-.15-.21-.18-.21-.29-.21-.32-.09-.26-.09-.35-.03-.38v-.29l.03-.38.03-.35-.09-.06-.15.21-.29.47-.29.41-.18.21-.15.21-.18.21-.15.21-.21.18-.18.18-.21.18-.21.15-.24.15-.32.21-.44.21-.47.15-.38.09-.53.06-.29-.03-.35-.06-.35-.09-.26-.09-.24-.09-.21-.15-.41-.35-.15-.21-.15-.24-.18-.32-.18-.44-.09-.38-.03-.29-.06-.38-.03-.47v-.38l.03-.29.03-.38.06-.35.09-.29.09-.35.09-.38.09-.26.12-.24.09-.26.71-1.41.15-.24.15-.21.15-.24.29-.41.18-.21.38-.44.12-.12.21-.24.41-.35.26-.26.32-.24.41-.32.24-.15.21-.15.26-.12.35-.15.32-.18.29-.15.35-.12.35-.09.29-.09.74-.06.27-.03h.35l.59.03.68.06.65.12.27.06.32.09,1.18.53.21.18.21.15.21.18.18.21.06.32-.12.41-.32.35-.32.21-.23.03-.24-.09-.24-.18-.26-.15-.24-.15-.21-.09-.24-.12-.26-.12-.24-.06-.5-.12-.29-.09-.29-.06h-.59l-.21.03-.29.03-.38.09-.74.26-.29.15-.29.18-.21.15-.24.15-.21.15-.21.18-.23.21-.12.12-.21.24-.18.21-.15.21-.35.41-.15.21-.15.24-.35.71-.15.24-.18.53-.12.26-.12.24-.18.79-.09.29-.09.79v.82l.03.29.09.26.12.24.15.24.18.18.26.12.35.06.38-.03.27-.09.47-.24.41-.35.18-.18.21-.18.18-.21.15-.21.18-.21.15-.21.32-.44.15-.21.44-.71.18-.32.21-.38.12-.18.35-.76.12-.26.06-.21.12-.26.09-.24.09-.26.12-.32.18-.59.12-.32.09-.29.18-.26.29-.15.26-.06.27.03.26.06.47.24.23.15.12.18.03.26-.09.24-.06.26-.09.26-.12.53-.09.26-.06.24-.18.53-.06.29-.03.18-.09.35-.06.26-.12.5-.09.35-.06.29-.06.32-.09.44-.09.5-.03.44.03.38.15.24.29.15.44.03.35-.12.26-.15.41-.29.21-.21.35-.38.35-.41.29-.41.15-.24.18-.24.06-.18.47-.71.12-.24.15-.24.59-1.18.27-.15.35.06.24.29.03.29-.12.26-.15.29Z"/>
        </g>
      </g>
    </g>
  </g>
</svg>