<?xml version="1.0" encoding="UTF-8"?>
<svg id="Capa_1" data-name="Capa 1" xmlns="http://www.w3.org/2000/svg" viewBox="0 0 72 37">
  <defs>
    <style>
      .cls-1 {
        fill: #fff;
      }
    </style>
  </defs>
  <path class="cls-1" d="M30.03,36.5l-2.17-1.71c1.56-1.98,2.98-7.16,3.53-12.9.61-6.39.02-12.17-1.57-15.46-1.03-2.13-2.4-3.17-4.18-3.17-2.63,0-4.45,1.76-5.66,3.77,1.29,3.16,1.5,6.58,1.5,8.47,0,4.27-1.01,9.25-3.87,9.25-2.03,0-3.14-2.38-3.14-6.69,0-3.82.9-7.96,2.4-11.07,0-.02.02-.03.03-.05-1.29-2.44-3.17-3.67-5.59-3.67-2.14,0-3.78,1.13-5.03,3.46-4.11,7.67-1.89,24,.87,28.16l-2.3,1.53c-1.73-2.6-3.09-8.2-3.48-14.28-.26-4.04-.28-11.58,2.47-16.72C5.57,2.2,8.15.5,11.31.5c2.97,0,5.43,1.3,7.2,3.79,1.9-2.49,4.33-3.79,7.14-3.79,1.99,0,4.77.82,6.66,4.73,4.14,8.54,1.5,26.48-2.27,31.27ZM18.29,10.99c-.61,2.03-.98,4.3-1.04,6.46-.06,2.12.2,3.48.44,4.16.34-.66.78-2.03.96-4.21.18-2.16.05-4.4-.36-6.41Z"/>
  <path class="cls-1" d="M51.92,36.18c-.26,0-.51,0-.77-.02-2.66-.16-4.59-1.05-6-2.45-1.68-1.53-5.64-5.72-6.22-13.72-.48-6.62.8-11.89,3.69-15.24,2.46-2.86,5.94-4.19,10.34-3.96,3.92.2,7.04,1.78,9.27,4.7,4.02,5.27,3.75,13.03,3.44,16.12-.3,3.01-1.09,5.65-2.34,7.83,2.44,1.07,4.94,2.46,7.4,4.18l-1.27,2.28c-2.6-1.82-5.21-3.22-7.69-4.24-.51.59-1.06,1.13-1.66,1.62-2.29,1.87-5.24,2.91-8.2,2.91ZM46.99,31.81c.61.79,2.21,1.54,4.29,1.66,2.63.16,5.58-.61,7.92-2.77-5.42-1.77-9.89-1.73-11.77-.56-.71.44-.73.86-.71.99.05.43.27.68.27.68ZM52.04,3.45c-3.29,0-5.87,1.06-7.68,3.17-2.4,2.78-3.44,7.33-3.02,13.16.33,4.62,1.92,7.72,3.39,9.64.33-.65.85-1.2,1.55-1.64,2.75-1.71,8.38-1.6,14.75.73,1.15-1.81,1.98-4.17,2.27-7.19.56-5.72-.51-10.98-2.88-14.08-1.78-2.33-4.32-3.59-7.55-3.76-.28-.01-.55-.02-.82-.02Z"/>
</svg>