<svg width="72" height="37" viewBox="0 0 72 37" fill="none" xmlns="http://www.w3.org/2000/svg">
<path d="M29.7794 37L27.5366 35.244C29.1508 33.2105 30.619 27.884 31.1888 21.99C31.8237 15.4261 31.2142 9.48488 29.5603 6.09731C28.489 3.90461 27.0747 2.83742 25.2352 2.83742C22.5083 2.83742 20.6338 4.64392 19.3815 6.70893C20.7116 9.95936 20.929 13.4699 20.929 15.4119C20.929 19.8005 19.8815 24.9236 16.9277 24.9236C14.831 24.9236 13.677 22.4803 13.677 18.0429C13.677 14.1146 14.6072 9.85847 16.1642 6.66006C16.1722 6.64272 16.1817 6.62381 16.1912 6.60647C14.8548 4.10323 12.9152 2.83742 10.401 2.83742C8.19004 2.83742 6.48537 4.00077 5.19338 6.39208C0.936464 14.2707 3.2411 31.0603 6.09809 35.337L3.71727 36.9054C1.93165 34.2319 0.517439 28.4735 0.114286 22.2344C-0.153953 18.0838 -0.176174 10.3314 2.67605 5.05219C4.46008 1.74659 7.13137 0 10.401 0C13.4691 0 16.0166 1.33989 17.8514 3.89673C19.8196 1.33674 22.3321 0 25.2352 0C27.2985 0 30.1698 0.843345 32.1316 4.8583C36.4187 13.6385 33.6887 32.0771 29.7809 37H29.7794ZM17.6213 10.7791C16.9896 12.8646 16.6055 15.196 16.542 17.4186C16.4801 19.6019 16.7436 20.9969 16.9959 21.6953C17.3467 21.0174 17.8022 19.6082 17.9895 17.3713C18.1752 15.155 18.0403 12.8472 17.6197 10.7791H17.6213Z" fill="white"/>
<path d="M52.4289 36.6737C52.1639 36.6737 51.8972 36.6658 51.6321 36.65C48.8831 36.4814 46.8848 35.5671 45.4245 34.131C43.6834 32.5594 39.5836 28.2497 38.9884 20.0338C38.4947 13.2303 39.8153 7.81235 42.8056 4.36646C45.3515 1.43288 48.9529 0.0614569 53.5098 0.291603C57.5715 0.498105 60.7983 2.12174 63.1045 5.11838C67.2662 10.53 66.9837 18.511 66.6694 21.6905C66.3631 24.7801 65.5409 27.4946 64.2489 29.7393C66.7694 30.8396 69.3613 32.2631 71.9072 34.0333L70.5898 36.3805C67.8979 34.5094 65.1997 33.0749 62.6363 32.0187C62.1109 32.6272 61.538 33.1836 60.9189 33.6833C58.5476 35.6033 55.4922 36.6705 52.4305 36.6705L52.4289 36.6737ZM47.3308 32.1748C47.9657 32.9835 49.6148 33.7543 51.7686 33.8867C54.4891 34.0538 57.5477 33.264 59.9634 31.0367C54.3558 29.2128 49.7275 29.2585 47.7831 30.4566C47.0467 30.9106 47.0308 31.3362 47.0467 31.4733C47.0943 31.9178 47.3308 32.1748 47.3308 32.1748ZM52.548 3.03602C49.1434 3.03602 46.4705 4.12843 44.5944 6.2896C42.1152 9.14752 41.0327 13.823 41.4676 19.8115C41.812 24.5547 43.458 27.7421 44.9753 29.7173C45.315 29.0536 45.8563 28.4798 46.5784 28.0353C49.4275 26.2777 55.2494 26.3912 61.8443 28.7809C63.0331 26.924 63.8886 24.4948 64.1965 21.3878C64.779 15.5112 63.6632 10.1028 61.2142 6.91856C59.3746 4.52567 56.7446 3.22676 53.3971 3.05651C53.1098 3.04233 52.8257 3.03445 52.548 3.03445V3.03602Z" fill="white"/>
</svg>
