<?xml version="1.0" encoding="UTF-8"?>
<svg xmlns="http://www.w3.org/2000/svg" version="1.1" viewBox="0 0 56.69 30.99">
  <defs>
    <style>
      .cls-1 {
        fill: #1d1d1b;
      }
    </style>
  </defs>
  <!-- Generator: Adobe Illustrator 28.6.0, SVG Export Plug-In . SVG Version: 1.2.0 Build 709)  -->
  <g>
    <g id="Capa_1">
      <path class="cls-1" d="M11.26,24.61c-1.91-1.28-3.66-2.85-4.88-4.81-1.32-2.13-1.48-4.4-.87-6.8,1.13-4.44,5.87-6.52,9.88-4.17,1.66.97,3.3,3.55,1.43,5.17-.61.53-1.55.61-2.17.02-.87-.84-.02-2.12.64-2.79,2.98-3.01,8.37-2.7,10.62,1.01,2.94,4.87-1.77,9.88-5.34,12.69-1.26.99.52,2.75,1.77,1.77,2.64-2.08,5.09-4.51,6.27-7.72,1.05-2.87.86-6.18-1-8.67-1.72-2.3-4.47-3.69-7.36-3.64s-6.32,1.57-7.82,4.23-.03,5.88,3.1,6.04,5.04-3.12,4.45-5.94c-.65-3.08-3.7-5.01-6.63-5.51-3.13-.53-6.25.51-8.29,2.98-2.14,2.61-2.98,6.5-2.11,9.76.97,3.65,4.01,6.51,7.04,8.55,1.34.9,2.59-1.26,1.26-2.16h0Z"/>
      <path class="cls-1" d="M34.63,8.43c-3.59,3.14-4.44,8.5-2.48,12.75,2.11,4.57,7.01,6.2,11.75,5.62,2.39-.29,4.75-1.17,6.43-2.95,1.55-1.64,2.47-3.81,2.7-6.05.5-4.8-2.45-9.36-7.1-10.67-1.75-.5-3.66-.55-5.47-.45-2.05.12-4.18.45-5.83,1.75-1.26,1,.52,2.76,1.77,1.77.94-.74,2.43-.89,3.57-.99,1.28-.1,2.59-.11,3.86.03,3.38.38,6.25,2.9,6.7,6.55s-1.75,7.28-5.42,8.25c-3.45.91-7.83.42-10-2.71-2.4-3.46-1.9-8.35,1.29-11.14,1.21-1.06-.56-2.82-1.77-1.77Z"/>
      <path class="cls-1" d="M47.42,9.52c-.87,1.67-2.22,2.9-4.2,3.05-2.42.18-3.67-1.65-4.88-3.42s-2.61-3.35-4.8-3.87-4.34-.42-5.95,1.15c-1.15,1.13.62,2.89,1.77,1.77,1.48-1.45,4.44-.57,5.71.77,1.43,1.5,2.21,3.5,3.88,4.79,1.82,1.41,4.3,1.69,6.43.86,1.94-.76,3.25-1.98,4.2-3.82.74-1.43-1.42-2.69-2.16-1.26h0Z"/>
    </g>
  </g>
</svg>