<?xml version="1.0" encoding="UTF-8"?>
<svg xmlns="http://www.w3.org/2000/svg" version="1.1" viewBox="0 0 150 65">
  <defs>
    <style>
      .cls-1 {
        fill: #fff;
      }
    </style>
  </defs>
  <!-- Generator: Adobe Illustrator 28.6.0, SVG Export Plug-In . SVG Version: 1.2.0 Build 709)  -->
  <g>
    <g id="Capa_1">
      <g>
        <path class="cls-1" d="M26.9,56c-5.1-3.4-10-7.7-13.4-13.2-3.6-5.8-4.1-12-2.4-18.5,3.1-12.2,16-17.8,26.9-11.3,4.5,2.6,9.1,9.6,3.9,14.1-1.7,1.4-4.3,1.7-6,0-2.4-2.2,0-5.8,1.7-7.5,8.1-8.2,22.8-7.4,29,2.7,8.1,13.2-4.8,26.9-14.6,34.7-3.4,2.7,1.4,7.5,4.8,4.8,7.2-5.7,13.9-12.4,17.2-21.1,2.9-7.9,2.4-16.8-2.7-23.7-4.6-6.3-12.2-10.1-20.1-10s-17.3,4.3-21.3,11.5,0,16.1,8.4,16.5c8.6.5,13.7-8.6,12.2-16.3-1.7-8.4-10.1-13.7-18-15.1-8.6-1.4-17,1.4-22.6,8.1-5.8,7.2-8.1,17.7-5.8,26.6,2.6,10,11,17.8,19.2,23.3,3.6,2.4,7-3.4,3.4-5.8h0v.3h.2Z"/>
        <path class="cls-1" d="M128.4,8.3c-4.8-1.4-10-1.5-14.9-1.2-3.4.2-7,.6-10.2,1.7-2.4-2.5-5.3-4.5-8.9-5.5-5.8-1.5-11.8-1.2-16.3,3.1-3.1,3.1,1.7,7.9,4.8,4.8,3.7-3.5,10.5-2,14.3.9-9.6,8.6-11.9,23-6.4,34.6,5.8,12.5,19.2,17,32.1,15.3,6.5-.9,13-3.3,17.5-8.1,4.3-4.5,6.7-10.5,7.4-16.5,1.4-13-6.7-25.6-19.4-29.2ZM122.6,14c3.1.3,6,1.4,8.6,2.9-2.4,3.5-5.6,5.9-10.3,6.4-6.4.5-9.7-4.1-13-8.7,1.5-.3,2.9-.4,4.2-.6,3.4-.3,7-.3,10.5,0ZM126.2,54.3c-9.4,2.4-21.4,1.2-27.3-7.4-6.3-9.1-5.2-22,2.8-29.6,2.2,3.2,4.2,6.6,7.5,9,5,3.8,11.7,4.6,17.5,2.4,4.2-1.6,7.3-4.1,9.6-7.4,2.4,2.9,4,6.4,4.6,10.5,1.4,10-4.8,19.9-14.8,22.5Z"/>
      </g>
    </g>
  </g>
</svg>