<?xml version="1.0" encoding="UTF-8"?>
<svg xmlns="http://www.w3.org/2000/svg" version="1.1" viewBox="0 0 85 40">
  <defs>
    <style>
      .cls-1 {
        fill: #fff;
      }
    </style>
  </defs>
  <!-- Generator: Adobe Illustrator 28.6.0, SVG Export Plug-In . SVG Version: 1.2.0 Build 709)  -->
  <g>
    <g id="Capa_1">
      <g id="Capa_1-2" data-name="Capa_1">
        <g id="Capa_1-2">
          <path class="cls-1" d="M16.1,33.7c-3-2-5.8-4.5-7.8-7.7-2.1-3.4-2.4-7-1.4-10.8,1.8-7.1,9.3-10.4,15.7-6.6,2.6,1.5,5.3,5.6,2.3,8.2-1,.8-2.5,1-3.5,0-1.4-1.3,0-3.4,1-4.4,4.7-4.8,13.3-4.3,16.9,1.6,4.7,7.7-2.8,15.7-8.5,20.2-2,1.6.8,4.4,2.8,2.8,4.2-3.3,8.1-7.2,10-12.3,1.7-4.6,1.4-9.8-1.6-13.8-2.7-3.7-7.1-5.9-11.7-5.8s-10.1,2.5-12.4,6.7,0,9.4,4.9,9.6c5,.3,8-5,7.1-9.5-1-4.9-5.9-8-10.5-8.8-5-.8-9.9.8-13.2,4.7-3.4,4.2-4.7,10.3-3.4,15.5,1.5,5.8,6.4,10.4,11.2,13.6,2.1,1.4,4.1-2,2-3.4h0v.2Z"/>
          <path class="cls-1" d="M53.3,8c-5.7,5-7.1,13.5-3.9,20.3,3.4,7.3,11.2,9.9,18.7,8.9,3.8-.5,7.6-1.9,10.2-4.7,2.5-2.6,3.9-6.1,4.3-9.6.8-7.6-3.9-14.9-11.3-17-2.8-.8-5.8-.9-8.7-.7-3.3.2-6.7.7-9.3,2.8-2,1.6.8,4.4,2.8,2.8,1.5-1.2,3.9-1.4,5.7-1.6,2-.2,4.1-.2,6.1,0,5.4.6,9.9,4.6,10.7,10.4s-2.8,11.6-8.6,13.1c-5.5,1.4-12.5.7-15.9-4.3-3.8-5.5-3-13.3,2.1-17.7,1.9-1.7-.9-4.5-2.8-2.8h0Z"/>
          <path class="cls-1" d="M73.6,9.7c-1.4,2.7-3.5,4.6-6.7,4.9-3.9.3-5.8-2.6-7.8-5.4s-4.2-5.3-7.6-6.2-6.9-.7-9.5,1.8c-1.8,1.8,1,4.6,2.8,2.8,2.4-2.3,7.1-.9,9.1,1.2,2.3,2.4,3.5,5.6,6.2,7.6,2.9,2.2,6.8,2.7,10.2,1.4,3.1-1.2,5.2-3.2,6.7-6.1,1.2-2.3-2.3-4.3-3.4-2h0Z"/>
        </g>
      </g>
    </g>
  </g>
</svg>