<?xml version="1.0" encoding="UTF-8"?>
<svg id="Capa_1" data-name="Capa 1" xmlns="http://www.w3.org/2000/svg" viewBox="0 0 1030 220">
  <defs>
    <style>
      .cls-1 {
        fill: #272725;
      }
    </style>
  </defs>
  <path class="cls-1" d="M62.85,200.61c-1.23-.05-2.45-.13-3.68-.26-12.67-1.3-21.74-6.02-28.22-13.13-7.76-7.81-25.9-29.1-27.12-68.39-1.01-32.53,6.1-58.13,20.56-74.02,12.32-13.53,29.22-19.42,50.23-17.49,18.73,1.72,33.35,10.04,43.44,24.75,18.23,26.56,15.43,64.56,13.39,79.67-1.99,14.68-6.29,27.47-12.69,37.95,11.45,5.7,23.16,12.96,34.6,21.86l-6.53,10.96c-12.09-9.41-24.3-16.73-35.95-22.24-2.54,2.81-5.3,5.35-8.25,7.63-11.32,8.73-25.64,13.27-39.79,12.71ZM40.12,178.23c2.78,3.97,10.26,7.95,20.19,8.96,12.55,1.29,26.82-1.93,38.41-12.11-25.58-9.71-46.98-10.33-56.19-4.97-3.49,2.03-3.64,4.06-3.6,4.72.14,2.13,1.18,3.4,1.18,3.4ZM69.67,40.22c-15.74-.62-28.29,4.11-37.36,14.08-11.99,13.18-17.86,35.28-16.97,63.91.71,22.68,7.72,38.18,14.36,47.87,1.69-3.1,4.3-5.74,7.72-7.73,13.49-7.86,40.39-6.27,70.42,6.32,5.84-8.64,10.25-20.07,12.25-34.83,3.78-27.92-.36-53.91-11.08-69.54-8.06-11.74-19.97-18.41-35.41-19.83-1.33-.12-2.63-.21-3.92-.26Z"/>
  <path class="cls-1" d="M731.79,149.74c2.47-13.28,2.9-27.38,2.9-39.39,0-27.65-7.07-48.57-21.01-62.18-19.45-18.99-47.01-18.95-61.78-18.93h-1.45v12.93h1.47c13.78-.03,36.86-.06,52.43,15.15,11.37,11.1,17.13,28.94,17.13,53.03,0,10.85-.47,20.41-1.48,28.76-11.51-8.34-24.77-12.66-39.27-12.66-17.11,0-27.68,6.48-33.53,11.92-7.57,7.03-11.9,16.74-11.9,26.64s3.85,18.22,10.85,24.61c7.62,6.96,18.41,10.64,31.22,10.64,22.94,0,39.12-9.93,48.1-29.53.79-1.71,1.5-3.48,2.16-5.29.28.4.56.8.84,1.21,9.7,14.11,13.46,28.56,13.49,28.7l12.83-3.09c-.17-.67-4.24-16.5-15.13-32.48-2.47-3.63-5.1-6.98-7.87-10.03ZM677.36,187.34c-9.39,0-17.07-2.48-22.19-7.16-4.29-3.92-6.65-9.31-6.65-15.17,0-12.74,11.07-25.63,32.22-25.63,13.95,0,26.23,4.83,36.66,14.38-5.89,23.66-18.51,33.59-40.04,33.59Z"/>
  <path class="cls-1" d="M1011.14,159.28c-2.47-3.62-5.1-6.95-7.87-9.99,2.47-13.23,2.9-27.27,2.9-39.24,0-27.54-7.07-48.38-21.01-61.95-19.45-18.92-46.97-18.88-61.78-18.85h-1.45v12.88h1.47c13.78-.03,36.86-.06,52.43,15.09,11.37,11.06,17.13,28.83,17.13,52.83,0,10.81-.47,20.33-1.48,28.65-11.51-8.31-24.77-12.61-39.27-12.61-17.11,0-27.68,6.46-33.53,11.87-7.57,7-11.9,16.67-11.9,26.54s3.85,18.15,10.85,24.52c7.62,6.94,18.41,10.6,31.22,10.6,22.94,0,39.12-9.9,48.1-29.42.79-1.71,1.5-3.47,2.16-5.28.28.4.56.8.84,1.2,9.7,14.06,13.46,28.46,13.49,28.59l12.83-3.08c-.17-.66-4.24-16.44-15.13-32.36ZM948.84,186.73c-9.39,0-17.07-2.47-22.19-7.13-4.29-3.91-6.65-9.27-6.65-15.11,0-12.69,11.07-25.54,32.22-25.54,13.95,0,26.23,4.81,36.66,14.32-5.89,23.57-18.51,33.46-40.04,33.46Z"/>
  <path class="cls-1" d="M244.99,35.61c.2.73,19.68,73.54,19.68,102.77,0,18.87-5.18,50.53-39.84,50.53-26.3,0-43.97-20.31-43.97-50.53,0-33.01,20.4-101.91,20.61-102.6l-12.67-3.77c-.86,2.9-21.16,71.44-21.16,106.37,0,17.86,5.57,34.02,15.68,45.5,10.36,11.77,25.1,18.25,41.5,18.25,33.22,0,53.05-23.83,53.05-63.75,0-30.97-19.31-103.14-20.13-106.2l-12.76,3.43Z"/>
  <path class="cls-1" d="M334.67,35.01l-12.9-2.87c-6.78,30.44,1.63,160.57,2.01,165.01l13.17-1.13c-.09-1.07-8.62-132.53-2.28-161.01Z"/>
  <path class="cls-1" d="M632.58,35.14c0-8.82-6.29-15.19-16.82-17.05-9.07-1.6-20.73.13-31.18,4.65-8.2,3.54-14.77,8.39-19.21,14.08-19.87-2.21-37.96-5.84-43.41-7.87l-4.6,12.39c5.37,2,22.54,5.64,41.96,8.08-5.1,19.9-4.15,60.94-3.7,73.76.99,28.16,4.12,62.98,9.98,76.25l12.09-5.34c-4.13-9.37-7.7-38.06-8.86-71.38-1.14-32.57.39-61.1,3.82-71.87,22.19,1.95,44.54,1.62,53.94-4.92,3.87-2.69,5.99-6.52,5.99-10.79ZM583.23,38.33c9.2-5.9,22.01-8.68,30.22-7.23,5.27.93,5.84,2.83,5.9,3.75-1.67,1.68-10.8,4.87-36.12,3.47Z"/>
  <path class="cls-1" d="M500.41,120.13c-1.57-25.08-6.6-58.99-21.66-78.16-7.65-9.74-17.05-14.68-27.92-14.68-18.3,0-34.74,14.31-46.29,40.28-.69,1.56-1.37,3.15-2.02,4.78-.61-15.97-3.28-29.46-11.28-42l-11.14,7.11c10.5,16.47,9.84,35.99,8.83,65.54-.33,9.66-.7,20.62-.7,32.7,0,16.88,0,32.16,0,43.22v17.61c.01.13.03.25.03.38l13.2-1.75v-7.9c0-6.63,0-16.94,0-31.68,0-31.34,5.37-60.68,15.13-82.62,5.38-12.11,16.99-32.44,34.21-32.44,6.7,0,12.44,3.15,17.53,9.63,22.29,28.38,22.84,110.27,14.66,143.82l12.84,3.13c4.46-18.31,6.29-49.23,4.56-76.96Z"/>
  <path class="cls-1" d="M889.73,120.13c-1.57-25.08-6.6-58.99-21.66-78.16-7.66-9.74-17.05-14.68-27.92-14.68-18.3,0-34.74,14.31-46.29,40.28-.69,1.56-1.37,3.15-2.02,4.78-.61-15.97-3.28-29.46-11.28-42l-11.14,7.11c10.5,16.47,9.84,35.99,8.83,65.54-.33,9.66-.7,20.62-.7,32.7,0,16.88,0,32.16,0,43.22v17.29s13.24-.62,13.24-.62c0,0-.75-25.29,0-40.01,1.16-22.71,5.37-60.68,15.13-82.62,5.38-12.11,16.99-32.44,34.21-32.44,6.7,0,12.44,3.15,17.53,9.63,22.29,28.38,22.84,110.27,14.66,143.82l12.84,3.13c4.46-18.31,6.29-49.23,4.56-76.96Z"/>
</svg>