<svg width="1023" height="185" viewBox="0 0 1023 185" fill="none" xmlns="http://www.w3.org/2000/svg">
<g clip-path="url(#clip0_94_56)">
<path d="M59.12 183.11C57.89 183.06 56.67 182.98 55.44 182.85C42.77 181.55 33.7 176.83 27.22 169.72C19.46 161.91 1.32001 140.62 0.0900102 101.33C-0.91999 68.8 6.19001 43.2 20.66 27.31C32.98 13.78 49.88 7.89 70.89 9.82C89.62 11.54 104.24 19.86 114.33 34.57C132.56 61.13 129.76 99.13 127.72 114.24C125.73 128.92 121.43 141.71 115.03 152.19C126.48 157.89 138.19 165.15 149.63 174.05L143.1 185.01C131.01 175.6 118.8 168.28 107.15 162.77C104.61 165.58 101.85 168.12 98.9 170.4C87.58 179.13 73.26 183.67 59.11 183.11H59.12ZM36.39 160.73C39.17 164.7 46.65 168.68 56.58 169.69C69.13 170.98 83.4 167.76 94.99 157.58C69.41 147.87 48.01 147.25 38.8 152.61C35.31 154.64 35.16 156.67 35.2 157.33C35.34 159.46 36.38 160.73 36.38 160.73H36.39ZM65.94 22.72C50.2 22.1 37.65 26.83 28.58 36.8C16.59 49.98 10.72 72.08 11.61 100.71C12.32 123.39 19.33 138.89 25.97 148.58C27.66 145.48 30.27 142.84 33.69 140.85C47.18 132.99 74.08 134.58 104.11 147.17C109.95 138.53 114.36 127.1 116.36 112.34C120.14 84.42 116 58.43 105.28 42.8C97.22 31.06 85.31 24.39 69.87 22.97C68.54 22.85 67.24 22.76 65.95 22.71L65.94 22.72Z" fill="#272725"/>
<path d="M728.06 132.24C730.53 118.96 730.96 104.86 730.96 92.85C730.96 65.2 723.89 44.28 709.95 30.67C690.5 11.68 662.94 11.72 648.17 11.74H646.72V24.67H648.19C661.97 24.64 685.05 24.61 700.62 39.82C711.99 50.92 717.75 68.76 717.75 92.85C717.75 103.7 717.28 113.26 716.27 121.61C704.76 113.27 691.5 108.95 677 108.95C659.89 108.95 649.32 115.43 643.47 120.87C635.9 127.9 631.57 137.61 631.57 147.51C631.57 157.41 635.42 165.73 642.42 172.12C650.04 179.08 660.83 182.76 673.64 182.76C696.58 182.76 712.76 172.83 721.74 153.23C722.53 151.52 723.24 149.75 723.9 147.94C724.18 148.34 724.46 148.74 724.74 149.15C734.44 163.26 738.2 177.71 738.23 177.85L751.06 174.76C750.89 174.09 746.82 158.26 735.93 142.28C733.46 138.65 730.83 135.3 728.06 132.25V132.24ZM673.63 169.84C664.24 169.84 656.56 167.36 651.44 162.68C647.15 158.76 644.79 153.37 644.79 147.51C644.79 134.77 655.86 121.88 677.01 121.88C690.96 121.88 703.24 126.71 713.67 136.26C707.78 159.92 695.16 169.85 673.63 169.85V169.84Z" fill="#272725"/>
<path d="M1007.41 141.78C1004.94 138.16 1002.31 134.83 999.54 131.79C1002.01 118.56 1002.44 104.52 1002.44 92.55C1002.44 65.01 995.37 44.17 981.43 30.6C961.98 11.68 934.46 11.72 919.65 11.75H918.2V24.63H919.67C933.45 24.6 956.53 24.57 972.1 39.72C983.47 50.78 989.23 68.55 989.23 92.55C989.23 103.36 988.76 112.88 987.75 121.2C976.24 112.89 962.98 108.59 948.48 108.59C931.37 108.59 920.8 115.05 914.95 120.46C907.38 127.46 903.05 137.13 903.05 147C903.05 156.87 906.9 165.15 913.9 171.52C921.52 178.46 932.31 182.12 945.12 182.12C968.06 182.12 984.24 172.22 993.22 152.7C994.01 150.99 994.72 149.23 995.38 147.42C995.66 147.82 995.94 148.22 996.22 148.62C1005.92 162.68 1009.68 177.08 1009.71 177.21L1022.54 174.13C1022.37 173.47 1018.3 157.69 1007.41 141.77V141.78ZM945.11 169.23C935.72 169.23 928.04 166.76 922.92 162.1C918.63 158.19 916.27 152.83 916.27 146.99C916.27 134.3 927.34 121.45 948.49 121.45C962.44 121.45 974.72 126.26 985.15 135.77C979.26 159.34 966.64 169.23 945.11 169.23Z" fill="#272725"/>
<path d="M241.26 18.11C241.46 18.84 260.94 91.65 260.94 120.88C260.94 139.75 255.76 171.41 221.1 171.41C194.8 171.41 177.13 151.1 177.13 120.88C177.13 87.87 197.53 18.97 197.74 18.28L185.07 14.51C184.21 17.41 163.91 85.95 163.91 120.88C163.91 138.74 169.48 154.9 179.59 166.38C189.95 178.15 204.69 184.63 221.09 184.63C254.31 184.63 274.14 160.8 274.14 120.88C274.14 89.91 254.83 17.74 254.01 14.68L241.25 18.11H241.26Z" fill="#272725"/>
<path d="M330.94 17.51L318.04 14.64C311.26 45.08 319.67 175.21 320.05 179.65L333.22 178.52C333.13 177.45 324.6 45.99 330.94 17.51Z" fill="#272725"/>
<path d="M628.85 17.64C628.85 8.82 622.56 2.45 612.03 0.589998C602.96 -1.01 591.3 0.719998 580.85 5.24C572.65 8.78 566.08 13.63 561.64 19.32C541.77 17.11 523.68 13.48 518.23 11.45L513.63 23.84C519 25.84 536.17 29.48 555.59 31.92C550.49 51.82 551.44 92.86 551.89 105.68C552.88 133.84 556.01 168.66 561.87 181.93L573.96 176.59C569.83 167.22 566.26 138.53 565.1 105.21C563.96 72.64 565.49 44.11 568.92 33.34C591.11 35.29 613.46 34.96 622.86 28.42C626.73 25.73 628.85 21.9 628.85 17.63V17.64ZM579.5 20.83C588.7 14.93 601.51 12.15 609.72 13.6C614.99 14.53 615.56 16.43 615.62 17.35C613.95 19.03 604.82 22.22 579.5 20.82V20.83Z" fill="#272725"/>
<path d="M496.68 102.63C495.11 77.55 490.08 43.64 475.02 24.47C467.37 14.73 457.97 9.78999 447.1 9.78999C428.8 9.78999 412.36 24.1 400.81 50.07C400.12 51.63 399.44 53.22 398.79 54.85C398.18 38.88 395.51 25.39 387.51 12.85L376.37 19.96C386.87 36.43 386.21 55.95 385.2 85.5C384.87 95.16 384.5 106.12 384.5 118.2C384.5 135.08 384.5 150.36 384.5 161.42V179.03C384.51 179.16 384.53 179.28 384.53 179.41L397.73 177.66V169.76C397.73 163.13 397.73 152.82 397.73 138.08C397.73 106.74 403.1 77.4 412.86 55.46C418.24 43.35 429.85 23.02 447.07 23.02C453.77 23.02 459.51 26.17 464.6 32.65C486.89 61.03 487.44 142.92 479.26 176.47L492.1 179.6C496.56 161.29 498.39 130.37 496.66 102.64L496.68 102.63Z" fill="#272725"/>
<path d="M885.99 102.63C884.42 77.55 879.39 43.64 864.33 24.47C856.67 14.73 847.28 9.78999 836.41 9.78999C818.11 9.78999 801.67 24.1 790.12 50.07C789.43 51.63 788.75 53.22 788.1 54.85C787.49 38.88 784.82 25.39 776.82 12.85L765.68 19.96C776.18 36.43 775.52 55.95 774.51 85.5C774.18 95.16 773.81 106.12 773.81 118.2C773.81 135.08 773.81 150.36 773.81 161.42V178.71L787.05 178.09C787.05 178.09 786.3 152.8 787.05 138.08C788.21 115.37 792.42 77.4 802.18 55.46C807.56 43.35 819.17 23.02 836.39 23.02C843.09 23.02 848.83 26.17 853.92 32.65C876.21 61.03 876.76 142.92 868.58 176.47L881.42 179.6C885.88 161.29 887.71 130.37 885.98 102.64L885.99 102.63Z" fill="#272725"/>
</g>
<defs>
<clipPath id="clip0_94_56">
<rect width="1022.54" height="185" fill="white"/>
</clipPath>
</defs>
</svg>
